SplineFontDB: 3.2
FontName: MFEKSans-Thin
FullName: MFEK Sans Thin
FamilyName: MFEK Sans Thin
Weight: Thin
Copyright: 
Version: 0.1
ItalicAngle: 0
UnderlinePosition: -200
UnderlineWidth: 100
Ascent: 1600
Descent: 400
InvalidEm: 0
LayerCount: 2
Layer: 0 0 "Back" 1
Layer: 1 0 "Fore" 0
XUID: [1021 31 -699969567 16487490]
FSType: 0
OS2Version: 0
OS2_WeightWidthSlopeOnly: 0
OS2_UseTypoMetrics: 1
CreationTime: 1460762150
ModificationTime: 1688473572
PfmFamily: 33
TTFWeight: 100
TTFWidth: 5
LineGap: 0
VLineGap: 0
OS2TypoAscent: 2500
OS2TypoAOffset: 0
OS2TypoDescent: -850
OS2TypoDOffset: 0
OS2TypoLinegap: 0
OS2WinAscent: 2500
OS2WinAOffset: 0
OS2WinDescent: 850
OS2WinDOffset: 0
HheadAscent: 2500
HheadAOffset: 0
HheadDescent: -850
HheadDOffset: 0
OS2CapHeight: 1500
OS2XHeight: 1040
OS2FamilyClass: 2053
OS2Vendor: 'it* '
OS2UnicodeRanges: 00000001.00000000.00000000.00000000
Lookup: 258 0 0 "kerning yeah boi" { "say cheese" [300,0,4] } ['kern' ('DFLT' <'dflt' > 'grek' <'dflt' > 'latn' <'dflt' > ) ]
MarkAttachClasses: 1
DEI: 91125
KernClass2: 30 23 "say cheese"
 73 A Agrave Aacute Acircumflex Atilde Adieresis Aring Amacron Abreve Aogonek
 96 D O Ograve Oacute Ocircumflex Otilde Odieresis Oslash Dcaron Dcroat Omacron Obreve Ohungarumlaut
 81 E AE Egrave Eacute Ecircumflex Edieresis Emacron Ebreve Edotaccent Eogonek Ecaron
 1 F
 39 G Gcircumflex Gbreve Gdotaccent uni0122
 104 J U Ugrave Uacute Ucircumflex Udieresis IJ Jcircumflex Utilde Umacron Ubreve Uring Uhungarumlaut Uogonek
 11 K X uni0136
 23 L Lacute uni013B Lslash
 1 P
 1 Q
 23 R Racute uni0156 Rcaron
 36 S Sacute Scircumflex Scedilla Scaron
 21 T uni0162 Tcaron Tbar
 1 V
 53 W Wcircumflex Wgrave Wacute Wdieresis uni1E86 uni1E88
 30 Y Ycircumflex Ydieresis Ygrave
 26 Z Zacute Zdotaccent Zcaron
 73 a agrave aacute acircumflex atilde adieresis aring amacron abreve aogonek

StartChar: ampersand
Encoding: 38 38 0
Width: 1280
VWidth: 1920
Flags: HMW
LayerCount: 2
Fore
SplineSet
1123 10 m 2
 558 734 l 2
 426.079383022 903.045179986 340 1030 340 1163 c 0
 340 1303.00195312 438 1435 645 1435 c 0
 832 1435 970 1343.22070312 970 1173 c 0
 970 990 845.042900152 867.820466135 637 776 c 0
 382.870224615 663.83892929 102 627 102 443 c 0
 102 354.00390625 126.622066341 293.410073963 176 218.696289062 c 2
 229 138.501953125 l 2
 285.086056792 53.6381025627 405.764648438 -5 531.208984375 -5 c 4
 772.80859375 -5 994.078532744 246.229563372 1122.13183594 640 c 0
 1123.91791446 645.492282514 1128.02246094 648 1135 648 c 2
 1145 648 l 2
 1152.03066744 648 1154.13490282 645.350047449 1151.38815501 637.000027364 c 0
 1016.46548426 226.8396892 798.814717401 -35 531.208984375 -35 c 0
 395.288085938 -35 267.967987912 14.1464438511 199 118.501953125 c 2
 146 198.696289062 l 2
 92.9755859375 278.927734375 66 346.583984375 66 443 c 0
 66 652 378.788943543 695.069875229 617 806 c 0
 836.7265625 908.322265625 935 1012 935 1173 c 0
 935 1313 822 1405 645 1405 c 0
 468 1405 375 1292.02636719 375 1163 c 0
 375 1044 458.26227687 917.504366277 593 744 c 2
 1163 10 l 2
 1168.64453125 4.0341796875 1167 0 1160 0 c 2
 1140 0 l 2
 1133 0 1127.62792969 3.1064453125 1123 10 c 2
EndSplineSet
EndChar

StartChar: period
Encoding: 46 46 1
Width: 540
VWidth: 1920
Flags: HMW
LayerCount: 2
Fore
SplineSet
280 0 m 6
 260 0 l 6
 253 0 250 3 250 10 c 6
 250 200 l 6
 250 207 253 210 260 210 c 6
 280 210 l 6
 287 210 290 207 290 200 c 6
 290 10 l 6
 290 3 287 0 280 0 c 6
EndSplineSet
EndChar

StartChar: zero
Encoding: 48 48 2
Width: 1150
VWidth: 1920
Flags: HMW
LayerCount: 2
Fore
SplineSet
180 488 m 258
 180 913 l 258
 180 1238.79492188 293.346679688 1435 575 1435 c 256
 856.653320312 1435 970 1238.79492188 970 913 c 258
 970 488 l 258
 970 161.891601562 856.377929688 -35 575 -35 c 256
 293.622070312 -35 180 161.891601562 180 488 c 258
215 488 m 262
 215 189.787109375 311.172851562 -5 575 -5 c 256
 838.827148438 -5 935 189.787109375 935 488 c 258
 935 913 l 258
 935 1210.875 839.051757812 1405 575 1405 c 256
 310.948242188 1405 215 1210.875 215 913 c 262
 215 488 l 262
EndSplineSet
EndChar

StartChar: one
Encoding: 49 49 3
Width: 600
VWidth: 1920
Flags: HMW
LayerCount: 2
Fore
SplineSet
291 1376.24902344 m 4
 299.071289062 1384.51953125 297.808620908 1399.75721012 298.745117188 1440 c 4
 298.918945312 1447.484375 299.3984375 1450 306 1450 c 6
 308 1450 l 6
 315 1450 315 1447 315 1440 c 6
 315 10 l 6
 315 3 312 0 305 0 c 6
 295 0 l 6
 288 0 285 3 285 10 c 6
 285 1364 l 6
 285 1370.734375 288.188879804 1373.36851806 291 1376.24902344 c 4
EndSplineSet
EndChar

StartChar: two
Encoding: 50 50 4
Width: 1080
VWidth: 1920
Flags: HMW
LayerCount: 2
Fore
SplineSet
160 40 m 258
 160 524.034179688 870 635.631835938 870 1033 c 258
 870 1068 l 258
 870 1238 766 1405 559 1405 c 256
 309 1405 220 1254.57617188 220 1002 c 258
 220 912 l 2
 220 905 217 902 210 902 c 2
 195 902 l 2
 188 902 185 905 185 912 c 2
 185 1002 l 258
 185 1275.74121094 282 1435 559 1435 c 256
 786 1435 905 1253 905 1073 c 258
 905 1028 l 258
 905 622.094726562 195 486 195 45 c 262
 195 35 l 261
 990 35 l 2
 997 35 1000 32 1000 25 c 2
 1000 10 l 2
 1000 3.00040172166 997 -8.57252759403e-16 990 0 c 2
 165 0 l 6
 158 0 160 3 160 10 c 2
 160 40 l 258
EndSplineSet
EndChar

StartChar: three
Encoding: 51 51 5
Width: 1100
VWidth: 1920
Flags: HMW
LayerCount: 2
Fore
SplineSet
170 407 m 2
 180 407 l 2
 187 407 190 404 190 397 c 2
 190 327 l 2
 190 107.036132812 301 -5 530 -5 c 0
 807 -5 905 142 905 342 c 6
 905 393 l 2
 905 593 756.918945312 740 530 740 c 2
 450 740 l 2
 443 740 440 743 440 750 c 2
 440 760 l 2
 440 767 443 770 450 770 c 2
 510 770 l 2
 746.885742188 770 850 893 850 1053 c 2
 850 1088 l 2
 850 1278 771 1405 544 1405 c 0
 334 1405 225 1264.81445312 225 1052 c 2
 225 962 l 2
 225 955 222 952 215 952 c 2
 205 952 l 2
 198 952 195 955 195 962 c 2
 195 1052 l 2
 195 1286 317 1435 544 1435 c 0
 771 1435 885 1313 885 1083 c 2
 885 1058 l 2
 885 878 767 750 510 750 c 1
 530 760 l 1
 787 760 935 612 935 392 c 2
 935 337 l 6
 935 127 827 -35 530 -35 c 4
 278 -35 160 99 160 327 c 2
 160 397 l 2
 160 404 163 407 170 407 c 2
EndSplineSet
EndChar

StartChar: four
Encoding: 52 52 6
Width: 1045
VWidth: 1920
Flags: HMW
LayerCount: 2
Fore
SplineSet
950 410 m 2
 950 400 l 2
 950 393 947 390 940 390 c 2
 755 390 l 261
 755 10 l 6
 755 3 752 0 745 0 c 6
 730 0 l 2
 723 0 720 3 720 10 c 2
 720 390 l 257
 60 390 l 2
 53 390 50 393 50 400 c 2
 50 430 l 2
 50 437 51.6259765625 442.678710938 57 450 c 2
 703 1390 l 2
 706.839927636 1395.16007236 712.507874123 1400 720 1400 c 2
 745 1400 l 6
 752 1400 755 1397 755 1390 c 6
 755 420 l 261
 940 420 l 2
 947 420 950 417 950 410 c 2
720 420 m 257
 720 1360.83300781 l 257
 75 420 l 257
 720 420 l 257
EndSplineSet
EndChar

StartChar: five
Encoding: 53 53 7
Width: 1100
VWidth: 1920
Flags: HMW
LayerCount: 2
Fore
SplineSet
190 368 m 2
 200 368 l 2
 206.907226562 368 210.305739491 365.035440872 210.643554688 359 c 0
 223.91015625 121.977539062 317.780273438 -5 535 -5 c 0
 784 -5 965 157.28237825 965 428 c 2
 965 493 l 2
 965 752.59765625 804 925 610 925 c 0
 473.91015625 925 334.405273438 814.098632812 246 663.57421875 c 0
 241.030256193 655.112418389 236.759765625 653 230 653 c 2
 220 653 l 2
 213 653 209.782226562 654.877929688 211 663 c 2
 320 1390 l 2
 321.026367188 1396.84570312 324 1400 331 1400 c 2
 931 1400 l 2
 938 1400 941 1397 941 1390 c 2
 941 1389 l 6
 941 1373 911 1370 741 1370 c 2
 344 1370 l 1
 241.328125 675.357421875 l 1
 228.328125 675.357421875 l 1
 302.97265625 818.810546875 449.609099591 955 610 955 c 0
 810 955 1000 790 1000 493 c 2
 1000 428 l 2
 1000 131 805 -35 535 -35 c 0
 301.010559942 -35 196.26953125 101.000976562 180.536132812 358 c 0
 180.107421875 365.014648438 182.916992188 368 190 368 c 2
EndSplineSet
EndChar

StartChar: six
Encoding: 54 54 8
Width: 1229
VWidth: 1920
Flags: HMW
LayerCount: 2
Fore
SplineSet
640 860 m 260
 400 860 230 665 230 492 c 262
 230 432 l 261
 215 502 l 261
 215 666 373 890 640 890 c 260
 897 890 1039 731 1039 457 c 262
 1039 407 l 262
 1039 129 921 -35 629 -35 c 260
 292 -35 205 197 205 457 c 262
 205 843 l 262
 205 1223 303 1435 630 1435 c 260
 927 1435 1004 1265.83496094 1004 1082 c 262
 1004 1052 l 6
 1004 1045 1001 1042 994 1042 c 6
 984 1042 l 6
 977 1042 974 1045 974 1052 c 6
 974 1082 l 262
 974 1244.91113281 910 1405 630 1405 c 260
 323 1405 230 1198 230 838 c 262
 230 462 l 262
 230 202 322 -5 629 -5 c 260
 908 -5 1009 157 1009 417 c 262
 1009 457 l 262
 1009 710 880 860 640 860 c 260
EndSplineSet
EndChar

StartChar: seven
Encoding: 55 55 9
Width: 1015
VWidth: 1920
Flags: HMW
LayerCount: 2
Fore
SplineSet
1011 1390 m 2
 359 10 l 2
 355.9375 2.611328125 352.49609375 0 345 0 c 2
 315 0 l 6
 308 0 305.935546875 3.220703125 309 10 c 6
 975 1370 l 257
 85 1370 l 2
 78 1370 75 1373 75 1380 c 2
 75 1390 l 2
 75 1397 78 1400 85 1400 c 2
 1005 1400 l 2
 1012.37170154 1400 1014.2150889 1396.23060494 1011 1390 c 2
EndSplineSet
EndChar

StartChar: eight
Encoding: 56 56 10
Width: 1182
VWidth: 1920
Flags: HMW
LayerCount: 2
Fore
SplineSet
591 -5 m 256
 850.859375 -5 957 116.100585938 957 342 c 258
 957 397 l 258
 957 604.159179688 851.689453125 719.927734375 591 719.927734375 c 256
 330.310546875 719.927734375 225 604.159179688 225 397 c 258
 225 342 l 258
 225 116.100585938 331.140625 -5 591 -5 c 256
591 750 m 256
 841.428710938 750 907 857.231445312 907 1053 c 258
 907 1088 l 258
 907 1294.95996094 809.329101562 1405 591 1405 c 260
 372.670898438 1405 275 1294.95996094 275 1088 c 258
 275 1053 l 258
 275 857.231445312 340.571289062 750 591 750 c 256
622 740 m 257
 872.075195312 740 987 623.61328125 987 392 c 258
 987 347 l 258
 987 99.75 869.091288054 -35 591 -35 c 256
 312.908711946 -35 195 99.75 195 347 c 258
 195 392 l 258
 195 623.61328125 309.924804688 740 560 740 c 257
 562 730.282226562 l 257
 325.81640625 735.765625 245 837.047851562 245 1058 c 258
 245 1083 l 258
 245 1304.25878906 353.226324062 1435 591 1435 c 256
 828.773675938 1435 937 1304.25878906 937 1083 c 258
 937 1058 l 258
 937 837.047851562 856.18359375 735.765625 620 730.282226562 c 257
 622 740 l 257
EndSplineSet
EndChar

StartChar: nine
Encoding: 57 57 11
Width: 1169
VWidth: 1920
Flags: HMW
LayerCount: 2
Fore
SplineSet
559 540 m 260
 799 540 969 735 969 908 c 262
 969 968 l 261
 984 898 l 261
 984 734 826 510 559 510 c 260
 302 510 160 669 160 943 c 262
 160 993 l 262
 160 1271 278 1435 570 1435 c 260
 907 1435 994 1203 994 943 c 262
 994 557 l 262
 994 177 896 -35 569 -35 c 260
 272 -35 195 134.165039062 195 318 c 262
 195 348 l 6
 195 355 198 358 205 358 c 6
 215 358 l 6
 222 358 225 355 225 348 c 6
 225 318 l 262
 225 155.088867188 289 -5 569 -5 c 260
 876 -5 969 202 969 562 c 262
 969 938 l 262
 969 1198 877 1405 570 1405 c 260
 291 1405 190 1243 190 983 c 262
 190 943 l 262
 190 690 319 540 559 540 c 260
EndSplineSet
EndChar

StartChar: A
Encoding: 65 65 12
Width: 1166
VWidth: 1920
Flags: HW
AnchorPoint: "ogonek" 1170 0 basechar 0
AnchorPoint: "bottom" 625 0 basechar 0
AnchorPoint: "top" 624 1400 basechar 0
LayerCount: 2
Back
SplineSet
310 570 m 261
 940 570 l 261
 940 420 l 261
 310 420 l 261
 310 570 l 261
624 1226 m 261
 223 10 l 262
 221 4 217 0 210 0 c 262
 50 0 l 262
 43 0 41 4 43 10 c 262
 522 1390 l 262
 524 1396 528 1400 535 1400 c 262
 735 1400 l 262
 742 1400 746 1396 748 1390 c 262
 1237 10 l 262
 1239 4 1237 0 1230 0 c 262
 1050 0 l 262
 1043 0 1039 3 1037 10 c 262
 624 1226 l 261
EndSplineSet
Fore
SplineSet
263.7734375 510 m 261
 875.7734375 510 l 261
 875.7734375 480 l 261
 263.7734375 480 l 261
 263.7734375 510 l 261
569.7734375 1355 m 261
 122.473632812 10 l 262
 120.673828125 4 117.073242188 0 110.7734375 0 c 262
 90.7734375 0 l 262
 83.7734375 0 81.7734375 4 83.7734375 10 c 262
 553.573242188 1390 l 262
 555.373046875 1396 558.973632812 1400 565.2734375 1400 c 262
 574.2734375 1400 l 262
 580.573242188 1400 584.173828125 1396 585.973632812 1390 c 262
 1064.7734375 10 l 262
 1066.7734375 4 1064.7734375 0 1057.7734375 0 c 262
 1037.7734375 0 l 262
 1031.47363281 0 1027.87304688 3 1026.07324219 10 c 262
 569.7734375 1355 l 261
EndSplineSet
EndChar

StartChar: B
Encoding: 66 66 13
Width: 1185
VWidth: 1920
Flags: HW
AnchorPoint: "top" 624 1400 basechar 0
AnchorPoint: "bottom" 625 0 basechar 0
LayerCount: 2
Fore
SplineSet
273 730 m 257
 624 730 l 258
 828.208984375 730 939 853 939 1043 c 258
 939 1068 l 258
 939 1288 837.293945312 1370 624 1370 c 258
 273 1370 l 257
 273 730 l 257
642 720 m 257
 873.299804688 720 1018.79980469 622 1018.79980469 372 c 258
 1018.79980469 347 l 258
 1018.79980469 67 873.295898438 0 642 0 c 258
 253 0 l 258
 246 0 243 3 243 10 c 258
 243 1390 l 258
 243 1397 246 1400 253 1400 c 258
 624 1400 l 258
 855.21484375 1400 974 1313 974 1063 c 258
 974 1048 l 258
 974 828 855.299804688 710 624 710 c 257
 642 720 l 257
642 700 m 262
 273 700 l 257
 273 30 l 257
 642 30 l 258
 855.208984375 30 985.799804688 92 985.799804688 342 c 258
 985.799804688 377 l 258
 985.799804688 597 855.299804688 700 642 700 c 262
EndSplineSet
EndChar

StartChar: C
Encoding: 67 67 14
Width: 1288
VWidth: 1920
Flags: HW
AnchorPoint: "top" 704 1400 basechar 0
AnchorPoint: "bottom" 685 -25 basechar 0
LayerCount: 2
Back
SplineSet
150 618 m 262
 150 783 l 262
 150 1168.79492188 333.346679688 1435 715 1435 c 260
 1096.65332031 1435 1280 1168.79492188 1280 783 c 262
 1280 618 l 262
 1280 231.891601562 1096.37792969 -35 715 -35 c 260
 333.622070312 -35 150 231.891601562 150 618 c 262
180 618 m 262
 180 249.787109375 351.172851562 -5 715 -5 c 260
 1078.82714844 -5 1250 249.787109375 1250 618 c 262
 1250 783 l 262
 1250 1150.875 1079.05175781 1405 715 1405 c 260
 350.948242188 1405 180 1150.875 180 783 c 262
 180 618 l 262
EndSplineSet
Fore
SplineSet
1125 498 m 256
 1122 408 1094 317 1048 236 c 0
 960.41015625 81.7666015625 810.299804688 -35 628.5 -35 c 256
 280.200195312 -35 135 238 135 618 c 258
 135 783 l 258
 135 1163 280.200195312 1435 628.5 1435 c 256
 836.400390625 1435 981 1339 1050 1188 c 0
 1079 1125 1094 1052 1095 973 c 256
 1095 964 1092 963 1085 963 c 258
 1076 963 l 258
 1069 963 1065.06738281 964 1065 973 c 256
 1063 1239 897 1405 637.5 1405 c 256
 298.200195312 1405 165 1143 165 783 c 258
 165 618 l 258
 165 258 298.200195312 -5 637.5 -5 c 256
 850.799804688 -5 1078 215 1095 498 c 256
 1095.54296875 507.0390625 1098 508 1105 508 c 258
 1115 508 l 258
 1122 508 1125 507 1125 498 c 256
EndSplineSet
EndChar

StartChar: D
Encoding: 68 68 15
Width: 1273
VWidth: 1920
Flags: HW
AnchorPoint: "top" 654 1400 basechar 0
AnchorPoint: "bottom" 625 0 basechar 0
LayerCount: 2
Fore
SplineSet
637.5 0 m 262
 235 0 l 262
 228 0 225 3 225 10 c 262
 225 1390 l 262
 225 1397 228 1400 235 1400 c 262
 637.5 1400 l 262
 920.098632812 1400 1086 1158.79492188 1086 783 c 262
 1086 618 l 262
 1086 241.891601562 956.279296875 -0 637.5 0 c 262
637.5 30 m 262
 929.451171875 30 1056 249.787109375 1056 618 c 262
 1056 783 l 262
 1056 1140.875 902.103515625 1370 637.5 1370 c 262
 255 1370 l 261
 255 30 l 261
 637.5 30 l 262
EndSplineSet
EndChar

StartChar: E
Encoding: 69 69 16
Width: 1204
VWidth: 1920
Flags: HW
AnchorPoint: "ogonek" 1100 0 basechar 0
AnchorPoint: "top" 684 1400 basechar 0
AnchorPoint: "bottom" 685 0 basechar 0
LayerCount: 2
Fore
SplineSet
255 730 m 261
 813 730 l 262
 819.299804688 730 822 727 822 720 c 262
 822 710 l 262
 822 703 819.299804688 700 813 700 c 262
 255 700 l 261
 255 30 l 261
 1079 30 l 262
 1086 30 1089 27 1089 20 c 262
 1089 10 l 262
 1089 3 1086 -0 1079 0 c 262
 235 0 l 262
 228 0 225 3 225 10 c 262
 225 1390 l 262
 225 1397 228 1400 235 1400 c 262
 1059 1400 l 262
 1066 1400 1069 1397 1069 1390 c 262
 1069 1380 l 262
 1069 1373 1065.99902344 1370 1059 1370 c 262
 255 1370 l 261
 255 730 l 261
EndSplineSet
EndChar

StartChar: F
Encoding: 70 70 17
Width: 1105
VWidth: 1920
Flags: HW
AnchorPoint: "top" 644 1400 basechar 0
AnchorPoint: "bottom" 645 0 basechar 0
LayerCount: 2
Fore
SplineSet
255 730 m 261
 732 730 l 262
 739.666992188 730 741 728.595703125 741 720 c 262
 741 710 l 262
 741 701.479492188 739.736328125 700 732 700 c 262
 255 700 l 261
 255 10 l 258
 255 1.4794921875 253.595703125 0 245 0 c 258
 235 0 l 258
 226.479492188 0 225 1.404296875 225 10 c 258
 225 1390 l 258
 225 1397 228 1400 235 1400 c 258
 1016 1400 l 258
 1023 1400 1026 1397 1026 1390 c 258
 1026 1380 l 258
 1026 1373 1022.99902344 1370.09472656 1016 1370 c 258
 255 1370 l 257
 255 730 l 261
EndSplineSet
EndChar

StartChar: G
Encoding: 71 71 18
Width: 1266
VWidth: 1920
Flags: HW
AnchorPoint: "top" 694 1400 basechar 0
AnchorPoint: "bottom" 695 0 basechar 0
LayerCount: 2
Back
SplineSet
60 618 m 262
 60 783 l 262
 60 1168.79492188 243.346679688 1435 625 1435 c 260
 1006.65332031 1435 1190 1168.79492188 1190 783 c 262
 1190 618 l 262
 1190 231.891601562 1006.37792969 -35 625 -35 c 260
 243.622070312 -35 60 231.891601562 60 618 c 262
90 618 m 262
 90 249.787109375 261.172851562 -5 625 -5 c 260
 988.827148438 -5 1160 249.787109375 1160 618 c 262
 1160 783 l 262
 1160 1150.875 989.051757812 1405 625 1405 c 260
 260.948242188 1405 90 1150.875 90 783 c 262
 90 618 l 262
EndSplineSet
Fore
SplineSet
678 635 m 2
 678 645 l 2
 678 652 680.700195312 655 687 655 c 2
 1075.20019531 655 l 2
 1082.20019531 655 1085.20019531 652 1085.20019531 645 c 2
 1085.20019531 10 l 2
 1085.20019531 3 1082.20019531 0 1075.20019531 0 c 2
 1074.20019531 0 l 2
 1067.20019531 0 1063.28515625 2.9892578125 1063.20019531 10 c 6
 1056 590 l 1
 1075.20019531 620 l 1
 1056 230 904.799804688 -35 610.5 -35 c 0
 271.200195312 -35 135 238 135 618 c 2
 135 783 l 2
 135 1163 280.200195312 1435 628.5 1435 c 0
 820.200195312 1435 942.599609375 1336 1010.09960938 1214 c 0
 1052.40039062 1137 1074.20019531 1050 1075.20019531 973 c 0
 1075.20019531 964 1072.20019531 963 1065.20019531 963 c 2
 1056 963 l 2
 1049.70019531 963 1047.30761719 964.006835938 1047 973 c 0
 1038.90039062 1210 886.799804688 1405 637.5 1405 c 0
 298.200195312 1405 165 1133 165 783 c 2
 165 618 l 2
 165 248 298.200195312 -5 619.5 -5 c 0
 813.900390625 -5 1029.90039062 152 1052.40039062 645 c 1
 1063.20019531 625 l 1
 687 625 l 2
 680.700195312 625 678 628 678 635 c 2
EndSplineSet
EndChar

StartChar: H
Encoding: 72 72 19
Width: 1271
VWidth: 1920
Flags: HW
AnchorPoint: "top" 654 1400 basechar 0
AnchorPoint: "bottom" 655 0 basechar 0
LayerCount: 2
Fore
SplineSet
1021 1400 m 6
 1031 1400 l 6
 1038 1400 1041 1397 1041 1390 c 6
 1041 10 l 6
 1041 3 1038 0 1031 0 c 6
 1021 0 l 6
 1014 0 1011 3 1011 10 c 6
 1011 700 l 261
 237 700 l 261
 237 10 l 6
 237 3 234 0 227 0 c 6
 217 0 l 6
 210 0 207 3 207 10 c 6
 207 1390 l 6
 207 1397 210 1400 217 1400 c 14
 227 1400 l 22
 234 1400 237 1397 237 1390 c 14
 237 730 l 261
 1011 730 l 261
 1011 1390 l 6
 1011 1397 1014 1400 1021 1400 c 6
EndSplineSet
EndChar

StartChar: I
Encoding: 73 73 20
Width: 524
VWidth: 1920
Flags: HW
AnchorPoint: "ogonek" 280 0 basechar 0
AnchorPoint: "top" 279 1400 basechar 0
AnchorPoint: "bottom" 280 0 basechar 0
LayerCount: 2
Fore
SplineSet
244 1400 m 14
 254 1400 l 22
 261 1400 264 1397 264 1390 c 14
 264 10 l 22
 264 3 261 0 254 0 c 14
 244 0 l 22
 237 0 234 3 234 10 c 14
 234 1390 l 22
 234 1397 237 1400 244 1400 c 14
EndSplineSet
EndChar

StartChar: J
Encoding: 74 74 21
Width: 1137
VWidth: 1920
Flags: HW
AnchorPoint: "top" 909 1400 basechar 0
AnchorPoint: "bottom" 510 0 basechar 0
LayerCount: 2
Fore
SplineSet
882.700195312 1400 m 2
 902.700195312 1400 l 2
 909.700195312 1400 912.700195312 1397 912.700195312 1390 c 2
 912.700195312 538 l 258
 912.700195312 152.475585938 823.349609375 -35 498.275390625 -35 c 256
 202.270507812 -35 92.7001953125 154.524414062 92.7001953125 478 c 258
 92.7001953125 653 l 2
 92.7001953125 660 95.7001953125 663 102.700195312 663 c 2
 117.700195312 663 l 2
 124.700195312 663 127.700195312 660 127.700195312 653 c 2
 127.700195312 478 l 262
 127.700195312 166.828125 231.744140625 -5 495.51171875 -5 c 260
 800.286132812 -5 872.700195312 188.626953125 872.700195312 508 c 258
 872.700195312 1390 l 2
 872.700195312 1397 875.700195312 1400 882.700195312 1400 c 2
EndSplineSet
EndChar

StartChar: K
Encoding: 75 75 22
Width: 1179
VWidth: 1920
Flags: HW
AnchorPoint: "top" 624 1400 basechar 0
AnchorPoint: "bottom" 625 0 basechar 0
LayerCount: 2
Fore
SplineSet
217 1400 m 10
 227 1400 l 18
 234 1400 237 1397 237 1390 c 10
 237 10 l 18
 237 3 234 0 227 0 c 10
 217 0 l 18
 210 0 207 3 207 10 c 10
 207 1390 l 18
 207 1397 210 1400 217 1400 c 10
502.5 830 m 261
 524.099609375 849 l 257
 1078.29980469 10 l 258
 1084.1796875 1.5283203125 1082.29980469 0 1075.29980469 0 c 2
 1056 0 l 2
 1049.70019531 0 1045.63671875 1.9658203125 1040.70019531 10 c 258
 502.5 830 l 261
1044.29980469 1390 m 258
 1049.2109375 1394.54296875 1053.29980469 1400 1062.29980469 1400 c 2
 1069.29980469 1400 l 2
 1082.29980469 1400 1082.45019531 1397.07617188 1075.29980469 1390 c 258
 531.299804688 831.133789062 l 1
 522.299804688 821.133789062 l 1
 217 520 l 257
 217 550 l 257
 1044.29980469 1390 l 258
EndSplineSet
EndChar

StartChar: L
Encoding: 76 76 23
Width: 1010
VWidth: 1920
Flags: HW
AnchorPoint: "top" 264 1400 basechar 0
AnchorPoint: "bottom" 625 0 basechar 0
LayerCount: 2
Fore
SplineSet
217 1400 m 2
 227 1400 l 2
 234 1400 237 1397 237 1390 c 2
 237 30 l 285
 917 30 l 6
 924 30 927 27 927 20 c 6
 927 10 l 2
 927 3 924 -0 917 0 c 2
 217 0 l 2
 210 0 207 3 207 10 c 2
 207 1390 l 2
 207 1397 210 1400 217 1400 c 2
EndSplineSet
EndChar

StartChar: M
Encoding: 77 77 24
Width: 1470
VWidth: 1920
Flags: HW
AnchorPoint: "top" 804 1400 basechar 0
AnchorPoint: "bottom" 805 0 basechar 0
LayerCount: 2
Back
SplineSet
300 1220.40816327 m 257
 300 10 l 2
 300 3 297 -8.57252759403e-16 290 0 c 2
 210 0 l 2
 203 0 200 3 200 10 c 2
 200 1390 l 2
 200 1397 203 1400 210 1400 c 2
 400 1400 l 2
 407 1400 411.177230792 1397.4462705 414 1390 c 2
 820 319 l 257
 1216 1390 l 2
 1218.63775859 1397.133938 1222.5034393 1400 1230 1400 c 2
 1440 1400 l 2
 1447 1400 1450 1397 1450 1390 c 2
 1450 10 l 2
 1450 3 1447 -8.57252759403e-16 1440 0 c 2
 1290 0 l 2
 1283 0 1280 3 1280 10 c 2
 1280 1167.34693878 l 257
 844 10 l 2
 841.317827864 2.88026671703 837.496560701 -9.18063906666e-16 830 0 c 2
 770 0 l 2
 762.571276925 0 758.682227552 2.88028481556 756 10 c 2
 300 1220.40816327 l 257
EndSplineSet
Fore
SplineSet
228 1340.40820312 m 261
 228 10 l 6
 228 3 225 0 218 0 c 6
 208 0 l 6
 201 0 198 3 198 10 c 6
 198 1390 l 6
 198 1397 201 1400 208 1400 c 6
 228 1400 l 6
 234.299804688 1400 238.05859375 1397.44628906 240.599609375 1390 c 6
 742 39 l 261
 1196.40039062 1390 l 6
 1198.7734375 1397.13378906 1202.25390625 1400 1209 1400 c 6
 1229 1400 l 6
 1236 1400 1239 1397 1239 1390 c 6
 1241 10 l 6
 1241 3 1238 0 1231 0 c 6
 1221 0 l 6
 1214 0 1211 3 1211 10 c 6
 1209 1340.34667969 l 261
 764.599609375 10 l 6
 762.186523438 2.8798828125 758.747070312 -0 752 0 c 6
 732 0 l 6
 725.314453125 0 721.814453125 2.8798828125 719.400390625 10 c 6
 228 1340.40820312 l 261
EndSplineSet
EndChar

StartChar: N
Encoding: 78 78 25
Width: 1271
VWidth: 1920
Flags: HW
AnchorPoint: "top" 694 1400 basechar 0
AnchorPoint: "bottom" 685 0 basechar 0
LayerCount: 2
Fore
SplineSet
1021 1400 m 6
 1031 1400 l 6
 1038 1400 1041 1397 1041 1390 c 6
 1041 10 l 6
 1041 3 1038 0 1031 0 c 6
 1011 0 l 6
 1004.70019531 0 1000.67578125 2.0498046875 995.700195312 10 c 6
 227 1379.43457031 l 5
 237 1379.43457031 l 261
 237 10 l 6
 237 3 234 0 227 0 c 6
 217 0 l 6
 210 0 207 3 207 10 c 6
 207 1390 l 6
 207 1397 210 1400 217 1400 c 6
 237 1400 l 6
 244.200195312 1400 247.110351562 1398.1640625 252.299804688 1390 c 6
 1021 30.87890625 l 5
 1011 30.87890625 l 261
 1011 1390 l 6
 1011 1397 1014 1400 1021 1400 c 6
EndSplineSet
EndChar

StartChar: O
Encoding: 79 79 26
Width: 1365
VWidth: 1920
Flags: HW
AnchorPoint: "top" 744 1400 basechar 0
AnchorPoint: "bottom" 745 0 basechar 0
LayerCount: 2
Fore
SplineSet
162 618 m 262
 162 783 l 262
 162 1168.79492188 330.01171875 1435 673.5 1435 c 260
 1016.98828125 1435 1185 1168.79492188 1185 783 c 262
 1185 618 l 262
 1185 231.891601562 1016.74023438 -35 673.5 -35 c 260
 330.259765625 -35 162 231.891601562 162 618 c 262
192 618 m 262
 192 249.787109375 346.055664062 -5 673.5 -5 c 260
 1000.94433594 -5 1155 249.787109375 1155 618 c 262
 1155 783 l 262
 1155 1150.875 1001.14648438 1405 673.5 1405 c 260
 345.853515625 1405 192 1150.875 192 783 c 262
 192 618 l 262
EndSplineSet
EndChar

StartChar: P
Encoding: 80 80 27
Width: 1183
VWidth: 1920
Flags: HW
AnchorPoint: "top" 624 1400 basechar 0
AnchorPoint: "bottom" 275 0 basechar 0
LayerCount: 2
Fore
SplineSet
255 1370 m 261
 255 685 l 261
 633 685 l 262
 873.299804688 685 961.5 738 961.5 988 c 262
 961.5 1052 l 262
 961.5 1302 873.299804688 1370 633 1370 c 262
 255 1370 l 261
633 1400 m 262
 891.19140625 1400 991.5 1322 991.5 1052 c 262
 991.5 988 l 262
 991.5 718 891.299804688 655 633 655 c 262
 255 655 l 261
 255 10 l 6
 255 3 252 0 245 0 c 6
 235 0 l 6
 228 0 225 3 225 10 c 6
 225 1390 l 6
 225 1397 228 1400 235 1400 c 6
 633 1400 l 262
EndSplineSet
EndChar

StartChar: Q
Encoding: 81 81 28
Width: 1487
VWidth: 1920
Flags: HW
AnchorPoint: "top" 744 1400 basechar 0
AnchorPoint: "bottom" 745 0 basechar 0
LayerCount: 2
Back
SplineSet
180 618 m 262
 180 783 l 262
 180 1168.79492188 363.346845401 1435 745 1435 c 260
 1126.6531546 1435 1310 1168.79492188 1310 783 c 262
 1310 618 l 262
 1310 231.891601562 1126.3782917 -35 745 -35 c 260
 363.621708298 -35 180 231.891601562 180 618 c 262
210 618 m 262
 210 249.787109375 381.172851562 -5 745 -5 c 260
 1108.82714844 -5 1280 249.787109375 1280 618 c 262
 1280 783 l 262
 1280 1150.875 1109.05175781 1405 745 1405 c 260
 380.948242188 1405 210 1150.875 210 783 c 262
 210 618 l 262
EndSplineSet
Fore
SplineSet
1401 20 m 2
 1401 10 l 2
 1401 2.8271484375 1401 -0.1728515625 1389.53417969 -3 c 0
 1179.84667969 -54.705078125 1146 132.793945312 1146 398 c 257
 1169 588 l 261
 1169 238 1039.79980469 -35 655.5 -35 c 256
 298.200195312 -35 171 268 171 618 c 258
 171 783 l 258
 171 1133 289.200195312 1435 673.5 1435 c 256
 1057.79980469 1435 1176 1143 1176 793 c 258
 1176 328 l 258
 1176 84.23828125 1247.64648438 -15.0166015625 1389 30.3037109375 c 0
 1400.44238281 33.97265625 1401 26.6884765625 1401 20 c 2
1146 558 m 258
 1146 793 l 258
 1146 1103 1030.79980469 1405 673.5 1405 c 256
 316.200195312 1405 201 1113 201 783 c 258
 201 618 l 258
 201 288 316.200195312 -5 673.5 -5 c 256
 1003.79980469 -5 1146 258 1146 558 c 258
EndSplineSet
EndChar

StartChar: R
Encoding: 82 82 29
Width: 1275
VWidth: 1920
Flags: HW
AnchorPoint: "top" 674 1400 basechar 0
AnchorPoint: "bottom" 675 0 basechar 0
LayerCount: 2
Fore
SplineSet
255 1370 m 261
 255 725 l 261
 687 725 l 262
 855.299804688 725 1007.70019531 818 1007.70019531 1008 c 262
 1007.70019531 1042 l 262
 1007.70019531 1252 900.299804688 1370 687 1370 c 262
 255 1370 l 261
687 1400 m 262
 909.296875 1400 1037.70019531 1272 1037.70019531 1042 c 262
 1037.70019531 1018 l 262
 1037.70019531 808 900.299804688 710 687 710 c 261
 687 720 l 261
 918.299804688 720 1027.70019531 662 1027.70019531 422 c 262
 1027.70019531 328 l 262
 1027.70019531 214.202148438 1056.02734375 92.181640625 1098.5703125 24 c 4
 1106.20019531 12.6650390625 1106.20019531 8.6650390625 1106.20019531 6 c 6
 1106.20019531 5 l 6
 1106.20019531 1 1103.20019531 0 1096.20019531 0 c 6
 1086.20019531 0 l 6
 1079.74609375 0 1077.04589844 0 1072.5 9 c 4
 1021.82324219 108.147460938 995.700195312 200.670898438 995.700195312 328 c 262
 995.700195312 422 l 262
 995.700195312 662 882.299804688 705 687 705 c 262
 255 705 l 261
 255 10 l 6
 255 3 252 0 245 0 c 6
 235 0 l 6
 228 0 225 3 225 10 c 6
 225 1390 l 6
 225 1397 228 1400 235 1400 c 6
 687 1400 l 262
EndSplineSet
EndChar

StartChar: S
Encoding: 83 83 30
Width: 1173
VWidth: 1920
Flags: HW
AnchorPoint: "top" 624 1400 basechar 0
AnchorPoint: "bottom" 625 -25 basechar 0
LayerCount: 2
Back
SplineSet
110 508 m 6
 260 508 l 6
 262.7734375 508 270 507 270 500 c 4
 270 467.995291462 270.890625 457.995117188 271.017578125 436 c 4
 272.18359375 234.81640625 411.219947625 115 650 115 c 260
 878 115 1010 187 1010 378 c 260
 1010 494.667017502 903.306624187 560.5822968 628 614 c 260
 326 673 140 785 140 1033 c 260
 140 1273 313 1435 630 1435 c 260
 954 1435 1130 1256 1130 1041 c 6
 1130 971 l 6
 1130 964 1125.14491835 963 1120 963 c 6
 970 963 l 6
 964.855081719 963 960.167284073 964.00199914 960 971 c 4
 959.450195312 994 959 1003.96108237 959 1031 c 4
 959 1166 825 1295 630 1295 c 260
 453 1295 320 1203 320 1053 c 260
 320 902 479 826 648 792 c 260
 1046.71920486 712.256159029 1200 605.625976562 1200 388 c 260
 1200 131 1019 -35 650 -35 c 260
 291.512695312 -35 101 152.553710938 101 389 c 6
 101 499 l 6
 101 506 107.296875 508 110 508 c 6
EndSplineSet
Fore
SplineSet
144.900390625 508 m 2
 154.900390625 508 l 2
 157.673828125 508 164.900390625 507 164.900390625 500 c 0
 164.900390625 467.995117188 165.826171875 457.995117188 165.91796875 436 c 0
 166.966796875 154.81640625 292.099609375 -5 588.001953125 -5 c 256
 865.202148438 -5 1005.6015625 107 1005.6015625 338 c 256
 1005.6015625 584.442382812 777.415039062 617.91015625 609.61328125 677.719726562 c 0
 400.475585938 753.830078125 174.900390625 827.963867188 174.900390625 1073 c 256
 174.900390625 1293 325.099609375 1435 574.400390625 1435 c 256
 866 1435 982.400390625 1256 982.400390625 1041 c 2
 982.400390625 971 l 2
 982.400390625 964 977.544921875 963 972.400390625 963 c 2
 962.400390625 963 l 2
 957.255859375 963 952.567382812 964.001953125 952.400390625 971 c 0
 951.905273438 994 951.5 1003.9609375 951.5 1031 c 0
 951.5 1256 839.900390625 1405 574.400390625 1405 c 256
 343.099609375 1405 209.900390625 1283 209.900390625 1073 c 256
 209.900390625 843.385742188 434.509765625 771.454101562 625.404296875 707.12890625 c 0
 830.530273438 636.526367188 1041.6015625 587.080078125 1041.6015625 338 c 256
 1041.6015625 91 893.1015625 -35 588.001953125 -35 c 256
 265.36328125 -35 135.900390625 152.553710938 135.900390625 389 c 2
 135.900390625 499 l 2
 135.900390625 506 142.197265625 508 144.900390625 508 c 2
EndSplineSet
EndChar

StartChar: T
Encoding: 84 84 31
Width: 1108
VWidth: 1920
Flags: HW
AnchorPoint: "top" 584 1400 basechar 0
AnchorPoint: "bottom" 585 0 basechar 0
LayerCount: 2
Fore
SplineSet
46 1400 m 6
 1058 1400 l 6
 1065 1400 1068 1397 1068 1390 c 6
 1068 1380 l 6
 1068 1373 1065 1370 1058 1370 c 6
 567 1370 l 261
 567 10 l 6
 567 3 564 0 557 0 c 6
 547 0 l 6
 540 0 537 3 537 10 c 6
 537 1370 l 261
 46 1370 l 6
 39 1370 36 1373 36 1380 c 6
 36 1390 l 6
 36 1397 39 1400 46 1400 c 6
EndSplineSet
EndChar

StartChar: U
Encoding: 85 85 32
Width: 1281
VWidth: 1920
Flags: HW
AnchorPoint: "ogonek" 799.931 0 basechar 0
AnchorPoint: "top" 703.931 1400 basechar 0
AnchorPoint: "bottom" 704.931 0 basechar 0
LayerCount: 2
Fore
SplineSet
1024.4375 488 m 258
 1024.4375 1390 l 2
 1024.4375 1397 1027.4375 1400 1034.4375 1400 c 2
 1044.4375 1400 l 2
 1051.4375 1400 1054.4375 1397 1054.4375 1390 c 2
 1054.4375 498 l 258
 1054.4375 178.043945312 990.237304688 -35 632.9375 -35 c 256
 284.637695312 -35 229.4375 178.009765625 229.4375 558 c 258
 229.4375 1390 l 2
 229.4375 1397 232.4375 1400 239.4375 1400 c 2
 249.4375 1400 l 2
 256.4375 1400 259.4375 1397 259.4375 1390 c 2
 259.4375 548 l 258
 259.4375 228.067382812 293.637695312 -5 632.9375 -5 c 256
 963.237304688 -5 1024.4375 188.01171875 1024.4375 488 c 258
EndSplineSet
EndChar

StartChar: V
Encoding: 86 86 33
Width: 1168
VWidth: 1920
Flags: HW
AnchorPoint: "top" 654 1400 basechar 0
AnchorPoint: "bottom" 655 0 basechar 0
LayerCount: 2
Fore
SplineSet
593.173828125 45 m 257
 1040.47363281 1390 l 258
 1042.2734375 1396 1045.87304688 1400 1052.17382812 1400 c 258
 1072.17382812 1400 l 258
 1079.17382812 1400 1081.17382812 1396 1079.17382812 1390 c 258
 609.373046875 10 l 258
 607.573242188 4 603.973632812 0 597.673828125 0 c 258
 588.673828125 0 l 258
 582.373046875 0 578.7734375 4 576.973632812 10 c 258
 98.173828125 1390 l 258
 96.173828125 1396 98.173828125 1400 105.173828125 1400 c 258
 125.173828125 1400 l 258
 131.473632812 1400 135.073242188 1397 136.873046875 1390 c 258
 593.173828125 45 l 257
EndSplineSet
EndChar

StartChar: W
Encoding: 87 87 34
Width: 1647
VWidth: 1920
Flags: HW
AnchorPoint: "top" 924 1400 basechar 0
AnchorPoint: "bottom" 925 0 basechar 0
LayerCount: 2
Fore
SplineSet
497.193359375 60.13671875 m 257
 818.561523438 1390 l 2
 820.224609375 1396.47167969 823.9609375 1400 830.26171875 1400 c 2
 850.26171875 1400 l 2
 856.561523438 1400 860.369140625 1396.51953125 861.9609375 1390 c 2
 1225.96972656 43.888671875 l 257
 1513.56152344 1390 l 2
 1515.00097656 1396.61328125 1518.9609375 1400 1525.26171875 1400 c 2
 1535.26171875 1400 l 2
 1542.26171875 1400 1544.00878906 1396.53320312 1542.26171875 1390 c 2
 1246.26171875 10 l 2
 1244.38183594 2.9677734375 1240.29003906 0 1233.26171875 0 c 2
 1213.26171875 0 l 2
 1206.9921875 0 1203.31542969 2.71875 1201.56152344 10 c 2
 839.563476562 1363.9921875 l 261
 513.9609375 10 l 2
 512.229492188 2.9794921875 508.586914062 0 502.26171875 0 c 2
 487.26171875 0 l 2
 480.26171875 0 476.2109375 2.5068359375 474.26171875 10 c 2
 115.26171875 1390 l 2
 113.555664062 1396.55664062 115.26171875 1400 122.26171875 1400 c 2
 137.26171875 1400 l 2
 143.561523438 1400 147.514648438 1396.609375 148.9609375 1390 c 2
 497.193359375 60.13671875 l 257
EndSplineSet
EndChar

StartChar: X
Encoding: 88 88 35
Width: 1168
VWidth: 1920
Flags: HW
AnchorPoint: "top" 634 1400 basechar 0
AnchorPoint: "bottom" 635 0 basechar 0
LayerCount: 2
Back
SplineSet
1015 1400 m 6
 1190 1400 l 6
 1197 1400 1198.16200739 1397.60507064 1193 1390 c 6
 741.688476562 725.092773438 l 261
 1223 10 l 6
 1228.27359795 2.16492520656 1227 -8.57252759403e-16 1220 0 c 6
 1020 0 l 6
 1013 0 1008.96690011 2.33091089742 1004 10 c 6
 639.657226562 572.559570312 l 261
 252 10 l 6
 246.33036293 1.77234841629 242 -8.57252759403e-16 235 0 c 6
 60 0 l 6
 53 0 51.38877111 2.02309118095 57 10 c 6
 548.865234375 709.234375 l 261
 87 1390 l 6
 81.6907607699 1397.82554584 83 1400 90 1400 c 6
 290 1400 l 6
 298 1400 302.013283514 1397.65968239 307 1390 c 6
 650.897460938 861.767578125 l 261
 998 1390 l 6
 1003.32356812 1398.10158661 1008 1400 1015 1400 c 6
EndSplineSet
Fore
SplineSet
1009.13867188 1400 m 2
 1024.13867188 1400 l 2
 1031.13867188 1400 1032.30078125 1397.60546875 1027.13867188 1390 c 2
 605.658203125 715.092773438 l 261
 1051.13867188 10 l 2
 1056.41210938 2.1650390625 1055.13867188 0 1048.13867188 0 c 2
 1028.13867188 0 l 2
 1021.83886719 0 1018.20898438 2.3310546875 1013.73828125 10 c 2
 585.030273438 695.559570312 l 257
 138.938476562 10 l 2
 133.8359375 1.7724609375 129.938476562 0 123.638671875 0 c 2
 108.638671875 0 l 2
 101.638671875 0 100.02734375 2.0234375 105.638671875 10 c 2
 568.916992188 717.234375 l 257
 135.638671875 1390 l 2
 130.329101562 1397.82519531 131.638671875 1400 138.638671875 1400 c 2
 158.638671875 1400 l 2
 165.838867188 1400 169.451171875 1397.66015625 173.938476562 1390 c 2
 587.846679688 736.767578125 l 257
 993.838867188 1390 l 2
 998.629882812 1398.1015625 1002.83886719 1400 1009.13867188 1400 c 2
EndSplineSet
EndChar

StartChar: Y
Encoding: 89 89 36
Width: 1164
VWidth: 1920
Flags: HW
AnchorPoint: "top" 644 1400 basechar 0
AnchorPoint: "bottom" 645 0 basechar 0
LayerCount: 2
Fore
SplineSet
1050.66210938 1400 m 2
 1065.66210938 1400 l 2
 1072.66210938 1400 1073.94433594 1397.20898438 1069.66210938 1390 c 2
 591.662109375 550 l 257
 591.662109375 10 l 2
 591.662109375 3 588.961914062 0 582.662109375 0 c 2
 573.662109375 0 l 2
 567.362304688 0 564.662109375 3 564.662109375 10 c 2
 564.662109375 550 l 257
 77.662109375 1390 l 2
 73.0234375 1397.80859375 74.662109375 1400 81.662109375 1400 c 2
 96.662109375 1400 l 2
 103.014648438 1400 107.122070312 1397.36914062 111.061523438 1390 c 2
 580.862304688 579.901367188 l 261
 1036.26171875 1390 l 2
 1040.20214844 1397.36914062 1044.26367188 1400 1050.66210938 1400 c 2
EndSplineSet
EndChar

StartChar: Z
Encoding: 90 90 37
Width: 1103
VWidth: 1920
Flags: HW
AnchorPoint: "top" 614 1400 basechar 0
AnchorPoint: "bottom" 615 0 basechar 0
LayerCount: 2
Fore
SplineSet
24.6396484375 10 m 2
 983.4375 1370 l 261
 117.639648438 1370 l 2
 110.639648438 1370 107.639648438 1373 107.639648438 1380 c 2
 107.639648438 1390 l 2
 107.639648438 1397 110.639648438 1400 117.639648438 1400 c 2
 1037.36621094 1400 l 2
 1044.36621094 1400 1045.87304688 1397.76757812 1040.36621094 1390 c 2
 81.568359375 30 l 257
 1027.36621094 30 l 2
 1034.36621094 30 1037.36621094 27 1037.36621094 20 c 2
 1037.36621094 10 l 2
 1037.36621094 3 1034.36621094 -0 1027.36621094 0 c 2
 27.6396484375 0 l 2
 20.6396484375 0 18.99609375 2.0390625 24.6396484375 10 c 2
EndSplineSet
EndChar

StartChar: a
Encoding: 97 97 38
Width: 1061
VWidth: 1920
Flags: HW
AnchorPoint: "ogonek" 910 0 basechar 0
AnchorPoint: "top" 564 1050 basechar 0
AnchorPoint: "bottom" 525 0 basechar 0
LayerCount: 2
Fore
SplineSet
156 263 m 4
 156 59.396484375 268.181640625 -5 411 -5 c 260
 639.599609375 -5 793.204101562 232 793.204101562 398 c 261
 808.204101562 378 l 261
 808.204101562 175 633.299804688 -35 407.400390625 -35 c 260
 232.736328125 -35 126 55.109375 126 260 c 4
 126 431.0078125 234.559570312 555.212890625 509.099609375 595 c 260
 677.799804688 620.150390625 793.204101562 675 793.204101562 758 c 261
 813.204101562 738 l 261
 813.204101562 655 671.456054688 595.359375 515.400390625 570 c 260
 252.513671875 528.370117188 156 413.081054688 156 263 c 4
793.204101562 208 m 262
 793.204101562 778 l 262
 793.204101562 938 727.204101562 1060 525.299804688 1060 c 260
 314.25390625 1060 212.323242188 948.200195312 193.135742188 742 c 4
 192.579101562 736.01953125 189.86328125 733 183 733 c 6
 174 733 l 6
 166.93359375 733 164.211914062 735.963867188 164.853515625 742 c 4
 188.529296875 964.799804688 298.381835938 1085 526.200195312 1085 c 260
 742.204101562 1085 823.204101562 951 823.204101562 773 c 262
 823.204101562 208 l 262
 823.204101562 113.612304688 844.676757812 48.6728515625 880.622070312 7 c 4
 884.883789062 2.05859375 883.814453125 0 877.204101562 0 c 6
 863.204101562 0 l 6
 855.887695312 0 850.950195312 2.0537109375 847.541015625 6 c 4
 810.6015625 48.76171875 793.204101562 112.8359375 793.204101562 208 c 262
EndSplineSet
EndChar

StartChar: b
Encoding: 98 98 39
Width: 1047
VWidth: 1920
Flags: HW
LayerCount: 2
Fore
SplineSet
190 1450 m 2
 200 1450 l 2
 207 1450 210 1447 210 1440 c 2
 210 375 l 261
 202 -25 l 2
 201.689453125 -32.7705078125 201 -35 194 -35 c 2
 190 -35 l 2
 183 -35 180 -32 180 -25 c 2
 180 1440 l 2
 180 1447 183 1450 190 1450 c 2
200 633 m 257
 200 903 360.299804688 1085 537.599609375 1085 c 256
 723.900390625 1085 888 943 888 603 c 258
 888 447 l 258
 888 127 732.900390625 -35 546.599609375 -35 c 256
 342.299804688 -35 200 157 200 417 c 257
 210 437 l 257
 210 227 333.299804688 -5 546.599609375 -5 c 256
 714.900390625 -5 858 147 858 447 c 258
 858 603 l 258
 858 923 705.900390625 1055 537.599609375 1055 c 256
 342.299804688 1055 210 823 210 613 c 257
 200 633 l 257
EndSplineSet
EndChar

StartChar: c
Encoding: 99 99 40
Width: 939
VWidth: 1920
Flags: HW
AnchorPoint: "bottom" 530 -25 basechar 0
AnchorPoint: "top" 524 1050 basechar 0
LayerCount: 2
Fore
SplineSet
849.999023438 380 m 0
 844.099609375 256.452148438 806.861328125 142.12890625 729.787109375 65.0537109375 c 0
 668.268554688 3.53515625 584.041015625 -35 479.5 -35 c 256
 254.5 -35 112.5 171 112.5 468 c 258
 112.5 583 l 258
 112.5 880 250 1085 475.000976562 1085 c 256
 575.578125 1085 652.004882812 1046.51757812 709.28125 989.2421875 c 0
 797.668945312 900.854492188 830.553710938 768.302734375 839.999023438 671 c 0
 840.481445312 666.0234375 836.999023438 663 829.999023438 663 c 2
 821.999023438 663 l 2
 814.999023438 663 812.357421875 666.015625 811.999023438 670 c 0
 803.341796875 766.03515625 769.849609375 891.418945312 689.239257812 972.029296875 c 0
 636.913085938 1024.35546875 565.397460938 1060 475 1060 c 256
 264.400390625 1060 137.5 853 137.5 583 c 258
 137.5 468 l 258
 137.5 195 270.700195312 -8.9990234375 479.5 -8.9990234375 c 256
 573.208007812 -8.9990234375 650.762695312 26.2841796875 706.624023438 82.1455078125 c 0
 777.334960938 152.856445312 817.400390625 262.103515625 823 381 c 0
 823.1875 384.995117188 825.999023438 388 832.999023438 388 c 2
 839.999023438 388 l 2
 847 388 850.237304688 384.994140625 849.999023438 380 c 0
EndSplineSet
EndChar

StartChar: d
Encoding: 100 100 41
Width: 1040
VWidth: 1920
Flags: HW
LayerCount: 2
Back
SplineSet
896 1450 m 2
 886 1450 l 2
 879 1450 876 1447 876 1440 c 2
 876 175 l 257
 884 -25 l 2
 884.310546875 -32.7705078125 885 -35 892 -35 c 2
 896 -35 l 2
 903 -35 906 -32 906 -25 c 2
 906 1440 l 2
 906 1447 903 1450 896 1450 c 2
886 633 m 257
 886 903 709 1085 512 1085 c 256
 305 1085 126 943 126 603 c 258
 126 447 l 258
 126 127 295 -35 502 -35 c 256
 729 -35 886 157 886 417 c 257
 876 437 l 257
 876 227 739 -5 502 -5 c 256
 315 -5 156 147 156 447 c 258
 156 603 l 258
 156 923 325 1055 512 1055 c 256
 729 1055 876 823 876 613 c 257
 886 633 l 257
EndSplineSet
Fore
SplineSet
800.5 417 m 261
 800.5 167 638.400390625 -35 461.099609375 -35 c 256
 274.799804688 -35 112.5 107 112.5 447 c 258
 112.5 603 l 258
 112.5 943 274.799804688 1085 461.099609375 1085 c 260
 638.400390625 1085 800.5 883 800.5 633 c 261
 790.5 613 l 257
 790.5 823 638.400390625 1060 461.099609375 1060 c 260
 292.799804688 1060 142.5 923 142.5 603 c 258
 142.5 447 l 262
 142.5 127 292.799804688 -10 461.099609375 -10 c 260
 647.400390625 -10 790.5 227 790.5 437 c 257
 800.5 417 l 261
820.5 1440 m 2
 820.5 10 l 2
 820.5 3 820.5 0 813.5 0 c 2
 802.5 0 l 2
 795.5 0 795.5 3 795.5 10 c 2
 795.5 370 l 257
 790.5 402 l 257
 790.5 1440 l 2
 790.5 1447 793.5 1450 800.5 1450 c 2
 810.5 1450 l 2
 817.5 1450 820.5 1447 820.5 1440 c 2
EndSplineSet
EndChar

StartChar: e
Encoding: 101 101 42
Width: 1023
VWidth: 1920
Flags: HW
AnchorPoint: "ogonek" 770 60 basechar 0
AnchorPoint: "bottom" 564 0 basechar 0
AnchorPoint: "top" 565 1050 basechar 0
LayerCount: 2
Fore
SplineSet
873.5 329 m 4
 856.51953125 236.475585938 829.572265625 154.295898438 781.5 89.634765625 c 4
 726.185546875 15.234375 641.311523438 -35 508.799804688 -35 c 260
 302.700195312 -35 167.400390625 138 167.400390625 448 c 262
 167.400390625 603 l 262
 167.400390625 903 311.700195312 1085 516 1085 c 260
 747.299804688 1085 841.799804688 889 865.5 674 c 260
 873.5 603 873.5 618 873.5 534 c 4
 873.5 529 870.5 526 863.5 526 c 6
 181.400390625 526 l 261
 181.400390625 555 l 261
 844.5 555 l 261
 840 892 716.700195312 1060 516 1060 c 260
 320.700195312 1060 197.400390625 873 197.400390625 603 c 262
 197.400390625 448 l 262
 197.400390625 178 312.599609375 -10 507.900390625 -10 c 260
 734.700195312 -10 817.5 154 846.5 332 c 4
 847.229492188 336.05859375 850.5 338 857.5 338 c 6
 865.5 338 l 6
 872.5 338 874.59765625 334.982421875 873.5 329 c 4
EndSplineSet
EndChar

StartChar: f
Encoding: 102 102 43
Width: 617
VWidth: 1920
Flags: HW
LayerCount: 2
Fore
SplineSet
574 1025 m 2
 64 1025 l 2
 57 1025 54 1028 54 1035 c 2
 54 1040 l 2
 54 1047 57 1050 64 1050 c 2
 574 1050 l 2
 581 1050 584 1047 584 1040 c 2
 584 1035 l 2
 584 1028 581 1025 574 1025 c 2
244 1188 m 262
 244 1395.14550781 284.911132812 1468.85058594 572 1441.16601562 c 4
 581.02734375 1440.29492188 584 1437.046875 584 1430 c 6
 584 1425 l 6
 584 1418.15625 581.034179688 1415.43554688 568 1416.88964844 c 4
 304.801757812 1446.24707031 279 1383.49511719 279 1188 c 262
 279 10 l 6
 279 3 276 0 269 0 c 6
 254 0 l 6
 247 0 244 3 244 10 c 6
 244 1188 l 262
EndSplineSet
EndChar

StartChar: g
Encoding: 103 103 44
Width: 929
VWidth: 1920
Flags: HW
AnchorPoint: "top" 415 1100 basechar 0
LayerCount: 2
Fore
SplineSet
793.599609375 1250 m 0
 779.599609375 1058 679.700195312 1010 635.599609375 1010 c 257
 608.599609375 1020 l 257
 661.700195312 1020 752.599609375 1061 763.599609375 1251 c 0
 763.951171875 1257.07226562 767.599609375 1260 774.599609375 1260 c 2
 784.599609375 1260 l 2
 791.599609375 1260 794.599609375 1257 793.599609375 1250 c 0
  Spiro
    855.5 1250 o
    816.411 1102.55 o
    748.911 1029.51 o
    686.5 1010 v
    656.5 1020 v
    724.021 1037.63 o
    789.963 1106.77 o
    825.5 1251 o
    826.95 1256.03 o
    830.62 1259.02 o
    836.5 1260 [
    846.5 1260 ]
    852.162 1258.97 o
    855.168 1255.7 o
    0 0 z
  EndSpiro
399.799804688 80 m 258
 606.799804688 80 844.599609375 -18 844.599609375 -185 c 256
 844.599609375 -322 651.799804688 -395 444.799804688 -395 c 258
 422.299804688 -395 l 258
 251.299804688 -395 76.5 -340 76.5 -153 c 256
 76.5 -36 197.299804688 66 368.299804688 66 c 257
 381.799804688 50 l 257
 210.799804688 50 106.5 -48 106.5 -155 c 256
 106.5 -312 260.299804688 -365 422.299804688 -365 c 258
 444.799804688 -365 l 258
 633.799804688 -365 806.599609375 -302 806.599609375 -185 c 256
 806.599609375 -28 588.799804688 50 390.799804688 50 c 258
 377.299804688 50 l 258
 233.299804688 50 147.5 138 147.5 235 c 256
 147.5 362 271.099609375 405 433.099609375 405 c 257
 415.099609375 395 l 257
 289.099609375 385 177.5 344 177.5 237 c 256
 177.5 135 260.299804688 80 377.299804688 80 c 258
 399.799804688 80 l 258
734.599609375 723 m 258
 734.599609375 738 l 258
 734.599609375 905 624.799804688 1055 452 1055 c 256
 273.799804688 1055 166.5 898 166.5 738 c 258
 166.5 723 l 258
 166.5 563 273.799804688 415 452 415 c 256
 624.799804688 415 734.599609375 555 734.599609375 723 c 258
  Spiro
    796.5 723 [
    796.5 738 ]
    757.835 894.266 o
    649.101 1010.01 o
    482.5 1055 o
    312.715 1008.46 o
    204.352 891.155 o
    166.5 738 [
    166.5 723 ]
    204.352 572.174 o
    312.715 459.213 o
    482.5 415 o
    649.101 457.438 o
    757.835 568.618 o
    0 0 z
  EndSpiro
764.599609375 723 m 258
 764.599609375 553 655.400390625 385 451.099609375 385 c 256
 246.799804688 385 136.5 553 136.5 723 c 258
 136.5 738 l 258
 136.5 908 246.799804688 1085 451.099609375 1085 c 256
 655.400390625 1085 764.599609375 908 764.599609375 738 c 258
 764.599609375 723 l 258
  Spiro
    826.5 723 ]
    787.578 559.965 o
    671.68 434.758 o
    481.5 385 o
    291.32 434.758 o
    175.422 559.965 o
    136.5 723 [
    136.5 738 ]
    175.422 903.364 o
    291.32 1032.91 o
    481.5 1085 o
    671.68 1032.91 o
    787.578 903.364 o
    826.5 738 [
    0 0 z
  EndSpiro
EndSplineSet
EndChar

StartChar: h
Encoding: 104 104 45
Width: 1025
VWidth: 1920
Flags: HW
AnchorPoint: "bottom" 554 0 basechar 0
AnchorPoint: "top" 200 1450 basechar 0
LayerCount: 2
Fore
SplineSet
194.5 1450 m 2
 204.5 1450 l 2
 211.5 1450 214.5 1447 214.5 1440 c 2
 214.5 10 l 2
 214.5 3 211.095703125 0 204.5 0 c 2
 194.5 0 l 2
 187.5 0 184.5 3 184.5 10 c 2
 184.5 1440 l 2
 184.5 1447 187.5 1450 194.5 1450 c 2
194.5 623 m 257
 194.5 843 338.700195312 1085 543 1085 c 256
 729.299804688 1085 820.5 963 820.5 763 c 258
 820.5 10 l 2
 820.5 3 817.5 0 810.5 0 c 2
 800.5 0 l 2
 793.5 0 790.5 3 790.5 10 c 2
 790.5 763 l 258
 790.5 943 711.299804688 1060 543 1060 c 256
 365.700195312 1060 214.5 833 214.5 623 c 257
 194.5 623 l 257
EndSplineSet
EndChar

StartChar: i
Encoding: 105 105 46
Width: 424
VWidth: 1920
Flags: HW
AnchorPoint: "bottom" 224 0 basechar 0
AnchorPoint: "ogonek" 224 0 basechar 0
LayerCount: 2
Fore
SplineSet
217.200195312 1400 m 2
 217.200195312 1220 l 2
 217.200195312 1213 214.200195312 1210 207.200195312 1210 c 2
 197.200195312 1210 l 2
 190.200195312 1210 187.200195312 1213 187.200195312 1220 c 2
 187.200195312 1400 l 2
 187.200195312 1407 190.200195312 1410 197.200195312 1410 c 2
 207.200195312 1410 l 2
 214.200195312 1410 217.200195312 1407 217.200195312 1400 c 2
217.200195312 1040 m 6
 217.200195312 10 l 6
 217.200195312 3 214.200195312 0 207.200195312 0 c 6
 197.200195312 0 l 6
 190.200195312 0 187.200195312 3 187.200195312 10 c 6
 187.200195312 1040 l 6
 187.200195312 1047 190.200195312 1050 197.200195312 1050 c 6
 207.200195312 1050 l 6
 214.200195312 1050 217.200195312 1047 217.200195312 1040 c 6
EndSplineSet
EndChar

StartChar: j
Encoding: 106 106 47
Width: 424
VWidth: 1920
Flags: HW
LayerCount: 2
Back
SplineSet
238 1400 m 6
 238 1220 l 6
 238 1213 235 1210 228 1210 c 6
 218 1210 l 6
 211 1210 208 1213 208 1220 c 6
 208 1400 l 6
 208 1407 211 1410 218 1410 c 6
 228 1410 l 6
 235 1410 238 1407 238 1400 c 6
238 1040 m 6
 238 10 l 6
 238 3 235 0 228 0 c 6
 218 0 l 6
 211 0 208 3 208 10 c 6
 208 1040 l 6
 208 1047 211 1050 218 1050 c 6
 228 1050 l 6
 235 1050 238 1047 238 1040 c 6
EndSplineSet
Fore
SplineSet
248.200195312 1400 m 2
 248.200195312 1220 l 2
 248.200195312 1213 245.200195312 1210 238.200195312 1210 c 2
 228.200195312 1210 l 2
 221.200195312 1210 218.200195312 1213 218.200195312 1220 c 2
 218.200195312 1400 l 2
 218.200195312 1407 221.200195312 1410 228.200195312 1410 c 2
 238.200195312 1410 l 2
 245.200195312 1410 248.200195312 1407 248.200195312 1400 c 2
248.200195312 -86 m 262
 248.200195312 -293.388671875 207.124023438 -378.211914062 -80.7998046875 -351.072265625 c 4
 -88.8310546875 -350.314453125 -91.7998046875 -347.040039062 -91.7998046875 -340 c 6
 -91.7998046875 -330 l 6
 -91.7998046875 -323.059570312 -88.85546875 -320.470703125 -81.7998046875 -321.215820312 c 4
 170.28125 -347.853515625 218.200195312 -285.208007812 218.200195312 -88 c 262
 218.200195312 1040 l 6
 218.200195312 1047 221.200195312 1050 228.200195312 1050 c 6
 238.200195312 1050 l 6
 245.200195312 1050 248.200195312 1047 248.200195312 1040 c 6
 248.200195312 -86 l 262
EndSplineSet
EndChar

StartChar: k
Encoding: 107 107 48
Width: 925
VWidth: 1920
Flags: HW
LayerCount: 2
Fore
SplineSet
190 1450 m 6
 200 1450 l 6
 207 1450 210 1447 210 1440 c 6
 210 10 l 6
 210 3 206.595703125 0 200 0 c 6
 190 0 l 6
 183 0 180 3 180 10 c 6
 180 1440 l 6
 180 1447 183 1450 190 1450 c 6
180 473 m 261
 750.900390625 1040 l 6
 757.833007812 1048.21582031 760.788085938 1050 768 1050 c 6
 786 1050 l 6
 792.299804688 1050 793.13671875 1048.3515625 785.099609375 1040 c 6
 200 463 l 261
 180 473 l 261
435 703 m 261
 453 723 l 261
 845.5 10 l 6
 850.205078125 2.55078125 848.5 0 841.5 0 c 6
 826.5 0 l 6
 819.247070312 0 815.975585938 2.5966796875 812.099609375 10 c 6
 435 703 l 261
EndSplineSet
EndChar

StartChar: l
Encoding: 108 108 49
Width: 424
VWidth: 1920
Flags: HW
LayerCount: 2
Fore
SplineSet
197.200195312 1450 m 2
 207.200195312 1450 l 2
 214.200195312 1450 217.200195312 1447 217.200195312 1440 c 2
 217.200195312 10 l 2
 217.200195312 3 213.795898438 0 207.200195312 0 c 2
 197.200195312 0 l 2
 190.200195312 0 187.200195312 3 187.200195312 10 c 2
 187.200195312 1440 l 2
 187.200195312 1447 190.200195312 1450 197.200195312 1450 c 2
  Spiro
    197.2 1450 [
    207.2 1450 ]
    212.899 1448.97 o
    216.165 1445.7 o
    217.2 1440 [
    217.2 10 ]
    216.075 4.30074 o
    212.72 1.03493 o
    207.2 0 [
    197.2 0 ]
    191.501 1.03493 o
    188.235 4.30074 o
    187.2 10 [
    187.2 1440 ]
    188.235 1445.7 o
    191.501 1448.97 o
    0 0 z
  EndSpiro
EndSplineSet
EndChar

StartChar: m
Encoding: 109 109 50
Width: 1527
VWidth: 1920
Flags: HW
LayerCount: 2
Fore
SplineSet
748 623 m 257
 748 963 901 1085 1069 1085 c 256
 1237 1085 1320 963 1320 763 c 258
 1320 10 l 2
 1320 3 1317 0 1310 0 c 2
 1300 0 l 2
 1293 0 1290 3 1290 10 c 2
 1290 763 l 258
 1290 953 1219 1060 1069 1060 c 256
 910 1060 768 923 768 623 c 257
 748 623 l 257
196 1050 m 6
 197 1050 l 2
 204 1050 207 1047 207 1040 c 2
 207 722 l 257
 216 695 l 257
 216 10 l 2
 216 3 213 0 207 0 c 2
 197 0 l 2
 190 0 187 3 187 10 c 2
 187 1040 l 2
 187 1047 190 1050 196 1050 c 6
197 643 m 257
 197 933 349 1085 517 1085 c 256
 685 1085 768 963 768 763 c 258
 768 10 l 2
 768 3 765 0 758 0 c 2
 748 0 l 2
 741 0 738 3 738 10 c 2
 738 763 l 258
 738 943 667 1060 517 1060 c 256
 358 1060 216 903 216 623 c 257
 197 643 l 257
EndSplineSet
EndChar

StartChar: n
Encoding: 110 110 51
Width: 1025
VWidth: 1920
Flags: HW
AnchorPoint: "bottom" 554 0 basechar 0
AnchorPoint: "top" 555 1050 basechar 0
LayerCount: 2
Fore
SplineSet
193.5 1050 m 6
 200.5 1050 l 6
 207.5 1050 209.5 1047 209.5 1040 c 6
 209.5 667 l 261
 214.5 640 l 261
 214.5 10 l 6
 214.5 3 211.5 0 204.5 0 c 6
 194.5 0 l 6
 187.5 0 184.5 3 184.5 10 c 6
 184.5 1040 l 6
 184.5 1047 186.5 1050 193.5 1050 c 6
194.5 623 m 261
 194.5 843 338.700195312 1085 543 1085 c 260
 729.299804688 1085 820.5 963 820.5 763 c 262
 820.5 10 l 6
 820.5 3 817.5 0 810.5 0 c 6
 800.5 0 l 6
 793.5 0 790.5 3 790.5 10 c 6
 790.5 763 l 262
 790.5 943 711.299804688 1060 543 1060 c 260
 365.700195312 1060 214.5 833 214.5 623 c 261
 194.5 623 l 261
EndSplineSet
EndChar

StartChar: o
Encoding: 111 111 52
Width: 1017
VWidth: 1920
Flags: HW
AnchorPoint: "top" 555 1050 basechar 0
AnchorPoint: "bottom" 554 0 basechar 0
LayerCount: 2
Fore
SplineSet
117 468 m 262
 117 583 l 262
 117 873 234.700195312 1085 502 1085 c 260
 769.299804688 1085 887 873 887 583 c 262
 887 468 l 262
 887 178 769.299804688 -35 502 -35 c 260
 234.700195312 -35 117 178 117 468 c 262
  Spiro
    117 468 [
    117 583 ]
    161.095 841.814 o
    300.004 1019.42 o
    542 1085 o
    783.996 1019.42 o
    922.905 841.814 o
    967 583 [
    967 468 ]
    922.905 208.927 o
    783.996 30.8361 o
    542 -35 o
    300.004 30.8361 o
    161.095 208.927 o
    0 0 z
  EndSpiro
142 468 m 262
 142 198 252.700195312 -10 502 -10 c 260
 751.299804688 -10 862 198 862 468 c 262
 862 583 l 262
 862 853 751.299804688 1060 502 1060 c 260
 252.700195312 1060 142 853 142 583 c 262
 142 468 l 262
  Spiro
    142 468 ]
    186.282 224.287 o
    319.807 53.8035 o
    542 -10 o
    764.193 53.8035 o
    897.718 224.287 o
    942 468 [
    942 583 ]
    897.718 826.455 o
    764.193 996.455 o
    542 1060 o
    319.807 996.455 o
    186.282 826.455 o
    142 583 [
    0 0 z
  EndSpiro
EndSplineSet
EndChar

StartChar: p
Encoding: 112 112 53
Width: 1049
VWidth: 1920
Flags: HW
LayerCount: 2
Fore
SplineSet
216.200195312 633 m 261
 216.200195312 883 378.299804688 1085 555.599609375 1085 c 260
 741.900390625 1085 904.200195312 943 904.200195312 603 c 262
 904.200195312 447 l 262
 904.200195312 107 741.900390625 -35 555.599609375 -35 c 260
 378.299804688 -35 216.200195312 167 216.200195312 417 c 261
 226.200195312 437 l 261
 226.200195312 227 378.299804688 -10 555.599609375 -10 c 260
 723.900390625 -10 874.200195312 127 874.200195312 447 c 262
 874.200195312 603 l 262
 874.200195312 923 723.900390625 1060 555.599609375 1060 c 260
 369.299804688 1060 226.200195312 823 226.200195312 613 c 261
 216.200195312 633 l 261
196.200195312 -350 m 6
 196.200195312 1040 l 6
 196.200195312 1047 196.200195312 1050 203.200195312 1050 c 6
 214.200195312 1050 l 6
 221.200195312 1050 221.200195312 1047 221.200195312 1040 c 6
 221.200195312 680 l 261
 226.200195312 648 l 261
 226.200195312 -350 l 6
 226.200195312 -357 223.200195312 -360 216.200195312 -360 c 6
 206.200195312 -360 l 6
 199.200195312 -360 196.200195312 -357 196.200195312 -350 c 6
EndSplineSet
EndChar

StartChar: q
Encoding: 113 113 54
Width: 1042
VWidth: 1920
Flags: HW
LayerCount: 2
Fore
SplineSet
828.5 -360 m 2
 818.5 -360 l 2
 811.5 -360 808.5 -357 808.5 -350 c 2
 808.5 675 l 261
 816.5 1075 l 2
 816.810546875 1082.77050781 817.5 1085 824.5 1085 c 2
 828.5 1085 l 2
 835.5 1085 838.5 1082 838.5 1075 c 2
 838.5 -350 l 2
 838.5 -357 835.5 -360 828.5 -360 c 2
818.5 417 m 257
 818.5 147 658.200195312 -35 480.900390625 -35 c 256
 294.599609375 -35 130.5 107 130.5 447 c 258
 130.5 603 l 258
 130.5 923 285.599609375 1085 471.900390625 1085 c 256
 676.200195312 1085 818.5 893 818.5 633 c 257
 808.5 613 l 257
 808.5 823 685.200195312 1055 471.900390625 1055 c 256
 303.599609375 1055 160.5 903 160.5 603 c 258
 160.5 447 l 258
 160.5 127 312.599609375 -5 480.900390625 -5 c 256
 676.200195312 -5 808.5 227 808.5 437 c 257
 818.5 417 l 257
EndSplineSet
EndChar

StartChar: r
Encoding: 114 114 55
Width: 710
VWidth: 1920
Flags: HW
AnchorPoint: "top" 375 1050 basechar 0
AnchorPoint: "bottom" 224 0 basechar 0
LayerCount: 2
Fore
SplineSet
190 1050 m 10
 195 1050 l 2
 202 1050 205 1047 205 1040 c 2
 205 714 l 257
 210 705 l 257
 210 10 l 2
 210 3 207 0 200 0 c 2
 190 0 l 2
 183 0 180 3 180 10 c 2
 180 1040 l 2
 180 1047 183 1050 190 1050 c 10
190 663 m 261
 190 858.681640625 410.590820312 1087.69042969 631 1076.02832031 c 4
 642.01171875 1075.44628906 645 1072.26171875 645 1065 c 2
 645 1058 l 2
 645 1051.34570312 641.984375 1048.66308594 628 1049.64453125 c 0
 432.557617188 1063.36035156 210 846.54296875 210 663 c 257
 190 663 l 261
EndSplineSet
EndChar

StartChar: s
Encoding: 115 115 56
Width: 919
VWidth: 1920
Flags: HW
AnchorPoint: "top" 505 1050 basechar 0
AnchorPoint: "bottom" 514 -25 basechar 0
LayerCount: 2
Back
SplineSet
72 358 m 6
 212 358 l 6
 219 358 224 356 224 349 c 4
 224 300 224 280 235 248 c 4
 270 147 383 105 524 105 c 260
 669 105 762 169 762 282.475426448 c 260
 762 349.673456054 729.386877703 385.981452645 646 412 c 6
 376.000003649 496.245961527 l 6
 186.121541249 555.492235062 112 632.125301635 112 769.436468877 c 260
 112 968 267 1085 494 1085 c 260
 687 1085 827 1014 877 885 c 4
 889 855 897 814 897 742 c 4
 897 735 894 733 887 733 c 6
 748 733 l 6
 741 733 737 736 737 743 c 4
 737 791 737 811 721 843 c 4
 687 911 602 950 492 950 c 260
 364 950 282 895 282 797.249715776 c 260
 282 727.739034194 323.464925425 685.525763282 419 655 c 6
 694 567.130859375 l 6
 866.052074777 512.156066817 932 435.878144523 932 291.155205383 c 260
 932 70 778 -36 514 -36 c 260
 281 -36 128 35 80 198 c 4
 64 252 63 295 63 350 c 4
 63 357 65 358 72 358 c 6
EndSplineSet
Fore
SplineSet
128.700195312 358 m 2
 138.700195312 358 l 2
 145.700195312 358 150.700195312 356 150.700195312 349 c 0
 150.700195312 315.424804688 152.8515625 284.838867188 156.88671875 257 c 0
 187.434570312 46.265625 334.958007812 -7 465.700195312 -7 c 256
 650.200195312 -7 739.299804688 92 739.299804688 265.475585938 c 256
 739.299804688 580.116210938 184.900390625 504.826171875 184.900390625 816.436523438 c 256
 184.900390625 975 279.400390625 1085 456.700195312 1085 c 256
 615.169921875 1085 723.801757812 997.911132812 744.518554688 812 c 0
 747.15234375 790.177734375 748.299804688 766.848632812 748.299804688 742 c 0
 748.299804688 735 745.299804688 733 738.400390625 733 c 2
 732.099609375 733 l 2
 725.799804688 733 722.200195312 736 722.200195312 743 c 0
 722.200195312 766.458007812 721.274414062 788.454101562 719.096679688 809 c 0
 701.100585938 978.81640625 605.674804688 1060 454.900390625 1060 c 256
 285.700195312 1060 213.700195312 953 213.700195312 815.25 c 256
 213.700195312 526.719726562 773.299804688 607.100585938 773.299804688 264.155273438 c 256
 773.299804688 83 676.299804688 -36 465.700195312 -36 c 256
 329.115234375 -36 163.689453125 22.7353515625 127.240234375 252 c 0
 122.328125 281.719726562 119.700195312 314.305664062 119.700195312 350 c 0
 119.700195312 357 121.700195312 358 128.700195312 358 c 2
EndSplineSet
EndChar

StartChar: t
Encoding: 116 116 57
Width: 621
VWidth: 1920
Flags: HW
AnchorPoint: "bottom" 354 0 basechar 0
LayerCount: 2
Fore
SplineSet
567 1025 m 2
 37 1025 l 2
 30 1025 27 1028 27 1035 c 2
 27 1040 l 2
 27 1047 30 1050 37 1050 c 2
 567 1050 l 2
 574 1050 577 1047 577 1040 c 2
 577 1035 l 2
 577 1028 574 1025 567 1025 c 2
582 10 m 6
 582 8 l 2
 582 1 579 0 572 -1 c 0
 284 -38 247 44 247 252 c 258
 247 1290 l 2
 247 1297 250 1300 257 1300 c 2
 262 1300 l 2
 269 1300 272 1297 272 1290 c 2
 272 252 l 258
 272 55 303 -13 573 19 c 0
 578 20 582 16 582 10 c 6
EndSplineSet
EndChar

StartChar: u
Encoding: 117 117 58
Width: 1025
VWidth: 1920
Flags: HW
AnchorPoint: "ogonek" 890 0 basechar 0
AnchorPoint: "bottom" 554 0 basechar 0
AnchorPoint: "top" 555 1050 basechar 0
LayerCount: 2
Fore
SplineSet
809.700195312 0 m 6
 807.700195312 0 l 6
 800.700195312 0 798.700195312 3 798.700195312 10 c 6
 798.700195312 383 l 261
 788.700195312 410 l 261
 788.700195312 1040 l 6
 788.700195312 1047 791.700195312 1050 798.700195312 1050 c 6
 808.700195312 1050 l 6
 815.700195312 1050 818.700195312 1047 818.700195312 1040 c 6
 818.700195312 10 l 6
 818.700195312 3 816.700195312 0 809.700195312 0 c 6
808.700195312 427 m 261
 808.700195312 207 646.5 -35 451.200195312 -35 c 260
 264.900390625 -35 182.700195312 87 182.700195312 287 c 262
 182.700195312 1040 l 6
 182.700195312 1047 185.700195312 1050 192.700195312 1050 c 6
 202.700195312 1050 l 6
 209.700195312 1050 212.700195312 1047 212.700195312 1040 c 6
 212.700195312 287 l 262
 212.700195312 107 282.900390625 -10 451.200195312 -10 c 260
 628.5 -10 788.700195312 217 788.700195312 427 c 261
 808.700195312 427 l 261
EndSplineSet
EndChar

StartChar: v
Encoding: 118 118 59
Width: 958
VWidth: 1920
Flags: HW
LayerCount: 2
Fore
SplineSet
472.200195312 37 m 257
 826.065429688 1040 l 2
 828.065429688 1047 833.065429688 1050 840.065429688 1050 c 2
 850.065429688 1050 l 2
 857.065429688 1050 859.065429688 1047 856.065429688 1040 c 2
 489.799804688 10 l 2
 487.099609375 2 483.5 0 477.200195312 0 c 2
 463.200195312 0 l 2
 456.900390625 0 453.299804688 3 450.599609375 10 c 2
 91.890625 1040 l 2
 89.890625 1047 90.890625 1050 97.890625 1050 c 2
 107.890625 1050 l 6
 114.890625 1050 118.890625 1047 120.890625 1040 c 6
 472.200195312 37 l 257
EndSplineSet
EndChar

StartChar: w
Encoding: 119 119 60
Width: 1375
VWidth: 1920
Flags: HW
LayerCount: 2
Fore
SplineSet
945.776367188 58 m 257
 1228.77636719 1040 l 2
 1230.54101562 1047.05859375 1234.13085938 1050 1240.77636719 1050 c 2
 1250.77636719 1050 l 2
 1258.12207031 1050 1259.66113281 1046.60351562 1257.77636719 1040 c 2
 963.776367188 10 l 2
 961.853515625 3.263671875 957.8046875 0 950.776367188 0 c 2
 945.776367188 0 l 2
 939.5078125 0 935.983398438 2.3076171875 934.076171875 10 c 2
 693.776367188 1010 l 261
 439.9765625 10 l 2
 438.048828125 2.0380859375 434.602539062 0 428.276367188 0 c 2
 413.276367188 0 l 2
 406.310546875 0 402.538085938 2.0751953125 400.276367188 10 c 2
 106.276367188 1040 l 2
 104.203125 1047.26464844 106.276367188 1050 113.276367188 1050 c 2
 123.276367188 1050 l 2
 130.2421875 1050 134.504882812 1047.29785156 136.276367188 1040 c 2
 418.276367188 58 l 257
 677.576171875 1040 l 2
 679.36328125 1047.27636719 682.951171875 1050 689.276367188 1050 c 2
 702.776367188 1050 l 2
 709.045898438 1050 712.727539062 1047.28222656 714.4765625 1040 c 2
 945.776367188 58 l 257
EndSplineSet
EndChar

StartChar: x
Encoding: 120 120 61
Width: 916
VWidth: 1920
Flags: HW
LayerCount: 2
Fore
SplineSet
132.615234375 0 m 2
 117.615234375 0 l 2
 110.615234375 0 109.543945312 2.666015625 114.615234375 10 c 2
 439.515625 548 l 257
 129.615234375 1040 l 2
 124.236328125 1047.80566406 125.615234375 1050 132.615234375 1050 c 2
 146.115234375 1050 l 2
 152.46875 1050 156.109375 1047.70214844 160.515625 1040 c 2
 454.815429688 567 l 257
 739.215820312 1040 l 2
 743.455078125 1047.78027344 747.216796875 1050 753.615234375 1050 c 2
 767.115234375 1050 l 2
 773.916015625 1050 775.125 1047.38085938 769.916015625 1040 c 2
 466.515625 550 l 257
 784.916015625 10 l 2
 789.931640625 2.3779296875 788.916015625 0 781.916015625 0 c 2
 768.916015625 0 l 6
 761.663085938 0 758.938476562 2.306640625 754.515625 10 c 6
 452.115234375 527 l 257
 147.015625 10 l 2
 142.965820312 2.6923828125 139.013671875 0 132.615234375 0 c 2
EndSplineSet
EndChar

StartChar: y
Encoding: 121 121 62
Width: 959
VWidth: 1920
Flags: HW
AnchorPoint: "top" 505 1050 basechar 0
LayerCount: 2
Fore
SplineSet
465.900390625 28 m 257
 802.2890625 1040 l 2
 804.716796875 1046.84863281 808.260742188 1050 815.2890625 1050 c 2
 830.2890625 1050 l 2
 837.2890625 1050 838.735351562 1046.578125 836.2890625 1040 c 2
 454.200195312 -111 l 258
 359.764648438 -392.9921875 310.0546875 -399.63671875 114.900390625 -362.859375 c 0
 102.787109375 -360.576171875 99.900390625 -357.043945312 99.900390625 -350 c 2
 99.900390625 -335 l 6
 99.900390625 -328.088867188 102.447265625 -326.513671875 110.900390625 -328.418945312 c 4
 309.4375 -373.165039062 346.899414062 -374.548828125 448.799804688 -10 c 257
 107.900390625 1040 l 2
 105.609375 1046.62792969 106.900390625 1050 113.900390625 1050 c 2
 123.900390625 1050 l 2
 130.900390625 1050 134.8515625 1046.33789062 136.900390625 1040 c 2
 465.900390625 28 l 257
EndSplineSet
EndChar

StartChar: z
Encoding: 122 122 63
Width: 953
VWidth: 1920
Flags: HW
AnchorPoint: "top" 525 1050 basechar 0
LayerCount: 2
Fore
SplineSet
53.4482421875 10 m 2
 869.1640625 1020 l 5
 126.448242188 1020 l 2
 117.928710938 1020 116.448242188 1021.40429688 116.448242188 1030 c 2
 116.448242188 1040 l 2
 116.448242188 1048.52050781 117.852539062 1050 126.448242188 1050 c 2
 922.1640625 1050 l 2
 929.1640625 1050 930.713867188 1047.85253906 925.1640625 1040 c 2
 110.448242188 30 l 1
 902.1640625 30 l 2
 909.1640625 30 912.1640625 27 912.1640625 20 c 2
 912.1640625 10 l 2
 912.1640625 3.015625 909.1640625 -0 902.1640625 0 c 2
 56.4482421875 0 l 2
 49.4482421875 0 47.6142578125 1.7587890625 53.4482421875 10 c 2
EndSplineSet
EndChar

StartChar: comma
Encoding: 44 44 65
Width: 540
VWidth: 1920
Flags: HMW
LayerCount: 2
Fore
SplineSet
236 -210 m 6
 234 -210 l 6
 227 -210 226.474170262 -207.824767889 228 -200 c 6
 267 0 l 261
 260 0 l 6
 251.479492188 0 250 1.404296875 250 10 c 6
 250 200 l 6
 250 207 253 210 260 210 c 6
 280 210 l 6
 287 210 290 207 290 200 c 6
 290 20 l 6
 290 13 289.547851562 7.19921875 288 0 c 6
 246 -200 l 6
 244.195662121 -208.592085139 242 -210 236 -210 c 6
EndSplineSet
EndChar

StartChar: exclam
Encoding: 33 33 67
Width: 540
VWidth: 1920
Flags: HMW
LayerCount: 2
Fore
SplineSet
280 0 m 2
 260 0 l 2
 253 0 250 3 250 10 c 2
 250 200 l 2
 250 207 253 210 260 210 c 2
 280 210 l 2
 287 210 290 207 290 200 c 2
 290 10 l 2
 290 3 287 0 280 0 c 2
255 950 m 2
 255 1440 l 2
 255 1447 258 1450 265 1450 c 2
 275 1450 l 2
 282 1450 285 1447 285 1440 c 2
 285 950 l 2
 285 943 284.817382812 856.903320312 284 850 c 6
 281 440 l 6
 280.95770572 433.091934248 278 430 271 430 c 2
 269 430 l 2
 262 430 259.04229428 433.091934248 259 440 c 2
 256 850 l 2
 255.958007812 856.90234375 255 943 255 950 c 2
EndSplineSet
EndChar

StartChar: quotesingle
Encoding: 39 39 70
Width: 370
VWidth: 1920
Flags: HMW
LayerCount: 2
Fore
SplineSet
187 930 m 2
 184 930 l 2
 177 930 174.159179688 933.197265625 173 940 c 2
 171 1150 l 6
 170.649515651 1186.80085662 170 1203 170 1230 c 6
 170 1410 l 2
 170 1417 173 1420 180 1420 c 2
 190 1420 l 2
 197 1420 200 1417 200 1410 c 2
 200 1230 l 6
 200 1203 199.350484349 1186.80085662 199 1150 c 6
 197 940 l 2
 195.840820312 933.197265625 194 930 187 930 c 2
EndSplineSet
EndChar

StartChar: question
Encoding: 63 63 71
Width: 1080
VWidth: 1920
Flags: HMW
LayerCount: 2
Fore
SplineSet
590 0 m 6
 570 0 l 6
 563 0 560 3 560 10 c 6
 560 200 l 6
 560 207 563 210 570 210 c 6
 590 210 l 6
 597 210 600 207 600 200 c 6
 600 10 l 6
 600 3 597 0 590 0 c 6
575 400 m 6
 565 400 l 6
 557.912109375 400 553.415039062 402.895507812 553.740234375 409 c 4
 570.885742188 730.931640625 895 778.14453125 895 1063 c 262
 895 1098 l 262
 895 1328 786 1455 589 1455 c 260
 369 1455 255 1294.77148438 255 1052 c 262
 255 962 l 6
 255 955 252 952 245 952 c 6
 235 952 l 6
 228 952 225 955 225 962 c 6
 225 1052 l 262
 225 1316 342 1485 589 1485 c 260
 806 1485 925 1353 925 1103 c 262
 925 1078 l 262
 925 754.727539062 604.930664062 713.434570312 586.556640625 408 c 4
 586.241210938 402.751953125 581.930664062 400 575 400 c 6
EndSplineSet
EndChar

StartChar: parenleft
Encoding: 40 40 72
Width: 535
VWidth: 2048
Flags: HMW
LayerCount: 2
Fore
SplineSet
130 838 m 262
 130 1243 239.35546875 1561.42578125 489.315429688 1618 c 4
 497.096016091 1619.76100442 500 1617.13964844 500 1610 c 6
 500 1609 l 6
 500 1602.21679688 497.913751153 1597.33843883 490.721679688 1595 c 4
 272.015625 1523.88964844 165 1239 165 838 c 262
 165 412 l 262
 165 11 272.015625 -273.889648438 490.721679688 -345 c 4
 497.913751153 -347.338438829 500 -352.216796875 500 -359 c 6
 500 -360 l 6
 500 -367.140018812 497.095643431 -369.760859087 489.315695958 -368.000002259 c 4
 239.355800504 -311.425894256 130 7 130 412 c 262
 130 838 l 262
EndSplineSet
EndChar

StartChar: parenright
Encoding: 41 41 73
Width: 535
VWidth: 2048
Flags: HMW
LayerCount: 2
Fore
SplineSet
405 412 m 258
 405 7 295.64453125 -311.42578125 45.6845703125 -368 c 0
 37.904296875 -369.760742188 35 -367.139648438 35 -360 c 2
 35 -359 l 2
 35 -352.216796875 37.0859375 -347.338867188 44.2783203125 -345 c 0
 262.984375 -273.889648438 370 11 370 412 c 258
 370 838 l 258
 370 1239 262.984375 1523.88964844 44.2783203125 1595 c 0
 37.0859375 1597.33886719 35 1602.21679688 35 1609 c 2
 35 1610 l 2
 35 1617.13964844 37.904296875 1619.76074219 45.6845703125 1618 c 0
 295.64453125 1561.42578125 405 1243 405 838 c 258
 405 412 l 258
EndSplineSet
EndChar

StartChar: asterisk
Encoding: 42 42 74
Width: 914
VWidth: 2048
Flags: HMW
LayerCount: 2
Back
SplineSet
462 1020 m 261
 452 1020 l 261
 439 1370 l 6
 438.751281204 1376.69627527 438.733662078 1383.34155195 439 1390 c 6
 441 1440 l 6
 441.274315782 1446.85789456 445 1450 452 1450 c 6
 462 1450 l 6
 469 1450 472.725684218 1446.85789456 473 1440 c 6
 475 1390 l 6
 475.266312962 1383.34217596 475.248740322 1376.69685482 475 1370 c 6
 462 1020 l 261
EndSplineSet
Fore
SplineSet
452.955078125 1022.93847656 m 257
 461.044921875 1017.06152344 l 257
 265.837890625 726.263671875 l 2
 262.102539062 720.700195312 258.2109375 715.313476562 254.083007812 710.083007812 c 2
 223.07421875 670.807617188 l 2
 218.821289062 665.421875 213.959960938 665.068359375 208.296875 669.182617188 c 2
 200.208007812 675.061523438 l 2
 194.544921875 679.17578125 193.376953125 683.907226562 197.186523438 689.6171875 c 2
 224.95703125 731.244140625 l 2
 228.655273438 736.787109375 232.575195312 742.15234375 236.712890625 747.423828125 c 2
 452.955078125 1022.93847656 l 257
458.544921875 1015.24511719 m 257
 455.455078125 1024.75488281 l 257
 784.307617188 1145.27539062 l 2
 790.599609375 1147.58105469 796.9140625 1149.65136719 803.328125 1151.45605469 c 2
 851.5 1165.00390625 l 2
 858.106445312 1166.86230469 862.247070312 1164.29003906 864.41015625 1157.6328125 c 2
 867.499023438 1148.12207031 l 2
 869.662109375 1141.46484375 867.825195312 1136.95117188 861.387695312 1134.5703125 c 2
 814.453125 1117.21679688 l 2
 808.203125 1114.90625 801.87890625 1112.86914062 795.432617188 1111.03710938 c 2
 458.544921875 1015.24511719 l 257
458.544921875 1024.75488281 m 257
 455.455078125 1015.24511719 l 257
 118.567382812 1111.03710938 l 2
 112.122070312 1112.86914062 105.796875 1114.90625 99.546875 1117.21679688 c 2
 52.611328125 1134.5703125 l 2
 46.1748046875 1136.95019531 44.3369140625 1141.46484375 46.5 1148.12207031 c 2
 49.5908203125 1157.6328125 l 2
 51.75390625 1164.29003906 55.892578125 1166.86230469 62.5009765625 1165.00390625 c 2
 110.671875 1151.45507812 l 2
 117.0859375 1149.65136719 123.400390625 1147.58105469 129.692382812 1145.27539062 c 2
 458.544921875 1024.75488281 l 257
452.955078125 1017.06152344 m 257
 461.044921875 1022.93847656 l 257
 677.287109375 747.423828125 l 2
 681.424804688 742.153320312 685.344726562 736.787109375 689.04296875 731.244140625 c 2
 716.814453125 689.6171875 l 2
 720.623046875 683.908203125 719.456054688 679.17578125 713.79296875 675.061523438 c 2
 705.702148438 669.18359375 l 2
 700.0390625 665.069335938 695.178710938 665.421875 690.92578125 670.80859375 c 2
 659.91796875 710.083984375 l 2
 655.7890625 715.313476562 651.897460938 720.69921875 648.162109375 726.263671875 c 2
 452.955078125 1017.06152344 l 257
462 1020 m 257
 452 1020 l 257
 439 1370 l 2
 438.751281204 1376.69627527 438.733662078 1383.34155195 439 1390 c 2
 441 1440 l 2
 441.274315782 1446.85789456 445 1450 452 1450 c 2
 462 1450 l 2
 469 1450 472.725684218 1446.85789456 473 1440 c 2
 475 1390 l 2
 475.266312962 1383.34217596 475.248740322 1376.69685482 475 1370 c 2
 462 1020 l 257
EndSplineSet
EndChar

StartChar: at
Encoding: 64 64 75
Width: 1990
VWidth: 1920
Flags: HMW
LayerCount: 2
Fore
SplineSet
1275 492 m 261
 1275 202 1158 40 961 40 c 256
 794 40 645 157 645 497 c 258
 645 528 l 258
 645 848 784 985 951 985 c 256
 1158 985 1275 823 1275 533 c 257
 1255 533 l 257
 1255 783 1148 955 951 955 c 256
 804 955 675 833 675 523 c 258
 675 492 l 258
 675 182 814 70 961 70 c 256
 1148 70 1255 242 1255 492 c 257
 1275 492 l 261
1332.00000472 -254.827238957 m 0
 1264.32137181 -314.503652472 1144.91626673 -360 985 -360 c 256
 458 -360 180 13 180 493 c 258
 180 583 l 258
 180 1093 528 1435 1025 1435 c 256
 1592 1435 1810 1024 1810 633 c 258
 1810 543 l 258
 1810 183 1677 40 1490 40 c 256
 1283 40 1255 185 1255 405 c 258
 1255 595 l 257
 1258 975 l 2
 1258.0782487 980.216580176 1267 985 1274 985 c 2
 1275 985 l 2
 1282 985 1285 982 1285 975 c 2
 1285 405 l 258
 1285 211.000976562 1303 70 1490 70 c 256
 1707 70 1780 303 1780 543 c 258
 1780 633 l 258
 1780 1003 1572 1405 1025 1405 c 256
 538 1405 210 1043 210 593 c 258
 210 483 l 258
 210 43 458 -330 985 -330 c 256
 1147.12304688 -330 1246.64746094 -282.40234375 1319 -225.412109375 c 0
 1326.40429688 -219.580078125 1329.24121094 -220.775390625 1332 -228 c 2
 1336 -237 l 2
 1339.18500337 -244.166257578 1338.71353661 -248.907504943 1332.00000472 -254.827238957 c 0
EndSplineSet
EndChar

StartChar: dollar
Encoding: 36 36 76
Width: 1110
VWidth: 1920
Flags: HMW
LayerCount: 2
Fore
SplineSet
140 508 m 2
 155 508 l 2
 157.7734375 508 165 507 165 500 c 2
 165 430 l 2
 165 196.4140625 279.641601562 -5 560 -5 c 256
 828 -5 933 164 933 345 c 256
 933 491.666992188 842.067382812 614.551757812 538 684 c 256
 266.662108814 745.972906819 170 885 170 1063 c 256
 170 1293 303 1435 540 1435 c 256
 814 1435 920 1256 920 1041 c 2
 920 971 l 2
 920 964 915.14453125 963 910 963 c 2
 895 963 l 2
 889.85546875 963 885 964 885 971 c 2
 885 1031 l 2
 885 1236 785 1405 540 1405 c 256
 333 1405 208 1283 208 1063 c 256
 208 902 289.953125 773.565429688 548 715 c 260
 847.115234375 647.114257812 970 515.625976562 970 348 c 256
 970 151 869 -35 560 -35 c 256
 251.512695312 -35 131 182.553710938 131 419 c 2
 131 499 l 2
 131 506 137.296875 508 140 508 c 2
545 1590 m 2
 555 1590 l 2
 562 1590 565 1587 565 1580 c 2
 565 -180 l 2
 565 -187 562 -190 555 -190 c 2
 545 -190 l 2
 538 -190 535 -187 535 -180 c 2
 535 1580 l 2
 535 1587 538 1590 545 1590 c 2
EndSplineSet
EndChar

StartChar: numbersign
Encoding: 35 35 77
Width: 1300
VWidth: 1920
Flags: HMW
LayerCount: 2
Fore
SplineSet
80 460 m 2
 1140 460 l 2
 1147 460 1150 457 1150 450 c 2
 1150 440 l 2
 1150 433 1148 430 1140 430 c 2
 80 430 l 2
 73 430 70 433 70 440 c 2
 70 450 l 2
 70 457 73 460 80 460 c 2
160 1050 m 2
 1220 1050 l 2
 1227 1050 1230 1047 1230 1040 c 2
 1230 1030 l 2
 1230 1023 1227 1020 1220 1020 c 2
 160 1020 l 2
 153 1020 150 1023 150 1030 c 2
 150 1040 l 2
 150 1047 153 1050 160 1050 c 2
990 1400 m 6
 1000 1400 l 2
 1010 1400 1010 1397 1008 1390 c 2
 682 10 l 2
 680 3 680 0 670 0 c 2
 660 0 l 2
 650 0 650 3 652 10 c 2
 978 1390 l 6
 980 1397 980 1400 990 1400 c 6
610 1400 m 2
 620 1400 l 2
 627 1400 630 1397 628 1390 c 2
 302 10 l 2
 300 3 297 0 290 0 c 2
 280 0 l 2
 273 0 270 3 272 10 c 2
 598 1390 l 2
 600 1397 603 1400 610 1400 c 2
EndSplineSet
EndChar

StartChar: slash
Encoding: 47 47 78
Width: 840
VWidth: 2048
Flags: HMW
LayerCount: 2
Fore
SplineSet
746 1390 m 2
 99 -90 l 2
 95.4482421875 -98.51953125 92 -100 85 -100 c 2
 75 -100 l 6
 68 -100 65.4482421875 -98.51953125 69 -90 c 6
 716 1390 l 2
 719.551757812 1398.51953125 724 1400 730 1400 c 2
 740 1400 l 2
 747 1400 749.551757812 1398.51953125 746 1390 c 2
EndSplineSet
EndChar

StartChar: percent
Encoding: 37 37 79
Width: 1755
VWidth: 2048
Flags: HMW
LayerCount: 2
Fore
SplineSet
100 1083 m 262
 100 1118 l 262
 100 1308 258 1435 435 1435 c 260
 612 1435 780 1308 780 1118 c 262
 780 1083 l 262
 780 893 612 765 435 765 c 260
 258 765 100 893 100 1083 c 262
135 1083 m 262
 135 913 278 805 435 805 c 260
 602 805 745 913 745 1083 c 262
 745 1118 l 262
 745 1288 602 1395 435 1395 c 260
 278 1395 135 1288 135 1118 c 262
 135 1083 l 262
975 283 m 262
 975 318 l 262
 975 508 1133 635 1310 635 c 260
 1487 635 1655 508 1655 318 c 262
 1655 283 l 262
 1655 93 1487 -35 1310 -35 c 260
 1133 -35 975 93 975 283 c 262
1010 283 m 262
 1010 113 1153 5 1310 5 c 260
 1467 5 1620 113 1620 283 c 262
 1620 318 l 262
 1620 488 1467 595 1310 595 c 260
 1153 595 1010 488 1010 318 c 262
 1010 283 l 262
1379 1390 m 6
 416 10 l 6
 411.551757812 2.7177734375 407 0 400 0 c 6
 380 0 l 6
 373 0 371.55136443 2.71753607676 376 10 c 6
 1339 1390 l 6
 1343.44824219 1397.28222656 1348 1400 1355 1400 c 6
 1375 1400 l 6
 1382 1400 1383.44863557 1397.28246392 1379 1390 c 6
EndSplineSet
EndChar

StartChar: hyphen
Encoding: 45 45 80
Width: 570
VWidth: 1920
Flags: HMW
LayerCount: 2
Fore
SplineSet
40 605 m 14
 40 620 l 22
 40 627 43 630 50 630 c 14
 520 630 l 22
 527 630 530 627 530 620 c 14
 530 605 l 22
 530 598 527 595 520 595 c 14
 50 595 l 22
 43 595 40 598 40 605 c 14
EndSplineSet
EndChar

StartChar: underscore
Encoding: 95 95 81
Width: 900
VWidth: 1920
Flags: HMW
LayerCount: 2
Fore
SplineSet
0 -25 m 14
 0 -10 l 18
 0 -3 3 0 10 0 c 10
 890 0 l 18
 897 0 900 -3 900 -10 c 10
 900 -25 l 22
 900 -32 897 -35 890 -35 c 14
 10 -35 l 22
 3 -35 0 -32 0 -25 c 14
EndSplineSet
EndChar

StartChar: plus
Encoding: 43 43 82
Width: 1040
VWidth: 1920
Flags: HMW
LayerCount: 2
Fore
SplineSet
45 685 m 14
 45 700 l 22
 45 707 48 710 55 710 c 14
 985 710 l 22
 992 710 995 707 995 700 c 14
 995 685 l 22
 995 678 992 675 985 675 c 14
 55 675 l 22
 48 675 45 678 45 685 c 14
515 1190 m 10
 525 1190 l 18
 532 1190 535 1187 535 1180 c 10
 535 180 l 18
 535 173 532 170 525 170 c 10
 515 170 l 18
 508 170 505 173 505 180 c 10
 505 1180 l 18
 505 1187 508 1190 515 1190 c 10
EndSplineSet
EndChar

StartChar: equal
Encoding: 61 61 83
Width: 1180
VWidth: 1920
Flags: HMW
LayerCount: 2
Fore
SplineSet
150 345 m 14
 150 350 l 22
 150 357 153 360 160 360 c 14
 1020 360 l 22
 1027 360 1030 357 1030 350 c 14
 1030 345 l 22
 1030 338 1027 335 1020 335 c 14
 160 335 l 22
 153 335 150 338 150 345 c 14
150 645 m 10
 150 650 l 18
 150 657 153 660 160 660 c 10
 1020 660 l 18
 1027 660 1030 657 1030 650 c 10
 1030 645 l 18
 1030 638 1027 635 1020 635 c 10
 160 635 l 18
 153 635 150 638 150 645 c 10
EndSplineSet
EndChar

StartChar: less
Encoding: 60 60 84
Width: 1010
VWidth: 1920
Flags: HMW
LayerCount: 2
Fore
SplineSet
850 156 m 2
 80 574 l 2
 72.61328125 578.393554688 70 583 70 590 c 2
 70 610 l 2
 70 617 72.61328125 621.606445312 80 626 c 2
 850 1044 l 2
 857.38671875 1048.39355469 860 1047 860 1040 c 2
 860 1030 l 2
 860 1023 857.579101562 1018.28320312 850 1014 c 2
 89.01953125 600 l 261
 850 186 l 2
 857.579101562 181.716796875 860 177 860 170 c 2
 860 160 l 2
 860 153 857.38671875 151.606445312 850 156 c 2
EndSplineSet
EndChar

StartChar: greater
Encoding: 62 62 85
Width: 1010
VWidth: 1920
Flags: HMW
LayerCount: 2
Fore
SplineSet
160 1044 m 6
 930 626 l 6
 937.38671875 621.606445312 940 617 940 610 c 6
 940 590 l 6
 940 583 937.38671875 578.393554688 930 574 c 6
 160 156 l 6
 152.61328125 151.606445312 150 153 150 160 c 6
 150 170 l 6
 150 177 152.420898438 181.716796875 160 186 c 6
 920.98046875 600 l 261
 160 1014 l 6
 152.420898438 1018.28320312 150 1023 150 1030 c 6
 150 1040 l 6
 150 1047 152.61328125 1048.39355469 160 1044 c 6
EndSplineSet
EndChar

StartChar: backslash
Encoding: 92 92 86
Width: 840
VWidth: 2048
Flags: HMW
LayerCount: 2
Fore
SplineSet
94 1390 m 6
 90.4482421875 1398.51953125 93 1400 100 1400 c 6
 110 1400 l 6
 116 1400 120.448242188 1398.51953125 124 1390 c 6
 771 -90 l 6
 774.551757812 -98.51953125 772 -100 765 -100 c 6
 755 -100 l 6
 748 -100 744.551757812 -98.51953125 741 -90 c 6
 94 1390 l 6
EndSplineSet
EndChar

StartChar: bracketleft
Encoding: 91 91 87
Width: 550
VWidth: 1920
Flags: HMW
LayerCount: 2
Fore
SplineSet
180 1570 m 261
 180 -330 l 261
 490 -330 l 2
 497 -330 500 -333 500 -340 c 2
 500 -350 l 2
 500 -357 497 -360 490 -360 c 2
 160 -360 l 2
 153 -360 150 -357 150 -350 c 2
 150 1590 l 2
 150 1597 153 1600 160 1600 c 2
 490 1600 l 2
 497 1600 500 1597 500 1590 c 2
 500 1580 l 2
 500 1573 497 1570 490 1570 c 2
 180 1570 l 261
EndSplineSet
EndChar

StartChar: braceleft
Encoding: 123 123 88
Width: 575
VWidth: 2048
Flags: HMW
LayerCount: 2
Fore
SplineSet
215 1278 m 258
 215 1505 267 1598 465 1600 c 4
 471.999642921 1600.07070346 475 1597 475 1590 c 2
 475 1580 l 2
 475 1573 471.998003307 1570.17872633 464 1570 c 4
 285 1566 250 1482 250 1278 c 262
 250 956 l 258
 250 771 192 668 36 620 c 257
 192 572 250 469 250 284 c 262
 250 -38 l 262
 250 -241 285 -324 462 -330 c 4
 472.044106461 -330.340478185 475 -333 475 -340 c 2
 475 -350 l 2
 475 -357 471.998126366 -360.183635232 463 -360 c 4
 267 -356 215 -265 215 -38 c 258
 215 284 l 258
 215 497 119 571 22 602 c 0
 13 605 10 609 10 616 c 2
 10 624 l 2
 10 631 13 635 20 637 c 0
 121 670 215 732 215 956 c 258
 215 1278 l 258
EndSplineSet
EndChar

StartChar: bracketright
Encoding: 93 93 89
Width: 550
VWidth: 1920
Flags: HMW
LayerCount: 2
Fore
SplineSet
370 -330 m 257
 370 1570 l 261
 60 1570 l 6
 53 1570 50 1573 50 1580 c 6
 50 1590 l 2
 50 1597 53 1600 60 1600 c 2
 390 1600 l 2
 397 1600 400 1597 400 1590 c 2
 400 -350 l 2
 400 -357 397 -360 390 -360 c 2
 60 -360 l 2
 53 -360 50 -357 50 -350 c 2
 50 -340 l 2
 50 -333 53 -330 60 -330 c 2
 370 -330 l 257
EndSplineSet
EndChar

StartChar: braceright
Encoding: 125 125 90
Width: 575
VWidth: 2048
Flags: HMW
LayerCount: 2
Fore
SplineSet
360 -38 m 262
 360 -265 308 -358 110 -360 c 4
 103 -360.0703125 100 -357 100 -350 c 6
 100 -340 l 6
 100 -333 103.001953125 -330.178710938 111 -330 c 4
 290 -326 325 -242 325 -38 c 262
 325 284 l 262
 325 469 383 572 539 620 c 261
 383 668 325 771 325 956 c 262
 325 1278 l 262
 325 1481 290 1564 113 1570 c 4
 102.956054688 1570.34082031 100 1573 100 1580 c 6
 100 1590 l 6
 100 1597 103.001953125 1600.18359375 112 1600 c 4
 308 1596 360 1505 360 1278 c 262
 360 956 l 262
 360 743 456 669 553 638 c 4
 562 635 565 631 565 624 c 6
 565 616 l 6
 565 609 562 605 555 603 c 4
 454 570 360 508 360 284 c 262
 360 -38 l 262
EndSplineSet
EndChar

StartChar: bar
Encoding: 124 124 91
Width: 415
VWidth: 1920
Flags: HMW
LayerCount: 2
Fore
SplineSet
203 1600 m 14
 213 1600 l 22
 220 1600 223 1597 223 1590 c 14
 223 -350 l 22
 223 -357 220 -360 213 -360 c 14
 203 -360 l 22
 196 -360 193 -357 193 -350 c 14
 193 1590 l 22
 193 1597 196 1600 203 1600 c 14
EndSplineSet
EndChar

StartChar: asciitilde
Encoding: 126 126 92
Width: 1330
VWidth: 2048
Flags: HMW
LayerCount: 2
Fore
SplineSet
422 779 m 260
 269.913085938 779 213.129666027 639.868043884 210.083984375 447 c 4
 209.989210054 440.99840825 206.9140625 438 200 438 c 2
 190 438 l 2
 182.911132812 438 179.96875 440.999023438 180.088867188 447 c 0
 184.280273438 655.384765625 251.445623234 809 422 809 c 260
 631 809 717 432 909 432 c 260
 1060.87207031 432 1117.62288986 570.809708657 1120.89550781 763 c 4
 1121.01473479 770.001815589 1124.10644531 773 1131 773 c 2
 1140 773 l 2
 1147.109375 773 1150.04199219 770.001953125 1149.890625 763 c 0
 1145.39453125 555.125 1079.28150859 402 909 402 c 260
 700 402 614 779 422 779 c 260
EndSplineSet
EndChar

StartChar: asciicircum
Encoding: 94 94 93
Width: 820
VWidth: 1920
Flags: HMW
LayerCount: 2
Fore
SplineSet
410 1361.48144531 m 261
 154 740 l 2
 151.668945312 734.021484375 147 730 140 730 c 2
 120 730 l 2
 113 730 111.301757812 733.552734375 114 740 c 2
 386 1390 l 2
 389.561523438 1398.50976562 393 1400 400 1400 c 2
 420 1400 l 2
 427 1400 430.438476562 1398.50976562 434 1390 c 2
 706 740 l 2
 709.1171875 733.82421875 712.494140625 730 700 730 c 2
 680 730 l 2
 669.571289062 730 667.76953125 733.76953125 666 740 c 2
 410 1361.48144531 l 261
EndSplineSet
EndChar

StartChar: figuredash
Encoding: 8210 8210 108
Width: 1150
VWidth: 2048
Flags: HMW
LayerCount: 2
Fore
SplineSet
40 605 m 10
 40 620 l 18
 40 627 43 630 50 630 c 10
 1100 630 l 18
 1107 630 1110 627 1110 620 c 10
 1110 605 l 18
 1110 598 1107 595 1100 595 c 10
 50 595 l 18
 43 595 40 598 40 605 c 10
EndSplineSet
EndChar

StartChar: endash
Encoding: 8211 8211 109
Width: 1100
VWidth: 2048
Flags: HMW
LayerCount: 2
Fore
SplineSet
40 605 m 10
 40 620 l 18
 40 627 43 630 50 630 c 10
 1050 630 l 18
 1057 630 1060 627 1060 620 c 10
 1060 605 l 18
 1060 598 1057 595 1050 595 c 10
 50 595 l 18
 43 595 40 598 40 605 c 10
EndSplineSet
EndChar

StartChar: emdash
Encoding: 8212 8212 110
Width: 2200
VWidth: 2048
Flags: HMW
LayerCount: 2
Fore
SplineSet
40 605 m 10
 40 620 l 18
 40 627 43 630 50 630 c 10
 2150 630 l 18
 2157 630 2160 627 2160 620 c 10
 2160 605 l 18
 2160 598 2157 595 2150 595 c 10
 50 595 l 18
 43 595 40 598 40 605 c 10
EndSplineSet
EndChar

StartChar: uni2015
Encoding: 8213 8213 111
Width: 2360
VWidth: 2048
Flags: HMW
LayerCount: 2
Fore
SplineSet
40 605 m 10
 40 620 l 18
 40 627 43 630 50 630 c 10
 2310 630 l 18
 2317 630 2320 627 2320 620 c 10
 2320 605 l 18
 2320 598 2317 595 2310 595 c 10
 50 595 l 18
 43 595 40 598 40 605 c 10
EndSplineSet
EndChar

StartChar: quoteleft
Encoding: 8216 8216 114
Width: 540
VWidth: 1920
Flags: HMW
LayerCount: 2
Fore
SplineSet
282 1470 m 6
 284 1470 l 6
 291 1470 292 1468 290 1460 c 6
 251 1260 l 261
 258 1260 l 6
 267 1260 268 1259 268 1250 c 6
 268 1060 l 6
 268 1053 265 1050 258 1050 c 6
 238 1050 l 6
 231 1050 228 1053 228 1060 c 6
 228 1240 l 6
 228 1247 228 1253 230 1260 c 6
 272 1460 l 6
 274 1469 276 1470 282 1470 c 6
EndSplineSet
EndChar

StartChar: quotereversed
Encoding: 8219 8219 117
Width: 540
VWidth: 1920
Flags: HMW
LayerCount: 2
Fore
SplineSet
282 1000 m 2
 276 1000 274 1001 272 1010 c 2
 230 1210 l 2
 228 1217 228 1223 228 1230 c 2
 228 1410 l 2
 228 1417 231 1420 238 1420 c 2
 258 1420 l 2
 265 1420 268 1417 268 1410 c 2
 268 1220 l 2
 268 1211 267 1210 258 1210 c 2
 251 1210 l 257
 290 1010 l 2
 292 1002 291 1000 284 1000 c 2
 282 1000 l 2
EndSplineSet
EndChar

StartChar: bullet
Encoding: 8226 8226 120
Width: 690
VWidth: 2048
Flags: HMW
LayerCount: 2
Fore
SplineSet
150 718 m 258
 150 773 l 258
 150 893 243 950 340 950 c 256
 437 950 540 893 540 773 c 258
 540 718 l 258
 540 598 437 540 340 540 c 256
 243 540 150 598 150 718 c 258
EndSplineSet
EndChar

StartChar: dagger
Encoding: 8224 8224 124
Width: 1130
VWidth: 1920
Flags: HMW
LayerCount: 2
Fore
SplineSet
70 1025 m 10
 70 1040 l 18
 70 1047 73 1050 80 1050 c 10
 1050 1050 l 18
 1057 1050 1060 1047 1060 1040 c 10
 1060 1025 l 18
 1060 1018 1057 1015 1050 1015 c 10
 80 1015 l 18
 73 1015 70 1018 70 1025 c 10
560 1400 m 14
 570 1400 l 18
 577 1400 580 1397 580 1390 c 10
 580 10 l 18
 580 3 577 0 570 0 c 10
 560 0 l 22
 553 0 550 3 550 10 c 14
 550 1390 l 22
 550 1397 553 1400 560 1400 c 14
EndSplineSet
EndChar

StartChar: daggerdbl
Encoding: 8225 8225 125
Width: 1130
VWidth: 1920
Flags: HMW
LayerCount: 2
Fore
SplineSet
70 10 m 10
 70 25 l 22
 70 32 73 35 80 35 c 14
 1050 35 l 22
 1057 35 1060 32 1060 25 c 14
 1060 10 l 18
 1060 3 1057 0 1050 0 c 10
 80 0 l 18
 73 0 70 3 70 10 c 10
70 1025 m 10
 70 1040 l 18
 70 1047 73 1050 80 1050 c 10
 1050 1050 l 18
 1057 1050 1060 1047 1060 1040 c 10
 1060 1025 l 18
 1060 1018 1057 1015 1050 1015 c 10
 80 1015 l 18
 73 1015 70 1018 70 1025 c 10
560 1400 m 10
 570 1400 l 18
 577 1400 580 1397 580 1390 c 10
 580 -350 l 18
 580 -357 577 -360 570 -360 c 10
 560 -360 l 18
 553 -360 550 -357 550 -350 c 10
 550 1390 l 18
 550 1397 553 1400 560 1400 c 10
EndSplineSet
EndChar

StartChar: perthousand
Encoding: 8240 8240 126
Width: 2555
VWidth: 2048
Flags: HMW
LayerCount: 2
Fore
SplineSet
1775 283 m 262
 1775 318 l 262
 1775 508 1933 635 2110 635 c 260
 2287 635 2455 508 2455 318 c 262
 2455 283 l 262
 2455 93 2287 -35 2110 -35 c 260
 1933 -35 1775 93 1775 283 c 262
1810 283 m 262
 1810 113 1953 5 2110 5 c 260
 2267 5 2420 113 2420 283 c 262
 2420 318 l 262
 2420 488 2267 595 2110 595 c 260
 1953 595 1810 488 1810 318 c 262
 1810 283 l 262
100 1083 m 262
 100 1118 l 262
 100 1308 258 1435 435 1435 c 260
 612 1435 780 1308 780 1118 c 262
 780 1083 l 262
 780 893 612 765 435 765 c 260
 258 765 100 893 100 1083 c 262
135 1083 m 262
 135 913 278 805 435 805 c 260
 602 805 745 913 745 1083 c 262
 745 1118 l 262
 745 1288 602 1395 435 1395 c 260
 278 1395 135 1288 135 1118 c 262
 135 1083 l 262
975 283 m 262
 975 318 l 262
 975 508 1133 635 1310 635 c 260
 1487 635 1655 508 1655 318 c 262
 1655 283 l 262
 1655 93 1487 -35 1310 -35 c 260
 1133 -35 975 93 975 283 c 262
1010 283 m 262
 1010 113 1153 5 1310 5 c 260
 1467 5 1620 113 1620 283 c 262
 1620 318 l 262
 1620 488 1467 595 1310 595 c 260
 1153 595 1010 488 1010 318 c 262
 1010 283 l 262
1379 1390 m 6
 416 10 l 6
 411.551757812 2.7177734375 407 0 400 0 c 6
 380 0 l 6
 373 0 371.55136443 2.71753607676 376 10 c 6
 1339 1390 l 6
 1343.44824219 1397.28222656 1348 1400 1355 1400 c 6
 1375 1400 l 6
 1382 1400 1383.44863557 1397.28246392 1379 1390 c 6
EndSplineSet
EndChar

StartChar: uni2031
Encoding: 8241 8241 127
Width: 3335
VWidth: 2048
Flags: HMW
LayerCount: 2
Fore
SplineSet
2555 283 m 262
 2555 318 l 262
 2555 508 2713 635 2890 635 c 260
 3067 635 3235 508 3235 318 c 262
 3235 283 l 262
 3235 93 3067 -35 2890 -35 c 260
 2713 -35 2555 93 2555 283 c 262
2590 283 m 262
 2590 113 2733 5 2890 5 c 260
 3047 5 3200 113 3200 283 c 262
 3200 318 l 262
 3200 488 3047 595 2890 595 c 260
 2733 595 2590 488 2590 318 c 262
 2590 283 l 262
1775 283 m 258
 1775 318 l 258
 1775 508 1933 635 2110 635 c 256
 2287 635 2455 508 2455 318 c 258
 2455 283 l 258
 2455 93 2287 -35 2110 -35 c 256
 1933 -35 1775 93 1775 283 c 258
1810 283 m 258
 1810 113 1953 5 2110 5 c 256
 2267 5 2420 113 2420 283 c 258
 2420 318 l 258
 2420 488 2267 595 2110 595 c 256
 1953 595 1810 488 1810 318 c 258
 1810 283 l 258
100 1083 m 258
 100 1118 l 258
 100 1308 258 1435 435 1435 c 256
 612 1435 780 1308 780 1118 c 258
 780 1083 l 258
 780 893 612 765 435 765 c 256
 258 765 100 893 100 1083 c 258
135 1083 m 258
 135 913 278 805 435 805 c 256
 602 805 745 913 745 1083 c 258
 745 1118 l 258
 745 1288 602 1395 435 1395 c 256
 278 1395 135 1288 135 1118 c 258
 135 1083 l 258
975 283 m 258
 975 318 l 258
 975 508 1133 635 1310 635 c 256
 1487 635 1655 508 1655 318 c 258
 1655 283 l 258
 1655 93 1487 -35 1310 -35 c 256
 1133 -35 975 93 975 283 c 258
1010 283 m 258
 1010 113 1153 5 1310 5 c 256
 1467 5 1620 113 1620 283 c 258
 1620 318 l 258
 1620 488 1467 595 1310 595 c 256
 1153 595 1010 488 1010 318 c 258
 1010 283 l 258
1379 1390 m 2
 416 10 l 2
 411.551757812 2.7177734375 407 0 400 0 c 2
 380 0 l 2
 373 0 371.55136443 2.71753607676 376 10 c 2
 1339 1390 l 2
 1343.44824219 1397.28222656 1348 1400 1355 1400 c 2
 1375 1400 l 2
 1382 1400 1383.44863557 1397.28246392 1379 1390 c 2
EndSplineSet
EndChar

StartChar: fraction
Encoding: 8260 8260 128
Width: 930
VWidth: 1920
Flags: HMW
LayerCount: 2
Fore
SplineSet
811.538085938 1276.625 m 14
 815.461914062 1272.625 l 22
 821.5234375 1269.125 822.622070312 1265.02636719 819.122070312 1258.96484375 c 14
 144.122070312 163.03515625 l 22
 140.622070312 156.973632812 136.5234375 155.875 130.461914062 159.375 c 14
 126.538085938 163.375 l 22
 120.4765625 166.875 119.377929688 170.973632812 122.877929688 177.03515625 c 14
 797.877929688 1272.96484375 l 22
 801.377929688 1279.02636719 805.4765625 1280.125 811.538085938 1276.625 c 14
EndSplineSet
EndChar

StartChar: uni2074
Encoding: 8308 8308 129
Width: 676
VWidth: 1920
Flags: HMW
LayerCount: 2
Fore
SplineSet
646 892 m 2
 646 874 l 2
 646 870 644 868 640 868 c 2
 502 868 l 257
 502 636 l 2
 502 632 500 630 496 630 c 2
 474 630 l 2
 470 630 468 632 468 636 c 2
 468 868 l 257
 46 868 l 2
 42 868 40 870 40 874 c 2
 40 904 l 2
 40 908 41 912 44 916 c 2
 462 1464 l 2
 464 1467 468 1470 472 1470 c 2
 496 1470 l 2
 500 1470 502 1468 502 1464 c 2
 502 898 l 257
 640 898 l 2
 644 898 646 896 646 892 c 2
474 898 m 257
 474 1446 l 257
 63 898 l 261
 474 898 l 257
EndSplineSet
EndChar

StartChar: uni2073
Encoding: 8307 8307 130
Width: 721
VWidth: 1920
Flags: HMW
LayerCount: 2
Fore
SplineSet
116 874 m 2
 138 874 l 2
 142 874 144 872 144 868 c 2
 144 826 l 2
 144 704 225 639 350 639 c 0
 500 639 577 713 577 841 c 2
 577 898 l 2
 577 1016 496 1066 350 1066 c 2
 302 1066 l 2
 298 1066 296 1068 296 1072 c 2
 296 1090 l 2
 296 1094 298 1096 302 1096 c 2
 338 1096 l 2
 488 1096 554 1142 554 1244 c 2
 554 1283 l 2
 554 1389 498 1461 358 1461 c 0
 228 1461 159 1391 159 1261 c 2
 159 1207 l 2
 159 1203 157 1201 153 1201 c 2
 137 1201 l 2
 133 1201 131 1203 131 1207 c 2
 131 1261 l 2
 131 1401 200 1491 358 1491 c 0
 516 1491 581 1418 581 1280 c 2
 581 1265 l 2
 581 1115 492 1077 338 1077 c 5
 352 1082 l 1
 506 1082 611 1033 611 883 c 2
 611 838 l 2
 611 694 528 609 350 609 c 0
 199 609 110 689 110 826 c 2
 110 868 l 2
 110 872 112 874 116 874 c 2
EndSplineSet
EndChar

StartChar: uni2072
Encoding: 8306 8306 131
Width: 692
VWidth: 1920
Flags: HMW
LayerCount: 2
Fore
SplineSet
110 693 m 262
 110 909 553 1029 553 1257 c 262
 553 1284 l 258
 553 1400 501 1468 367 1468 c 256
 225 1468 153 1392 153 1238 c 258
 153 1184 l 2
 153 1180 151 1178 147 1178 c 2
 131 1178 l 2
 127 1178 125 1180 125 1184 c 2
 125 1238 l 258
 125 1402 191 1498 367 1498 c 256
 525 1498 581 1419 581 1281 c 258
 581 1254 l 258
 581 1016 132 868 132 675 c 262
 132 669 l 257
 576 669 l 2
 580 669 582 667 582 663 c 2
 582 643 l 2
 582 639 580 637 576 637 c 2
 116 637 l 2
 112 637 110 639 110 643 c 2
 110 693 l 262
EndSplineSet
EndChar

StartChar: uni2070
Encoding: 8304 8304 132
Width: 770
VWidth: 1920
InSpiro: 1
Flags: HMW
LayerCount: 2
Fore
SplineSet
80 923 m 258
 80 1178 l 258
 80 1373 194 1491 385 1491 c 256
 576 1491 690 1373 690 1178 c 258
 690 923 l 258
 690 727 576 609 385 609 c 256
 194 609 80 727 80 923 c 258
  Spiro
    80 923 [
    80 1178 ]
    116.558 1345.68 o
    221.173 1453.26 o
    385 1491 o
    548.827 1453.26 o
    653.442 1345.68 o
    690 1178 [
    690 923 ]
    653.442 754.621 o
    548.827 646.778 o
    385 609 o
    221.173 646.778 o
    116.558 754.621 o
    0 0 z
  EndSpiro
114 935 m 258
 114 756 215 639 385 639 c 256
 555 639 656 756 656 935 c 258
 656 1166 l 258
 656 1345 555 1461 385 1461 c 256
 215 1461 114 1345 114 1166 c 258
 114 935 l 258
  Spiro
    114 935 ]
    146.418 778.835 o
    239.306 675.891 o
    385 639 o
    530.694 675.891 o
    623.582 778.835 o
    656 935 [
    656 1166 ]
    623.582 1321.91 o
    530.694 1424.37 o
    385 1461 o
    239.306 1424.37 o
    146.418 1321.91 o
    114 1166 [
    0 0 z
  EndSpiro
EndSplineSet
EndChar

StartChar: uni2075
Encoding: 8309 8309 133
Width: 754
VWidth: 1920
Flags: HMW
LayerCount: 2
Fore
SplineSet
156 844 m 2
 166 844 l 6
 170 844 171.778136004 841.993551932 172 838 c 4
 180 694 237 632 375 632 c 4
 514 632 590 706 590 872 c 6
 590 917 l 2
 590 1087 510 1186 380 1186 c 0
 218 1186 215.147460938 1062.91210938 190 1021 c 0
 187 1016 184 1015 180 1015 c 2
 168 1015 l 2
 164 1015 162 1016 163 1021 c 2
 228 1457 l 2
 229 1461 231 1463 235 1463 c 2
 633 1463 l 2
 637 1463 639 1461 639 1457 c 2
 639 1455 l 2
 639 1433 621 1433 519 1433 c 2
 256 1433 l 1
 199 1070 l 1
 186 1070 l 1
 219 1144 224 1216 380 1216 c 0
 510 1216 624 1117 624 919 c 2
 624 880 l 2
 624 692 537 602 375 602 c 4
 215 602 159 694 150 838 c 0
 150 842 152 844 156 844 c 2
EndSplineSet
EndChar

StartChar: uni2076
Encoding: 8310 8310 134
Width: 836
VWidth: 1920
Flags: HMW
LayerCount: 2
Fore
SplineSet
447 1154 m 260
 257 1154 161 1015 161 925 c 262
 161 883 l 261
 145 943 l 261
 145 1101 323 1184 447 1184 c 260
 611 1184 706 1068 706 904 c 262
 706 874 l 262
 706 707 607 609 422 609 c 260
 236 609 130 730 130 946 c 262
 130 1136 l 262
 130 1364 221 1491 417 1491 c 260
 595 1491 673 1389 673 1279 c 262
 673 1261 l 6
 673 1257 671 1255 667 1255 c 6
 647 1255 l 6
 643 1255 641 1257 641 1261 c 6
 641 1279 l 262
 641 1379 585 1461 417 1461 c 260
 251 1461 161 1343 161 1133 c 262
 161 883 l 262
 161 789 230 639 422 639 c 260
 551 639 672 712 672 880 c 262
 672 904 l 262
 672 1054 601 1154 447 1154 c 260
EndSplineSet
EndChar

StartChar: uni2077
Encoding: 8311 8311 135
Width: 652
VWidth: 1920
Flags: HMW
LayerCount: 2
Fore
SplineSet
651 1464 m 2
 238 636 l 6
 236 632 234 630 230 630 c 6
 196 630 l 2
 192 630 190 632 192 636 c 2
 596 1434 l 257
 76 1434 l 2
 72 1434 70 1436 70 1440 c 2
 70 1464 l 2
 70 1468 72 1470 76 1470 c 2
 648 1470 l 2
 652 1470 653 1468 651 1464 c 2
EndSplineSet
EndChar

StartChar: uni2078
Encoding: 8312 8312 136
Width: 812
VWidth: 1920
Flags: HMW
LayerCount: 2
Fore
SplineSet
406 639 m 256
 584 639 638 707 638 855 c 258
 638 886 l 258
 638 1024 504 1056 406 1056 c 256
 308 1056 174 1024 174 886 c 258
 174 855 l 258
 174 707 228 639 406 639 c 256
406 1086 m 260
 576 1086 608 1163 608 1234 c 258
 608 1263 l 262
 608 1389 565 1461 406 1461 c 260
 257 1461 204 1389 204 1263 c 262
 204 1234 l 258
 204 1163 236 1086 406 1086 c 260
425 1076 m 257
 593 1076 672 1004 672 865 c 258
 672 838 l 258
 672 690 611 609 406 609 c 256
 201 609 140 690 140 838 c 258
 140 865 l 258
 140 1004 219 1076 387 1076 c 257
 389 1072 l 257
 229 1075 170 1132 170 1265 c 258
 170 1280 l 258
 170 1413 245 1491 406 1491 c 256
 567 1491 642 1413 642 1280 c 258
 642 1265 l 258
 642 1132 583 1075 423 1072 c 257
 425 1076 l 257
EndSplineSet
EndChar

StartChar: uni2079
Encoding: 8313 8313 137
Width: 826
VWidth: 1920
Flags: HMW
LayerCount: 2
Fore
SplineSet
379 946 m 256
 569 946 665 1085 665 1175 c 258
 665 1217 l 257
 681 1157 l 257
 681 999 503 916 379 916 c 256
 215 916 130 1032 130 1196 c 258
 130 1226 l 258
 130 1393 219 1491 404 1491 c 256
 590 1491 696 1370 696 1154 c 258
 696 964 l 258
 696 736 595 609 399 609 c 260
 221 609 133 711 133 821 c 258
 133 839 l 2
 133 843 135 845 139 845 c 2
 159 845 l 2
 163 845 165 843 165 839 c 2
 165 821 l 258
 165 721 231 639 399 639 c 260
 565 639 665 757 665 967 c 258
 665 1217 l 258
 665 1311 596 1461 404 1461 c 256
 275 1461 164 1388 164 1220 c 258
 164 1196 l 258
 164 1046 225 946 379 946 c 256
EndSplineSet
EndChar

StartChar: uni00B9
Encoding: 185 185 138
Width: 514
VWidth: 1920
Flags: HMW
LayerCount: 2
Fore
SplineSet
251 1436.24902344 m 0
 259.071289062 1444.51953125 257.80859375 1459.75683594 258.745117188 1500 c 0
 258.918945312 1507.484375 259.3984375 1510 266 1510 c 2
 268 1510 l 2
 275 1510 275 1507 275 1500 c 2
 275 650 l 2
 275 643 272 640 265 640 c 2
 255 640 l 2
 248 640 245 643 245 650 c 2
 245 1424 l 2
 245 1430.734375 248.188476562 1433.36816406 251 1436.24902344 c 0
EndSplineSet
EndChar

StartChar: cent
Encoding: 162 162 154
Width: 939
VWidth: 1920
Flags: HMW
LayerCount: 2
Fore
SplineSet
488.749023438 1240 m 6
 493.749023438 1240 l 6
 500.749023438 1240 503.749023438 1237 503.749023438 1230 c 6
 503.749023438 -180 l 6
 503.749023438 -187 500.749023438 -190 493.749023438 -190 c 6
 488.749023438 -190 l 6
 481.749023438 -190 478.749023438 -187 478.749023438 -180 c 6
 478.749023438 1230 l 6
 478.749023438 1237 481.749023438 1240 488.749023438 1240 c 6
EndSplineSet
Refer: 40 99 N 1 0 0 1 0 0 2
EndChar

StartChar: uni203D
Encoding: 8253 8253 157
Width: 1080
VWidth: 1920
Flags: HMW
LayerCount: 2
Fore
SplineSet
545 950 m 2
 545 1080 l 2
 545 1087 548 1090 555 1090 c 2
 565 1090 l 2
 572 1090 575 1087 575 1080 c 2
 575 950 l 2
 575 943 574.817382812 936.903320312 574 930 c 2
 576 410 l 2
 575.182617188 403.096679688 572 400 565 400 c 2
 565 400 l 2
 558 400 554.817382812 403.096679688 554 410 c 2
 546 930 l 2
 545.182617188 936.903320312 545 943 545 950 c 2
565 0 m 6
 545 0 l 2
 538 0 535 3 535 10 c 2
 535 200 l 2
 535 207 538 210 545 210 c 2
 565 210 l 6
 572 210 575 207 575 200 c 6
 575 10 l 6
 575 3 572 0 565 0 c 6
569 400 m 2
 564 400 l 2
 555.912109375 400 553.604584756 402.888481314 553.740234375 409 c 0
 560.885742188 730.931640625 865 768.14453125 865 1043 c 258
 865 1068 l 258
 865 1268 796 1405 589 1405 c 256
 369 1405 275 1264.77148438 275 1052 c 258
 275 962 l 2
 275 955 272 952 265 952 c 2
 255 952 l 2
 248 952 245 955 245 962 c 2
 245 1052 l 258
 245 1276 352 1435 589 1435 c 256
 816 1435 895 1293 895 1073 c 258
 895 1048 l 258
 895 734.727539062 574.930664062 713.434570312 576.556640625 408 c 0
 576.584627988 402.742662139 575.930664062 400 569 400 c 2
EndSplineSet
EndChar

StartChar: ordfeminine
Encoding: 170 170 159
Width: 847
VWidth: 1920
Flags: HMW
LayerCount: 2
Fore
SplineSet
170 834 m 4
 170 720 218 639 346 639 c 260
 550 639 638 806 638 952 c 257
 658 902 l 257
 658 759 537 609 346 609 c 260
 197 609 140 709 140 834 c 4
 140 965 183 1040 419 1079 c 256
 544 1099 638 1159 638 1242 c 257
 648 1202 l 257
 648 1139 539.534428549 1074.19602816 426 1054 c 256
 218 1017 170 954 170 834 c 4
638 852 m 258
 638 1262 l 258
 638 1402 563 1459 438 1459 c 256
 279 1459 208 1362.1640625 198 1226 c 0
 197.560538633 1220.0161155 195 1217 188 1217 c 2
 178 1217 l 2
 171 1217 168 1220 169 1226 c 0
 193 1379 252 1489 438 1489 c 256
 598 1489 668 1415 668 1257 c 258
 668 852 l 258
 668 758 689 693 725 651 c 0
 729 646 729 644 722 644 c 2
 708 644 l 2
 701 644 695 646 692 650 c 0
 655 693 638 757 638 852 c 258
EndSplineSet
EndChar

StartChar: exclamdown
Encoding: 161 161 160
Width: 540
VWidth: 1920
Flags: HMW
LayerCount: 2
Fore
SplineSet
260 1050 m 2
 280 1050 l 2
 287 1050 290 1047 290 1040 c 2
 290 850 l 2
 290 843 287 840 280 840 c 2
 260 840 l 2
 253 840 250 843 250 850 c 2
 250 1040 l 2
 250 1047 253 1050 260 1050 c 2
285 100 m 2
 285 -390 l 2
 285 -397 282 -400 275 -400 c 2
 265 -400 l 2
 258 -400 255 -397 255 -390 c 2
 255 100 l 2
 255 107 255.182617188 193.096679688 256 200 c 2
 259 610 l 2
 259.041992188 616.908203125 262 620 269 620 c 2
 271 620 l 2
 278 620 280.958007812 616.908203125 281 610 c 2
 284 200 l 2
 284.041992188 193.09765625 285 107 285 100 c 2
EndSplineSet
EndChar

StartChar: AE
Encoding: 198 198 161
Width: 2200
VWidth: 1920
Flags: HMW
LayerCount: 2
Fore
SplineSet
500 530 m 261
 1190 530 l 257
 1190 500 l 257
 500 500 l 261
 500 530 l 261
1195 1400 m 1
 133 10 l 2
 129.338867188 4.4189453125 127 0 120 0 c 2
 100 0 l 2
 93 0 89.638671875 4.896484375 93 10 c 2
 1152 1390 l 2
 1155.36132812 1395.10351562 1158 1400 1165 1400 c 2
 1195 1400 l 1
EndSplineSet
Refer: 16 69 N 1 0 0 1 920 0 2
EndChar

StartChar: questiondown
Encoding: 191 191 162
Width: 1080
VWidth: 1920
Flags: HMW
LayerCount: 2
Fore
SplineSet
572 1050 m 6
 592 1050 l 6
 599 1050 602 1047 602 1040 c 6
 602 850 l 6
 602 843 599 840 592 840 c 6
 572 840 l 6
 565 840 562 843 562 850 c 6
 562 1040 l 6
 562 1047 565 1050 572 1050 c 6
587 650 m 6
 597 650 l 6
 604.087890625 650 608.584960938 647.104492188 608.259765625 641 c 4
 591.114257812 319.068359375 267 271.85546875 267 -13 c 262
 267 -48 l 262
 267 -278 376 -405 573 -405 c 260
 793 -405 907 -244.771484375 907 -2 c 262
 907 88 l 6
 907 95 910 98 917 98 c 6
 927 98 l 6
 934 98 937 95 937 88 c 6
 937 -2 l 262
 937 -266 820 -435 573 -435 c 260
 356 -435 237 -303 237 -53 c 262
 237 -28 l 262
 237 295.272460938 557.069335938 336.565429688 575.443359375 642 c 4
 575.758789062 647.248046875 580.069335938 650 587 650 c 6
EndSplineSet
EndChar

StartChar: yen
Encoding: 165 165 163
Width: 1164
VWidth: 1920
Flags: HMW
LayerCount: 2
Fore
SplineSet
137 385 m 14
 137 390 l 18
 137 397 140 400 147 400 c 10
 1027 400 l 18
 1034 400 1037 397 1037 390 c 10
 1037 385 l 22
 1037 378 1034 375 1027 375 c 14
 147 375 l 22
 140 375 137 378 137 385 c 14
137 555 m 10
 137 560 l 18
 137 567 140 570 147 570 c 10
 1027 570 l 18
 1034 570 1037 567 1037 560 c 10
 1037 555 l 18
 1037 548 1034 545 1027 545 c 10
 147 545 l 18
 140 545 137 548 137 555 c 10
EndSplineSet
Refer: 36 89 N 1 0 0 1 0 0 2
EndChar

StartChar: gravecomb
Encoding: 768 768 164
Width: 0
Flags: HMW
AnchorPoint: "top" -563 1000 mark 0
LayerCount: 2
Fore
SplineSet
-504 1104 m 2
 -524 1104 l 2
 -531 1104 -539 1109 -544 1114 c 2
 -779 1390 l 2
 -784 1395 -786 1400 -779 1400 c 2
 -729 1400 l 2
 -722 1400 -717 1397 -713 1390 c 2
 -500 1114 l 2
 -496 1107 -497 1104 -504 1104 c 2
EndSplineSet
EndChar

StartChar: acutecomb
Encoding: 769 769 165
Width: 0
Flags: HMW
AnchorPoint: "top" -548 1000 mark 0
LayerCount: 2
Fore
SplineSet
-605 1104 m 6
 -612 1104 -613 1107 -609 1114 c 6
 -396 1390 l 6
 -392 1397 -387 1400 -380 1400 c 6
 -330 1400 l 6
 -323 1400 -325 1395 -330 1390 c 6
 -565 1114 l 6
 -570 1109 -578 1104 -585 1104 c 6
 -605 1104 l 6
EndSplineSet
EndChar

StartChar: uni0302
Encoding: 770 770 166
Width: 0
VWidth: 1920
Flags: HMW
AnchorPoint: "top" -559 1000.48 mark 0
LayerCount: 2
Fore
SplineSet
-560 1381.48144531 m 261
 -758 1110 l 6
 -762.228515625 1104.74316406 -768 1100 -775 1100 c 6
 -780 1100 l 6
 -787 1100 -790.044921875 1103.77734375 -786 1110 c 6
 -584 1390 l 6
 -578.756835938 1398.06640625 -577 1400 -570 1400 c 6
 -550 1400 l 6
 -543 1400 -541.427734375 1397.91601562 -536 1390 c 6
 -324 1110 l 6
 -319.802734375 1103.87890625 -317.505859375 1100 -330 1100 c 6
 -335 1100 l 6
 -345.428710938 1100 -347.743164062 1105.04785156 -352 1110 c 6
 -560 1381.48144531 l 261
EndSplineSet
EndChar

StartChar: tildecomb
Encoding: 771 771 167
Width: 0
Flags: HMW
AnchorPoint: "top" -578 1000 mark 0
LayerCount: 2
Fore
SplineSet
-718 1399 m 256
 -790.086914062 1399 -841.875976562 1349.86816406 -854.916015625 1217 c 4
 -855.502280864 1211.02639934 -863.0859375 1208 -870 1208 c 2
 -870 1208 l 2
 -877.088867188 1208 -880.09285071 1211.00034567 -879.911132812 1217 c 0
 -875.719726562 1355.38476562 -808.5546875 1429 -718 1429 c 256
 -579 1429 -533 1212 -411 1212 c 256
 -339.127929688 1212 -287.37109375 1260.80957031 -274.104492188 1393 c 0
 -273.405273438 1399.96777344 -265.893554688 1403 -259 1403 c 2
 -260 1403 l 2
 -252.890625 1403 -249.881121295 1399.99951589 -250.109375 1393 c 0
 -254.60546875 1255.125 -320.71875 1182 -411 1182 c 256
 -550 1182 -596 1399 -718 1399 c 256
EndSplineSet
EndChar

StartChar: uni0304
Encoding: 772 772 168
Width: 0
VWidth: 1920
Flags: HMW
AnchorPoint: "top" -560 1000 mark 0
LayerCount: 2
Fore
SplineSet
-830 1245 m 14
 -830 1260 l 22
 -830 1267 -827 1270 -820 1270 c 14
 -300 1270 l 22
 -293 1270 -290 1267 -290 1260 c 14
 -290 1245 l 22
 -290 1238 -293 1235 -300 1235 c 14
 -820 1235 l 22
 -827 1235 -830 1238 -830 1245 c 14
EndSplineSet
EndChar

StartChar: uni0306
Encoding: 774 774 169
Width: 0
VWidth: 1920
Flags: HMW
AnchorPoint: "top" -560 1000 mark 0
LayerCount: 2
Fore
SplineSet
-560 1205 m 4
 -390 1205 -315 1318.9921875 -315 1427 c 4
 -315 1435 -312 1438 -305 1438 c 6
 -300 1438 l 6
 -293 1438 -289 1435 -290 1424 c 4
 -298 1282 -377 1175 -560 1175 c 4
 -743 1175 -824 1283 -830 1427 c 4
 -830 1435 -827 1438 -820 1438 c 6
 -815 1438 l 6
 -808 1438 -805.090905697 1434.99962671 -805 1425 c 4
 -804 1315 -728 1205 -560 1205 c 4
EndSplineSet
EndChar

StartChar: uni0307
Encoding: 775 775 170
Width: 0
Flags: HMW
AnchorPoint: "top" -548 1000 mark 0
LayerCount: 2
Fore
SplineSet
-522 1264 m 6
 -578 1264 l 6
 -580 1264 -582 1264 -582 1266 c 6
 -582 1324 l 6
 -582 1326 -580 1326 -578 1326 c 6
 -522 1326 l 6
 -520 1326 -518 1326 -518 1324 c 6
 -518 1266 l 6
 -518 1264 -520 1264 -522 1264 c 6
EndSplineSet
EndChar

StartChar: uni0308
Encoding: 776 776 171
Width: 0
Flags: HMW
AnchorPoint: "top" -548 1000 mark 0
LayerCount: 2
Fore
SplineSet
-629 1264 m 2
 -686 1264 l 2
 -688 1264 -689 1264 -689 1266 c 2
 -689 1324 l 2
 -689 1326 -688 1326 -686 1326 c 2
 -629 1326 l 2
 -627 1326 -626 1326 -626 1324 c 2
 -626 1266 l 2
 -626 1264 -627 1264 -629 1264 c 2
-424 1264 m 6
 -481 1264 l 6
 -483 1264 -484 1264 -484 1266 c 6
 -484 1324 l 6
 -484 1326 -483 1326 -481 1326 c 6
 -424 1326 l 6
 -422 1326 -421 1326 -421 1324 c 6
 -421 1266 l 6
 -421 1264 -422 1264 -424 1264 c 6
EndSplineSet
EndChar

StartChar: uni030A
Encoding: 778 778 172
Width: 0
Flags: HMW
AnchorPoint: "top" -554 1000 mark 0
LayerCount: 2
Fore
SplineSet
-360 1312 m 0
 -360 1208 -450 1122 -554 1122 c 0
 -660 1122 -750 1206 -750 1312 c 0
 -750 1414 -660 1502 -554 1502 c 0
 -448 1502 -360 1420 -360 1312 c 0
-390 1312 m 4
 -390 1408 -460 1472 -554 1472 c 4
 -648 1472 -720 1402 -720 1312 c 4
 -720 1218 -648 1152 -554 1152 c 4
 -462 1152 -390 1222 -390 1312 c 4
EndSplineSet
EndChar

StartChar: uni030B
Encoding: 779 779 173
Width: 0
Flags: HMW
AnchorPoint: "top" -618 1000 mark 0
LayerCount: 2
Fore
SplineSet
-485 1104 m 6
 -492 1104 -493 1107 -489 1114 c 6
 -276 1390 l 6
 -272 1397 -267 1400 -260 1400 c 6
 -210 1400 l 6
 -203 1400 -205 1395 -210 1390 c 6
 -445 1114 l 6
 -450 1109 -458 1104 -465 1104 c 6
 -485 1104 l 6
-755 1104 m 6
 -762 1104 -763 1107 -759 1114 c 6
 -546 1390 l 6
 -542 1397 -537 1400 -530 1400 c 6
 -480 1400 l 6
 -473 1400 -475 1395 -480 1390 c 6
 -715 1114 l 6
 -720 1109 -728 1104 -735 1104 c 6
 -755 1104 l 6
EndSplineSet
EndChar

StartChar: uni030C
Encoding: 780 780 174
Width: 0
Flags: HMW
AnchorPoint: "top" -554 1000 mark 0
LayerCount: 2
Fore
SplineSet
-554 1139 m 257
 -356 1410.48144531 l 2
 -351.771484375 1415.73828125 -346 1420.48144531 -339 1420.48144531 c 2
 -334 1420.48144531 l 2
 -327 1420.48144531 -323.955078125 1416.70410156 -328 1410.48144531 c 2
 -530 1130.48144531 l 2
 -535.243164062 1122.41503906 -537 1120.48144531 -544 1120.48144531 c 2
 -564 1120.48144531 l 2
 -571 1120.48144531 -572.572265625 1122.56542969 -578 1130.48144531 c 2
 -790 1410.48144531 l 2
 -794.197265625 1416.60253906 -796.494140625 1420.48144531 -784 1420.48144531 c 2
 -779 1420.48144531 l 2
 -768.571289062 1420.48144531 -766.256835938 1415.43359375 -762 1410.48144531 c 2
 -554 1139 l 257
EndSplineSet
EndChar

StartChar: uni030F
Encoding: 783 783 175
Width: 0
Flags: HMW
AnchorPoint: "top" -508 1000 mark 0
LayerCount: 2
Fore
SplineSet
-614 1104 m 6
 -634 1104 l 6
 -641 1104 -649 1109 -654 1114 c 6
 -889 1390 l 6
 -894 1395 -896 1400 -889 1400 c 6
 -839 1400 l 6
 -832 1400 -827 1397 -823 1390 c 6
 -610 1114 l 6
 -606 1107 -607 1104 -614 1104 c 6
-344 1104 m 6
 -364 1104 l 6
 -371 1104 -379 1109 -384 1114 c 6
 -619 1390 l 6
 -624 1395 -626 1400 -619 1400 c 6
 -569 1400 l 6
 -562 1400 -557 1397 -553 1390 c 6
 -340 1114 l 6
 -336 1107 -337 1104 -344 1104 c 6
EndSplineSet
EndChar

StartChar: uni0311
Encoding: 785 785 176
Width: 0
Flags: HMW
AnchorPoint: "top" -604 1000 mark 0
LayerCount: 2
Fore
SplineSet
-604 1405 m 0
 -774 1405 -849 1291.0078125 -849 1183 c 0
 -849 1175 -852 1172 -859 1172 c 2
 -864 1172 l 2
 -871 1172 -875 1175 -874 1186 c 0
 -866 1328 -787 1435 -604 1435 c 0
 -421 1435 -340 1327 -334 1183 c 0
 -334 1175 -337 1172 -344 1172 c 2
 -349 1172 l 2
 -356 1172 -358.909179688 1175 -359 1185 c 0
 -360 1295 -436 1405 -604 1405 c 0
EndSplineSet
EndChar

StartChar: dotbelowcomb
Encoding: 803 803 177
Width: 0
Flags: HMW
AnchorPoint: "bottom" -551 0 mark 0
LayerCount: 2
Fore
SplineSet
-522 -286 m 6
 -578 -286 l 6
 -580 -286 -582 -286 -582 -284 c 6
 -582 -226 l 6
 -582 -224 -580 -224 -578 -224 c 6
 -522 -224 l 6
 -520 -224 -518 -224 -518 -226 c 6
 -518 -284 l 6
 -518 -286 -520 -286 -522 -286 c 6
EndSplineSet
EndChar

StartChar: uni0326
Encoding: 806 806 178
Width: 0
Flags: HMW
AnchorPoint: "bottom" -561 0 mark 0
LayerCount: 2
Fore
SplineSet
-597 -373 m 6
 -606 -373 l 6
 -608 -373 -609 -372 -608 -370 c 6
 -576 -310 l 261
 -597 -310 l 6
 -600 -310 -600 -310 -600 -307 c 6
 -600 -250 l 6
 -600 -248 -599 -247 -597 -247 c 6
 -540 -247 l 6
 -538 -247 -537 -248 -537 -250 c 6
 -537 -304 l 6
 -537 -306 -538 -307 -540 -310 c 6
 -592 -370 l 6
 -594 -372 -595 -373 -597 -373 c 6
EndSplineSet
EndChar

StartChar: uni0327
Encoding: 807 807 179
Width: 1200
Flags: HMW
AnchorPoint: "bottom" -531 0 mark 0
LayerCount: 2
Fore
SplineSet
-633 -500 m 0
 -712.01308465 -500 -768.021668706 -485.84338425 -821 -450.872070138 c 0
 -831.101879468 -444.203758936 -828.778338048 -439.628576447 -826 -434 c 2
 -822 -425.896484375 l 6
 -817.067382812 -416.030273438 -817.067382812 -416.030273438 -808 -420.872070312 c 4
 -756.208984375 -448.529296875 -732.182617188 -470 -633 -470 c 0
 -499 -470 -459 -404 -459 -342 c 0
 -459 -245.534179688 -555.099525574 -221.551303537 -684 -220.073242188 c 0
 -697.030273438 -219.923828125 -699.236523437 -223.526953125 -702 -218 c 2
 -703 -216 l 2
 -707.287109375 -206.890625 -703.5390625 -202.612304688 -699 -196 c 2
 -547 10 l 1
 -517 10 l 1
 -691 -211 l 1
 -685 -210 -639 -210.073242188 -624 -210.073242188 c 0
 -538 -210.073242188 -429 -242 -429 -342 c 0
 -429 -430 -489 -500 -633 -500 c 0
EndSplineSet
EndChar

StartChar: uni0328
Encoding: 808 808 180
Width: 1200
Flags: HMW
AnchorPoint: "ogonek" -551 0 mark 0
LayerCount: 2
Fore
SplineSet
-475 -420 m 2
 -475 -430 l 2
 -475 -437 -478 -440 -485 -440 c 2
 -565 -440 l 2
 -733 -440 -811 -358 -811 -240 c 4
 -811 -122 -705 -52 -545 20 c 5
 -535 0 l 1
 -689 -74 -781 -116 -781 -240 c 4
 -781 -352 -714.989257812 -410 -555 -410 c 2
 -485 -410 l 2
 -478 -410 -475 -413 -475 -420 c 2
EndSplineSet
EndChar

StartChar: uni0312
Encoding: 786 786 181
Width: 0
Flags: HMW
AnchorPoint: "top" -604 950 mark 0
LayerCount: 2
Fore
SplineSet
-568 1430 m 2
 -566 1430 l 2
 -559 1430 -558.474609375 1427.82519531 -560 1420 c 2
 -599 1220 l 257
 -592 1220 l 2
 -583.479492188 1220 -582 1218.59570312 -582 1210 c 2
 -582 1020 l 2
 -582 1013 -585 1010 -592 1010 c 2
 -612 1010 l 2
 -619 1010 -622 1013 -622 1020 c 2
 -622 1200 l 2
 -622 1207 -621.547851562 1212.80078125 -620 1220 c 2
 -578 1420 l 2
 -576.1953125 1428.59179688 -574 1430 -568 1430 c 2
EndSplineSet
EndChar

StartChar: sterling
Encoding: 163 163 182
Width: 1280
VWidth: 1920
Flags: HMW
LayerCount: 2
Fore
SplineSet
50 695 m 10
 50 700 l 18
 50 707 53 710 60 710 c 10
 720 710 l 18
 727 710 730 707 730 700 c 10
 730 695 l 18
 730 688 727 685 720 685 c 10
 60 685 l 18
 53 685 50 688 50 695 c 10
84 34 m 0
 200.069335938 150.069335938 328 305 328 514.35546875 c 0
 328 732.5078125 140 814.966796875 140 1043 c 0
 140 1273 268 1435 555 1435 c 4
 849.171875 1435 936.634765625 1266.05566406 949.689453125 971 c 0
 950.043945312 963 947.043945312 963 940 963 c 2
 930 963 l 2
 923.072265625 963 920.312148093 963.007934224 919.927734375 971 c 0
 906.21484375 1256.09472656 819.612304688 1405 555 1405 c 4
 288 1405 170 1253 170 1043 c 0
 170 821.723632812 358 740 358 514.35546875 c 0
 358 332.653320312 235.922851562 121.385742188 116.950195312 35 c 1
 1030 35 l 2
 1037 35 1040 32 1040 25 c 2
 1040 10 l 2
 1040 3 1037 0 1030 0 c 2
 90 0 l 2
 83 0 80 3 80 10 c 2
 80 25 l 2
 80 29.28125 80 30 84 34 c 0
EndSplineSet
EndChar

StartChar: currency
Encoding: 164 164 183
Width: 1112
Flags: HMW
LayerCount: 2
Fore
SplineSet
998.354492188 1164.2421875 m 10
 1006.7421875 1155.85449219 l 18
 1011.69238281 1150.90429688 1011.69238281 1146.66210938 1006.7421875 1141.71191406 c 10
 904.108398438 1039.07714844 l 18
 899.158203125 1034.12792969 894.916015625 1034.12792969 889.965820312 1039.07714844 c 10
 881.577148438 1047.46582031 l 18
 876.627929688 1052.41601562 876.627929688 1056.65820312 881.577148438 1061.60839844 c 10
 984.211914062 1164.2421875 l 18
 989.162109375 1169.19238281 993.404296875 1169.19238281 998.354492188 1164.2421875 c 10
220.034179688 385.922851562 m 10
 228.422851562 377.534179688 l 18
 233.372070312 372.583984375 233.372070312 368.341796875 228.422851562 363.391601562 c 10
 115.788085938 250.7578125 l 18
 110.837890625 245.807617188 106.595703125 245.807617188 101.645507812 250.7578125 c 10
 93.2578125 259.145507812 l 18
 88.3076171875 264.095703125 88.3076171875 268.337890625 93.2578125 273.288085938 c 10
 205.891601562 385.922851562 l 18
 210.841796875 390.872070312 215.083984375 390.872070312 220.034179688 385.922851562 c 10
93.2578125 1155.85449219 m 10
 101.645507812 1164.2421875 l 18
 106.595703125 1169.19238281 110.837890625 1169.19238281 115.788085938 1164.2421875 c 10
 228.422851562 1051.60839844 l 18
 233.372070312 1046.65820312 233.372070312 1042.41601562 228.422851562 1037.46582031 c 10
 220.034179688 1029.07714844 l 18
 215.083984375 1024.12792969 210.841796875 1024.12792969 205.891601562 1029.07714844 c 10
 93.2578125 1141.71191406 l 18
 88.3076171875 1146.66210938 88.3076171875 1150.90429688 93.2578125 1155.85449219 c 10
881.577148438 367.534179688 m 14
 889.965820312 375.922851562 l 22
 894.916015625 380.872070312 899.158203125 380.872070312 904.108398438 375.922851562 c 14
 1006.7421875 273.288085938 l 18
 1011.69238281 268.337890625 1011.69238281 264.095703125 1006.7421875 259.145507812 c 10
 998.354492188 250.7578125 l 18
 993.404296875 245.807617188 989.162109375 245.807617188 984.211914062 250.7578125 c 10
 881.577148438 353.391601562 l 22
 876.627929688 358.341796875 876.627929688 362.583984375 881.577148438 367.534179688 c 14
63 710 m 0
 63 979 284 1200 553 1200 c 0
 822 1200 1043 979 1043 710 c 0
 1043 441 822 220 553 220 c 0
 284 220 63 441 63 710 c 0
93 710 m 0
 93 451 304 250 553 250 c 0
 802 250 1013 451 1013 710 c 0
 1013 959 802 1170 553 1170 c 0
 304 1170 93 959 93 710 c 0
EndSplineSet
EndChar

StartChar: brokenbar
Encoding: 166 166 184
Width: 415
VWidth: 1920
Flags: HMW
LayerCount: 2
Fore
SplineSet
198 430 m 14
 218 430 l 22
 225 430 228 427 228 420 c 14
 228 -350 l 22
 228 -357 225 -360 218 -360 c 14
 198 -360 l 22
 191 -360 188 -357 188 -350 c 14
 188 420 l 22
 188 427 191 430 198 430 c 14
198 1600 m 14
 218 1600 l 22
 225 1600 228 1597 228 1590 c 14
 228 820 l 22
 228 813 225 810 218 810 c 14
 198 810 l 22
 191 810 188 813 188 820 c 14
 188 1590 l 22
 188 1597 191 1600 198 1600 c 14
EndSplineSet
EndChar

StartChar: section
Encoding: 167 167 185
Width: 1086
VWidth: 1920
Flags: HMW
LayerCount: 2
Fore
SplineSet
483 870 m 257
 248 860 105 791 105 633 c 256
 105 476 308.229492188 349.002929688 490 246 c 256
 730 110 875 67 875 -93 c 256
 875 -275 740 -400 513 -400 c 256
 279 -400 194 -267 180 -57 c 0
 180 -51 183 -48 190 -48 c 2
 209 -48 l 2
 216 -48 219.48046875 -50.9482421875 220 -58 c 0
 234 -248 310 -370 513 -370 c 256
 721 -370 845 -253 845 -93 c 256
 845 55 635 131 470 222 c 256
 186.844726562 378.1640625 75 496 75 633 c 256
 75 815 230 880 484 880 c 257
 483 870 l 257
613 165 m 257
 848 195 981 254 981 432 c 256
 981 589 777.770507812 690.997070312 596 794 c 256
 356 930 211 998 211 1158 c 256
 211 1340 316 1435 543 1435 c 260
 777 1435 872 1302 886 1092 c 0
 886 1086 883 1083 876 1083 c 2
 867 1083 l 2
 860 1083 856.547851562 1085.95019531 856 1093 c 0
 842 1273 756 1405 543 1405 c 260
 335 1405 241 1318 241 1158 c 256
 241 1010 450 909 615 818 c 256
 898.155273438 661.8359375 1011 589 1011 432 c 256
 1011 230 846 155 612 155 c 257
 613 165 l 257
EndSplineSet
EndChar

StartChar: copyright
Encoding: 169 169 186
Width: 1484
Flags: HMW
LayerCount: 2
Fore
SplineSet
1056 549 m 256
 1051 401 932 229 741 229 c 256
 509 229 414 393 414 621 c 258
 414 720 l 258
 414 948 509 1111 741 1111 c 256
 813 1111 1035 1090 1038 834 c 256
 1038 829 1036 828 1032 828 c 258
 1027 828 l 258
 1023 828 1020 829 1020 834 c 256
 1019 994 919 1093 747 1093 c 256
 521 1093 432 936 432 720 c 258
 432 621 l 258
 432 405 521 247 747 247 c 256
 889 247 1028 379 1038 549 c 256
 1038 554 1040 555 1044 555 c 258
 1050 555 l 258
 1054 555 1056 554 1056 549 c 256
1439 668 m 4
 1439 284 1125 -28 741 -28 c 4
 357 -28 45 284 45 668 c 4
 45 1052 357 1366 741 1366 c 4
 1125 1366 1439 1052 1439 668 c 4
1409 668 m 4
 1409 1036 1109 1336 741 1336 c 4
 373 1336 75 1036 75 668 c 4
 75 300 373 2 741 2 c 4
 1109 2 1409 300 1409 668 c 4
EndSplineSet
EndChar

StartChar: registered
Encoding: 174 174 188
Width: 1484
Flags: HMW
LayerCount: 2
Fore
SplineSet
502 1072 m 261
 502 685 l 261
 790 685 l 262
 902 685 1003 741 1003 855 c 262
 1003 875 l 262
 1003 1001 932 1072 790 1072 c 262
 502 1072 l 261
790 1090 m 262
 938 1090 1021 1013 1021 875 c 262
 1021 861 l 262
 1021 735 932 676 790 676 c 261
 790 682 l 261
 944 682 1015 647 1015 503 c 262
 1015 447 l 262
 1015 379 1033 305 1061 264 c 4
 1066 257 1066 256 1066 254 c 6
 1066 253 l 6
 1066 251 1064 250 1060 250 c 6
 1054 250 l 6
 1050 250 1048 250 1045 255 c 4
 1012 314 996 371 996 447 c 262
 996 503 l 262
 996 647 920 673 790 673 c 262
 502 673 l 261
 502 256 l 6
 502 252 500 250 496 250 c 6
 490 250 l 6
 486 250 484 252 484 256 c 6
 484 1084 l 6
 484 1088 486 1090 490 1090 c 6
 790 1090 l 262
1439 668 m 0
 1439 284 1125 -28 741 -28 c 0
 357 -28 45 284 45 668 c 0
 45 1052 357 1366 741 1366 c 0
 1125 1366 1439 1052 1439 668 c 0
1409 668 m 0
 1409 1036 1109 1336 741 1336 c 0
 373 1336 75 1036 75 668 c 0
 75 300 373 2 741 2 c 0
 1109 2 1409 300 1409 668 c 0
EndSplineSet
EndChar

StartChar: dotlessi
Encoding: 305 305 279
Width: 445
VWidth: 1920
Flags: HMW
AnchorPoint: "top" 225 1050 basechar 0
LayerCount: 2
Fore
SplineSet
238 1040 m 6
 238 10 l 6
 238 3 235 0 228 0 c 6
 218 0 l 6
 211 0 208 3 208 10 c 6
 208 1040 l 6
 208 1047 211 1050 218 1050 c 6
 228 1050 l 6
 235 1050 238 1047 238 1040 c 6
EndSplineSet
EndChar

StartChar: uni0237
Encoding: 567 567 291
Width: 445
VWidth: 1920
Flags: HMW
AnchorPoint: "top" 221 1050 basechar 0
LayerCount: 2
Fore
SplineSet
243 -86 m 262
 243 -293.388671875 196.923850901 -378.212324891 -91 -351.071861109 c 0
 -99.0306840663 -350.314867586 -102 -347.039908704 -102 -340 c 2
 -102 -330 l 2
 -102 -323.059570312 -99.0556852057 -320.470237932 -92 -321.215820312 c 0
 160.081054688 -347.853515625 208 -285.208007812 208 -88 c 258
 208 1040 l 2
 208 1047 211 1050 218 1050 c 2
 233 1050 l 6
 240 1050 243 1047 243 1040 c 6
 243 -86 l 262
EndSplineSet
EndChar

StartChar: kgreenlandic
Encoding: 312 312 298
Width: 1000
VWidth: 1920
Flags: HMW
LayerCount: 2
Fore
SplineSet
210 1050 m 6
 220 1050 l 6
 227 1050 230 1047 230 1040 c 6
 230 10 l 2
 230 3 226.595703125 0 220 0 c 2
 210 0 l 2
 203 0 200 3 200 10 c 2
 200 1040 l 6
 200 1047 203 1050 210 1050 c 6
200 473 m 257
 831 1040 l 2
 838.703125 1048.21582031 841.986328125 1050 850 1050 c 2
 870 1050 l 2
 877 1050 877.9296875 1048.3515625 869 1040 c 2
 220 463 l 257
 200 473 l 257
480 703 m 257
 500 723 l 257
 934 10 l 2
 938.705078125 2.55078125 937 0 930 0 c 2
 915 0 l 2
 906.94140625 0 903.306640625 2.5966796875 899 10 c 2
 480 703 l 257
EndSplineSet
EndChar

StartChar: grave
Encoding: 96 96 339
Width: 623
VWidth: 0
Flags: HMW
LayerCount: 2
Fore
SplineSet
416 1104 m 6
 396 1104 l 6
 389 1104 381 1109 376 1114 c 6
 141 1390 l 6
 136 1395 134 1400 141 1400 c 6
 191 1400 l 6
 198 1400 203 1397 207 1390 c 6
 420 1114 l 6
 424 1107 423 1104 416 1104 c 6
EndSplineSet
EndChar

StartChar: longs
Encoding: 383 383 352
Width: 620
VWidth: 1920
Flags: HMW
LayerCount: 2
Fore
SplineSet
250 1188 m 262
 250 1395.14550781 290.911586484 1468.85022688 578 1441.16584861 c 4
 587.027382074 1440.29532424 590 1437.04717092 590 1430 c 6
 590 1425 l 6
 590 1418.15625 587.034227635 1415.43579633 574 1416.88964844 c 4
 310.801757812 1446.24707031 285 1383.49511719 285 1188 c 262
 285 10 l 6
 285 3 282 0 275 0 c 6
 260 0 l 6
 253 0 250 3 250 10 c 6
 250 1188 l 262
EndSplineSet
EndChar

StartChar: uni0259
Encoding: 601 601 359
Width: 1110
VWidth: 1920
Flags: HMW
LayerCount: 2
Fore
SplineSet
186 721 m 4
 216 885 295 1085 588 1085 c 260
 817 1085 964 912 964 602 c 262
 964 447 l 262
 964 147 807 -35 580 -35 c 260
 323 -35 218 161 194 376 c 260
 186 447 186 432 186 516 c 4
 186 521 189 524 196 524 c 6
 950 524 l 261
 950 495 l 261
 215 495 l 261
 220 158 357 -10 580 -10 c 260
 797 -10 934 177 934 447 c 262
 934 602 l 262
 934 872 806 1060 589 1060 c 260
 337 1060 245 896 213 718 c 4
 212 714 209 712 202 712 c 6
 194 712 l 6
 187 712 185 715 186 721 c 4
EndSplineSet
EndChar

StartChar: logicalnot
Encoding: 172 172 373
Width: 1150
VWidth: 2048
Flags: HMW
LayerCount: 2
Fore
SplineSet
130 675 m 2
 130 690 l 2
 130 697 133 700 140 700 c 2
 970 700 l 2
 977 700 980 697 980 690 c 2
 980 325 l 2
 980 318 977 315 970 315 c 2
 960 315 l 6
 953 315 950 318 950 325 c 6
 950 665 l 5
 140 665 l 2
 133 665 130 668 130 675 c 2
EndSplineSet
EndChar

StartChar: acute
Encoding: 180 180 374
Width: 619
VWidth: 0
Flags: HMW
LayerCount: 2
Fore
SplineSet
145 1104 m 6
 138 1104 137 1107 141 1114 c 6
 354 1390 l 6
 358 1397 363 1400 370 1400 c 6
 420 1400 l 6
 427 1400 425 1395 420 1390 c 6
 185 1114 l 6
 180 1109 172 1104 165 1104 c 6
 145 1104 l 6
EndSplineSet
EndChar

StartChar: degree
Encoding: 176 176 376
Width: 880
VWidth: 2048
Flags: HMW
LayerCount: 2
Fore
SplineSet
100 1083 m 258
 100 1118 l 258
 100 1308 258 1435 435 1435 c 256
 612 1435 780 1308 780 1118 c 258
 780 1083 l 258
 780 893 612 765 435 765 c 256
 258 765 100 893 100 1083 c 258
135 1073 m 262
 135 913 278 795 435 795 c 260
 592 795 745 913 745 1073 c 262
 745 1128 l 262
 745 1288 592 1405 435 1405 c 260
 278 1405 135 1288 135 1128 c 262
 135 1073 l 262
EndSplineSet
EndChar

StartChar: plusminus
Encoding: 177 177 377
Width: 1168
Flags: HMW
LayerCount: 2
Fore
SplineSet
105 260 m 14
 105 265 l 22
 105 272 108 275 115 275 c 14
 1045 275 l 22
 1052 275 1055 272 1055 265 c 14
 1055 260 l 22
 1055 253 1052 250 1045 250 c 14
 115 250 l 22
 108 250 105 253 105 260 c 14
105 1035 m 10
 105 1050 l 18
 105 1057 108 1060 115 1060 c 10
 1045 1060 l 18
 1052 1060 1055 1057 1055 1050 c 10
 1055 1035 l 18
 1055 1028 1052 1025 1045 1025 c 10
 115 1025 l 18
 108 1025 105 1028 105 1035 c 10
575 1490 m 10
 585 1490 l 18
 592 1490 595 1487 595 1480 c 10
 595 580 l 18
 595 573 592 570 585 570 c 10
 575 570 l 18
 568 570 565 573 565 580 c 10
 565 1480 l 18
 565 1487 568 1490 575 1490 c 10
EndSplineSet
EndChar

StartChar: ae
Encoding: 230 230 379
Width: 1738
VWidth: 1920
Flags: HMW
LayerCount: 2
Fore
SplineSet
170 263 m 0
 170 59 282 -5 430 -5 c 256
 684 -5 838 232 838 398 c 257
 853 378 l 257
 853 175 677 -35 426 -35 c 256
 247 -35 140 55 140 260 c 0
 140 431 249 555 539 595 c 256
 723 620 838 675 838 758 c 257
 858 738 l 257
 858 655 716 595 546 570 c 256
 267 528 170 413 170 263 c 0
838 368 m 265
 838 778 l 258
 838 938 772 1060 557 1060 c 256
 328 1060 226 948 207 742 c 0
 206 736 204 733 197 733 c 2
 188 733 l 2
 181 733 178 736 179 742 c 0
 203 965 312 1085 558 1085 c 256
 787 1085 868 951 868 773 c 258
 868 368 l 257
 838 368 l 265
1617 329 m 4
 1587 165 1508 -35 1215 -35 c 260
 986 -35 839 138 839 448 c 262
 839 603 l 262
 839 903 996 1085 1223 1085 c 260
 1480 1085 1585 889 1609 674 c 260
 1617 603 1617 618 1617 534 c 4
 1617 529 1614 526 1607 526 c 6
 853 526 l 261
 853 555 l 261
 1588 555 l 261
 1583 892 1446 1060 1223 1060 c 260
 1006 1060 869 873 869 603 c 262
 869 448 l 262
 869 178 997 -10 1214 -10 c 260
 1466 -10 1558 154 1590 332 c 4
 1591 336 1594 338 1601 338 c 6
 1609 338 l 6
 1616 338 1618 335 1617 329 c 4
EndSplineSet
EndChar

StartChar: paragraph
Encoding: 182 182 380
Width: 1070
VWidth: 1920
Flags: HMW
LayerCount: 2
Fore
SplineSet
885 1365 m 5
 885 -350 l 6
 885 -357 882 -360 875 -360 c 6
 865 -360 l 6
 858 -360 854.357421875 -356.959960938 855 -350 c 6
 855 1365 l 5
 605 1365 l 5
 605 -350 l 6
 604.357421875 -356.959960938 602 -360 595 -360 c 6
 585 -360 l 6
 578 -360 575 -357 575 -350 c 6
 575 600 l 5
 495 600 l 2
 288 600 100 698 100 968 c 2
 100 1032 l 2
 100 1302 288.120117188 1400 495 1400 c 2
 1025 1400 l 2
 1032 1400 1035 1397 1035 1390 c 2
 1035 1375 l 2
 1035 1368 1032 1365 1025 1365 c 2
 885 1365 l 5
EndSplineSet
EndChar

StartChar: guilsinglleft
Encoding: 8249 8249 381
Width: 630
Flags: HMW
LayerCount: 2
Fore
SplineSet
460 216 m 6
 170 539 l 6
 162.61328125 543.393554688 160 548 160 555 c 6
 160 565 l 6
 160 572 162.61328125 576.606445312 170 581 c 6
 460 874 l 6
 467.38671875 878.393554688 470 877 470 870 c 6
 470 860 l 6
 470 853 467.579101562 848.283203125 460 844 c 6
 182.01953125 557 l 261
 460 251 l 6
 467.579101562 246.716796875 470 242 470 235 c 6
 470 220 l 6
 470 213 467.38671875 211.606445312 460 216 c 6
EndSplineSet
EndChar

StartChar: guilsinglright
Encoding: 8250 8250 382
Width: 630
Flags: HW
LayerCount: 2
Fore
SplineSet
170 874 m 2
 460 551 l 2
 467.38671875 546.606445312 470 542 470 535 c 2
 470 525 l 2
 470 518 467.38671875 513.393554688 460 509 c 2
 170 216 l 2
 162.61328125 211.606445312 160 213 160 220 c 2
 160 230 l 2
 160 237 162.420898438 241.716796875 170 246 c 2
 447.98046875 533 l 257
 170 839 l 2
 162.420898438 843.283203125 160 848 160 855 c 2
 160 870 l 2
 160 877 162.61328125 878.393554688 170 874 c 2
EndSplineSet
EndChar

StartChar: mu
Encoding: 181 181 385
Width: 1110
VWidth: 1920
Flags: HW
LayerCount: 2
Fore
SplineSet
213 1050 m 6
 223 1050 l 6
 230 1050 233 1047 233 1040 c 6
 233 -350 l 6
 233 -357 229.595703125 -360 223 -360 c 6
 213 -360 l 6
 206 -360 203 -357 203 -350 c 6
 203 1040 l 6
 203 1047 206 1050 213 1050 c 6
894 0 m 2
 892 0 l 2
 885 0 883 3 883 10 c 2
 883 383 l 257
 873 410 l 257
 873 1040 l 2
 873 1047 876 1050 883 1050 c 2
 893 1050 l 2
 900 1050 903 1047 903 1040 c 2
 903 10 l 2
 903 3 901 0 894 0 c 2
893 427 m 257
 893 207 715 -35 498 -35 c 256
 301 -35 213 87 213 287 c 258
 213 1040 l 2
 213 1047 211 1050 218 1050 c 2
 223 1050 l 2
 230 1050 233 1047 233 1040 c 2
 233 287 l 258
 233 107 311 -10 498 -10 c 256
 695 -10 873 217 873 427 c 257
 893 427 l 257
EndSplineSet
EndChar

StartChar: Eth
Encoding: 208 208 387
Width: 1273
VWidth: 1920
Flags: HW
LayerCount: 2
Fore
SplineSet
-4.5 705 m 14
 -4.5 720 l 22
 -4.5 727 -1.5 730 5.5 730 c 14
 615.5 730 l 22
 622.5 730 625.5 727 625.5 720 c 14
 625.5 705 l 22
 625.5 698 622.5 695 615.5 695 c 14
 5.5 695 l 22
 -1.5 695 -4.5 698 -4.5 705 c 14
EndSplineSet
Refer: 15 68 N 1 0 0 1 0 0 2
EndChar

StartChar: Dcroat
Encoding: 272 272 388
Width: 1273
VWidth: 1920
Flags: HW
LayerCount: 2
Fore
SplineSet
-4.5 705 m 14
 -4.5 720 l 22
 -4.5 727 -1.5 730 5.5 730 c 14
 615.5 730 l 22
 622.5 730 625.5 727 625.5 720 c 14
 625.5 705 l 22
 625.5 698 622.5 695 615.5 695 c 14
 5.5 695 l 22
 -1.5 695 -4.5 698 -4.5 705 c 14
EndSplineSet
Refer: 15 68 N 1 0 0 1 0 0 2
EndChar

StartChar: thorn
Encoding: 254 254 389
Width: 1135
VWidth: 1920
Flags: HW
LayerCount: 2
Fore
SplineSet
225 1450 m 6
 241 1450 l 2
 248 1450 248 1447 248 1440 c 2
 248 -350 l 2
 248 -357 245 -360 238 -360 c 2
 228 -360 l 2
 221 -360 218 -357 218 -350 c 2
 218 1440 l 2
 218 1447 218 1450 225 1450 c 6
238 633 m 257
 238 883 417 1085 614 1085 c 256
 821 1085 998 943 998 603 c 258
 998 447 l 258
 998 107 821 -35 614 -35 c 256
 417 -35 238 167 238 417 c 257
 248 437 l 257
 248 227 417 -10 614 -10 c 256
 801 -10 968 127 968 447 c 258
 968 603 l 258
 968 923 801 1060 614 1060 c 256
 407 1060 248 823 248 613 c 257
 238 633 l 257
EndSplineSet
EndChar

StartChar: Thorn
Encoding: 222 222 390
Width: 1280
VWidth: 1920
Flags: HW
LayerCount: 2
Fore
SplineSet
700 1100 m 6
 986.879882812 1100 1095 1052 1095 782 c 2
 1095 718 l 2
 1095 448 987 400 700 400 c 6
 280 400 l 1
 280 10 l 2
 280 3 277 0 270 0 c 2
 260 0 l 2
 253 0 250 3 250 10 c 2
 250 1390 l 2
 250 1397 253 1400 260 1400 c 2
 270 1400 l 2
 277 1400 280 1397 280 1390 c 2
 280 1100 l 1
 700 1100 l 6
280 430 m 1
 700 430 l 6
 987 430 1065 488 1065 718 c 2
 1065 782 l 2
 1065 1022 987 1070 700 1070 c 6
 280 1070 l 1
 280 430 l 1
EndSplineSet
EndChar

StartChar: divide
Encoding: 247 247 391
Width: 1169
VWidth: 2048
Flags: HW
LayerCount: 2
Fore
SplineSet
70 685 m 14
 70 700 l 22
 70 707 73 710 80 710 c 14
 1060 710 l 22
 1067 710 1070 707 1070 700 c 14
 1070 685 l 22
 1070 678 1067 675 1060 675 c 14
 80 675 l 22
 73 675 70 678 70 685 c 14
EndSplineSet
Refer: 1 46 N 1 0 0 1 306 990 2
Refer: 1 46 N 1 0 0 1 306 180 2
EndChar

StartChar: multiply
Encoding: 215 215 392
Width: 1060
VWidth: 1920
Flags: HW
LayerCount: 2
Fore
SplineSet
866 377 m 14
 865 376 l 18
 860 371 856 371 851 376 c 10
 193 1034 l 18
 188 1039 188 1043 193 1048 c 10
 195 1049 l 22
 200 1054 204 1054 209 1049 c 14
 866 391 l 22
 871 386 871 382 866 377 c 14
205 366 m 10
 193 377 l 18
 188 382 188 386 193 391 c 10
 851 1049 l 18
 856 1054 860 1054 865 1049 c 10
 866 1048 l 18
 871 1043 871 1039 866 1034 c 10
 209 376 l 18
 204 371 210 361 205 366 c 10
EndSplineSet
EndChar

StartChar: Oslash
Encoding: 216 216 393
Width: 1365
VWidth: 1920
Flags: HW
LayerCount: 2
Fore
SplineSet
1115.51953125 1485.76269531 m 2
 1124.48046875 1479.76269531 l 6
 1130.54296875 1476.26269531 1131.640625 1472.1640625 1128.140625 1466.10253906 c 6
 248.140625 -58.1025390625 l 6
 244.640625 -64.1640625 240.54296875 -65.2626953125 234.48046875 -61.7626953125 c 6
 225.51953125 -55.7626953125 l 2
 219.45703125 -52.2626953125 218.359375 -48.1640625 221.859375 -42.1025390625 c 2
 1101.859375 1482.10253906 l 2
 1105.359375 1488.1640625 1109.45703125 1489.26269531 1115.51953125 1485.76269531 c 2
EndSplineSet
Refer: 26 79 N 1 0 0 1 0 0 2
EndChar

StartChar: oslash
Encoding: 248 248 394
Width: 1017
VWidth: 1920
Flags: HW
LayerCount: 2
Fore
SplineSet
844.01953125 1168.53808594 m 2
 852.98046875 1162.53808594 l 6
 859.04296875 1159.03808594 860.140625 1154.94042969 856.640625 1148.87792969 c 6
 146.640625 -80.8779296875 l 6
 143.140625 -86.9404296875 139.04296875 -88.0380859375 132.98046875 -84.5380859375 c 6
 124.01953125 -78.5380859375 l 2
 117.95703125 -75.0380859375 116.859375 -70.9404296875 120.359375 -64.8779296875 c 2
 830.359375 1164.87792969 l 2
 833.859375 1170.94042969 837.95703125 1172.03808594 844.01953125 1168.53808594 c 2
EndSplineSet
Refer: 52 111 N 1 0 0 1 0 0 2
EndChar

StartChar: germandbls
Encoding: 223 223 396
Width: 1210
VWidth: 1920
Flags: HW
LayerCount: 2
Fore
SplineSet
220 1188 m 2
 220 1362 287 1487 517 1487 c 0
 750 1487 872 1372 872 1205 c 0
 872 1008 652 948 652 828 c 4
 652 559 1092 593 1092 302 c 0
 1092 90 973 -35 613 -35 c 0
 604 -35 603 -34 603 -25 c 2
 603 -15 l 2
 603 -6 603.999963593 -5.02686578032 613 -5 c 4
 948 -4 1062 114 1062 302 c 4
 1062 575 622 537 622 828 c 0
 622 970 842 1025 842 1205 c 0
 842 1346 739 1457 517 1457 c 0
 315 1457 255 1341 255 1188 c 2
 255 10 l 2
 255 3 252 0 245 0 c 2
 230 0 l 2
 223 0 220 3 220 10 c 2
 220 1188 l 2
EndSplineSet
EndChar

StartChar: eth
Encoding: 240 240 397
Width: 1104
VWidth: 1920
Flags: HW
LayerCount: 2
Fore
SplineSet
182 1172 m 14
 178 1185 l 18
 175 1191 177 1195 183 1198 c 10
 719 1448 l 18
 725 1451 729 1450 732 1444 c 10
 735 1431 l 22
 738 1425 736 1421 730 1418 c 14
 195 1167 l 22
 189 1164 185 1166 182 1172 c 14
469 1055 m 256
 249 1055 190 830 190 567 c 258
 190 457 l 258
 190 177 291 -5 550 -5 c 256
 867 -5 909 252 909 472 c 258
 909 698 l 258
 909 983.786132812 591.865234375 1311.69335938 239 1451.11230469 c 0
 228.648272444 1455.20232773 226.943359375 1458.56347656 231 1466 c 2
 234 1475 l 2
 238.160488413 1482.62756209 239.030932624 1485.06186525 251.999990126 1480.09855568 c 0
 625.542624884 1337.1423129 954 998.637695312 954 623 c 258
 954 537 l 258
 954 237 907 -35 550 -35 c 256
 258 -35 150 179 150 457 c 258
 150 567 l 258
 150 841 212 1085 469 1085 c 256
 706 1085 929 856 929 662 c 257
 909 472 l 257
 909 602 l 258
 909 855 709 1055 469 1055 c 256
EndSplineSet
EndChar

StartChar: dcroat
Encoding: 273 273 398
Width: 1040
VWidth: 1920
Flags: HW
LayerCount: 2
Fore
SplineSet
604 1305 m 14
 604 1320 l 18
 604 1327 607 1330 614 1330 c 10
 1084 1330 l 18
 1091 1330 1094 1327 1094 1320 c 10
 1094 1305 l 22
 1094 1298 1091 1295 1084 1295 c 14
 614 1295 l 22
 607 1295 604 1298 604 1305 c 14
EndSplineSet
Refer: 41 100 N 1 0 0 1 0 0 2
EndChar

StartChar: Hbar
Encoding: 294 294 399
Width: 1271
VWidth: 1920
Flags: HW
LayerCount: 2
Fore
SplineSet
-43 1060 m 10
 -43 1075 l 22
 -43 1082 -40 1085 -33 1085 c 14
 1327 1085 l 22
 1334 1085 1337 1082 1337 1075 c 14
 1337 1060 l 18
 1337 1053 1334 1050 1327 1050 c 10
 -33 1050 l 18
 -40 1050 -43 1053 -43 1060 c 10
EndSplineSet
Refer: 19 72 N 1 0 0 1 0 0 2
EndChar

StartChar: hbar
Encoding: 295 295 400
Width: 1025
VWidth: 1920
Flags: HW
LayerCount: 2
Fore
SplineSet
-22 1305 m 14
 -22 1320 l 18
 -22 1327 -19 1330 -12 1330 c 10
 458 1330 l 18
 465 1330 468 1327 468 1320 c 10
 468 1305 l 22
 468 1298 465 1295 458 1295 c 14
 -12 1295 l 22
 -19 1295 -22 1298 -22 1305 c 14
EndSplineSet
Refer: 45 104 N 1 0 0 1 0 0 2
EndChar

StartChar: Lslash
Encoding: 321 321 405
Width: 1010
VWidth: 1920
Flags: HW
LayerCount: 2
Fore
SplineSet
468.157226562 1038.48046875 m 6
 471.157226562 1033.51953125 l 6
 474.657226562 1027.45703125 473.55859375 1023.359375 467.497070312 1019.859375 c 6
 8.5029296875 754.859375 l 6
 2.44140625 751.359375 -1.6572265625 752.45703125 -5.1572265625 758.51953125 c 6
 -8.1572265625 763.48046875 l 6
 -11.6572265625 769.54296875 -10.55859375 773.640625 -4.4970703125 777.140625 c 6
 454.497070312 1042.140625 l 6
 460.55859375 1045.640625 464.657226562 1044.54296875 468.157226562 1038.48046875 c 6
EndSplineSet
Refer: 23 76 N 1 0 0 1 0 0 2
EndChar

StartChar: lslash
Encoding: 322 322 406
Width: 424
VWidth: 1920
Flags: HW
LayerCount: 2
Fore
SplineSet
463.157226562 1038.48046875 m 6
 466.157226562 1033.51953125 l 6
 469.657226562 1027.45703125 468.55859375 1023.359375 462.497070312 1019.859375 c 6
 3.5029296875 754.859375 l 6
 -2.55859375 751.359375 -6.6572265625 752.45703125 -10.1572265625 758.51953125 c 6
 -13.1572265625 763.48046875 l 6
 -16.6572265625 769.54296875 -15.55859375 773.640625 -9.4970703125 777.140625 c 6
 449.497070312 1042.140625 l 6
 455.55859375 1045.640625 459.657226562 1044.54296875 463.157226562 1038.48046875 c 6
EndSplineSet
Refer: 49 108 N 1 0 0 1 0 0 2
EndChar

StartChar: eng
Encoding: 331 331 408
Width: 1110
VWidth: 1920
Flags: HW
LayerCount: 2
Fore
SplineSet
214 1050 m 2
 221 1050 l 2
 228 1050 230 1047 230 1040 c 2
 230 667 l 257
 235 640 l 257
 235 10 l 2
 235 3 232 0 225 0 c 2
 215 0 l 2
 208 0 205 3 205 10 c 2
 205 1040 l 2
 205 1047 207 1050 214 1050 c 2
905 -86 m 6
 905 -293.388671875 863.923828125 -378.211914062 576 -351.072265625 c 0
 567.969726562 -350.314453125 565 -347.040039062 565 -340 c 2
 565 -330 l 2
 565 -323.059570312 567.944335938 -320.470703125 575 -321.215820312 c 0
 827.081054688 -347.853515625 875 -285.208007812 875 -88 c 2
 875 763 l 2
 875 943 787 1060 600 1060 c 0
 403 1060 235 833 235 623 c 1
 215 623 l 1
 215 843 373 1085 600 1085 c 0
 807 1085 905 963 905 763 c 2
 905 -86 l 6
EndSplineSet
EndChar

StartChar: Eng
Encoding: 330 330 409
Width: 1380
VWidth: 1920
Flags: HW
LayerCount: 2
Fore
SplineSet
1130 1400 m 2
 1140 1400 l 2
 1147 1400 1150 1397 1150 1390 c 2
 1150 -86 l 2
 1150 -293.388671875 1108.92382812 -378.211914062 821 -351.072265625 c 0
 812.969726562 -350.314453125 810 -347.040039062 810 -340 c 2
 810 -330 l 2
 810 -323.059570312 812.944335938 -320.470703125 820 -321.215820312 c 0
 1072.08105469 -347.853515625 1120 -285.208007812 1120 -88 c 2
 1120 -10.2081286244 l 1
 260 1363.46166572 l 1
 260 10 l 2
 260 3 257 0 250 0 c 2
 240 0 l 2
 233 0 230 3 230 10 c 2
 230 1390 l 2
 230 1397 233 1400 240 1400 c 2
 260 1400 l 2
 268 1400 271.233398438 1398.1640625 277 1390 c 2
 1120 46.8123305613 l 25
 1120 1390 l 2
 1120 1397 1123 1400 1130 1400 c 2
EndSplineSet
EndChar

StartChar: oe
Encoding: 339 339 410
Width: 1880
VWidth: 1920
Flags: HW
LayerCount: 2
Fore
SplineSet
130 468 m 258
 130 583 l 258
 130 873 258 1085 555 1085 c 256
 852 1085 980 873 980 583 c 258
 980 468 l 258
 980 178 852 -35 555 -35 c 256
 258 -35 130 178 130 468 c 258
  Spiro
    130 468 [
    130 583 ]
    174.095 841.814 o
    313.004 1019.42 o
    555 1085 o
    796.996 1019.42 o
    935.905 841.814 o
    980 583 [
    980 468 ]
    935.905 208.927 o
    796.996 30.8361 o
    555 -35 o
    313.004 30.8361 o
    174.095 208.927 o
    0 0 z
  EndSpiro
155 468 m 258
 155 198 278 -10 555 -10 c 256
 832 -10 955 198 955 468 c 258
 955 583 l 258
 955 853 832 1060 555 1060 c 256
 278 1060 155 853 155 583 c 258
 155 468 l 258
  Spiro
    155 468 ]
    199.282 224.287 o
    332.807 53.8035 o
    555 -10 o
    777.193 53.8035 o
    910.718 224.287 o
    955 468 [
    955 583 ]
    910.718 826.455 o
    777.193 996.455 o
    555 1060 o
    332.807 996.455 o
    199.282 826.455 o
    155 583 [
    0 0 z
  EndSpiro
1734 329 m 0
 1704 165 1625 -35 1332 -35 c 256
 1103 -35 956 138 956 448 c 258
 956 603 l 258
 956 903 1113 1085 1340 1085 c 256
 1597 1085 1702 889 1726 674 c 256
 1734 603 1734 618 1734 534 c 0
 1734 529 1731 526 1724 526 c 2
 970 526 l 257
 970 555 l 257
 1705 555 l 257
 1700 892 1563 1060 1340 1060 c 256
 1123 1060 986 873 986 603 c 258
 986 448 l 258
 986 178 1114 -10 1331 -10 c 256
 1583 -10 1675 154 1707 332 c 0
 1708 336 1711 338 1718 338 c 2
 1726 338 l 2
 1733 338 1735 335 1734 329 c 0
EndSplineSet
EndChar

StartChar: OE
Encoding: 338 338 411
Width: 2130
VWidth: 1920
Flags: HW
LayerCount: 2
Fore
SplineSet
675 1400 m 262
 1120 1400 l 262
 1127 1400 1130 1397 1130 1390 c 262
 1130 10 l 262
 1130 3 1127 0 1120 0 c 262
 675 0 l 262
 361.000976562 0 180 241.205078125 180 617 c 262
 180 782 l 262
 180 1158.10839844 320.80078125 1400 675 1400 c 262
675 1370 m 262
 350.610351562 1370 210 1150.21289062 210 782 c 262
 210 617 l 262
 210 259.125 380.99609375 30 675 30 c 262
 1100 30 l 261
 1100 1370 l 261
 675 1370 l 262
EndSplineSet
Refer: 16 69 N 1 0 0 1 850 0 2
EndChar

StartChar: Tbar
Encoding: 358 358 413
Width: 1108
VWidth: 1920
Flags: HW
LayerCount: 2
Fore
SplineSet
171 740 m 14
 171 755 l 18
 171 762 174 765 181 765 c 10
 931 765 l 18
 938 765 941 762 941 755 c 10
 941 740 l 22
 941 733 938 730 931 730 c 14
 181 730 l 22
 174 730 171 733 171 740 c 14
EndSplineSet
Refer: 31 84 N 1 0 0 1 0 0 2
EndChar

StartChar: tbar
Encoding: 359 359 414
Width: 621
VWidth: 1920
Flags: HW
LayerCount: 2
Fore
SplineSet
30 670 m 14
 30 685 l 18
 30 692 33 695 40 695 c 10
 560 695 l 18
 567 695 570 692 570 685 c 10
 570 670 l 22
 570 663 567 660 560 660 c 14
 40 660 l 22
 33 660 30 663 30 670 c 14
EndSplineSet
Refer: 57 116 N 1 0 0 1 0 0 2
EndChar

StartChar: uni0394
Encoding: 916 916 430
Width: 1280
VWidth: 1920
Flags: HW
LayerCount: 2
Fore
SplineSet
100 0 m 6
 93 0 91 4 93 10 c 2
 612 1390 l 2
 614 1396 618 1400 625 1400 c 2
 635 1400 l 2
 642 1400 646 1396 648 1390 c 2
 1177 10 l 2
 1179 4 1177 0 1170 0 c 2
 100 0 l 6
140.390334572 30 m 1
 1129.46096654 30 l 1
 630 1355 l 1
 140.390334572 30 l 1
EndSplineSet
EndChar

StartChar: uni03A9
Encoding: 937 937 431
Width: 1490
VWidth: 1920
Flags: HW
LayerCount: 2
Fore
SplineSet
833 51 m 0
 1068 134 1360 468 1360 748 c 2
 1360 793 l 2
 1360 1141 1109 1405 745 1405 c 0
 381 1405 130 1141 130 793 c 2
 130 748 l 2
 130 467 423 132 660 50 c 0
 675 45 675 42 675 31 c 2
 675 10 l 2
 675 3 672 0 665 0 c 2
 115 0 l 2
 108 0 105 3 105 10 c 2
 105 25 l 2
 105 32 108 35 115 35 c 2
 610 35 l 1
 378 142 100 453 100 748 c 2
 100 783 l 2
 100 1169 363 1435 745 1435 c 0
 1127 1435 1390 1169 1390 783 c 2
 1390 748 l 2
 1390 453 1109 142 878 35 c 5
 1375 35 l 2
 1382 35 1385 32 1385 25 c 2
 1385 10 l 2
 1385 3 1382 0 1375 0 c 2
 825 0 l 2
 818 0 815 3 815 10 c 2
 815 31 l 2
 815 42 815 45 833 51 c 0
EndSplineSet
EndChar

StartChar: pi
Encoding: 960 960 432
Width: 1255
VWidth: 1920
Flags: HW
LayerCount: 2
Fore
SplineSet
238 1030 m 2
 238 10 l 2
 238 3 235 0 228 0 c 2
 218 0 l 2
 211 0 208 3 208 10 c 2
 208 1030 l 2
 208 1037 211 1040 218 1040 c 2
 228 1040 l 2
 235 1040 238 1037 238 1030 c 2
1215 20 m 6
 1215 10 l 2
 1215 2.9619140625 1212.05566406 -0.396484375 1205 -1.30859375 c 0
 917.491210938 -38.482421875 940 44.3720703125 940 252 c 258
 940 1030 l 2
 940 1037 943 1040 950 1040 c 2
 965 1040 l 2
 972 1040 975 1037 975 1030 c 2
 975 252 l 262
 975 54.5068359375 956.08203125 -9.3251953125 1206 28.9013671875 c 4
 1212.02139337 29.8223780744 1215 26.951171875 1215 20 c 6
40 1025 m 10
 40 1040 l 18
 40 1047 43 1050 50 1050 c 10
 1150 1050 l 18
 1157 1050 1160 1047 1160 1040 c 10
 1160 1025 l 18
 1160 1018 1157 1015 1150 1015 c 10
 50 1015 l 18
 43 1015 40 1018 40 1025 c 10
EndSplineSet
EndChar

StartChar: minute
Encoding: 8242 8242 433
Width: 470
VWidth: 1920
Flags: HW
LayerCount: 2
Fore
SplineSet
58 930 m 2
 56 930 l 2
 49 930 46.3783911135 933.752818224 48 940 c 2
 220 1410 l 2
 221.703125 1416.56152344 225 1420 232 1420 c 2
 262 1420 l 2
 269 1420 273.231445312 1416.12304688 270 1410 c 2
 70 940 l 2
 67.6621340791 934.506015086 65 930 58 930 c 2
EndSplineSet
EndChar

StartChar: Euro
Encoding: 8364 8364 435
Width: 1405
VWidth: 1920
Flags: HW
LayerCount: 2
Fore
SplineSet
10 555 m 14
 10 570 l 22
 10 577 13 580 20 580 c 14
 790 580 l 22
 797 580 800 577 800 570 c 14
 800 555 l 22
 800 548 797 545 790 545 c 14
 20 545 l 22
 13 545 10 548 10 555 c 14
10 825 m 14
 10 840 l 22
 10 847 13 850 20 850 c 14
 790 850 l 22
 797 850 800 847 800 840 c 14
 800 825 l 22
 800 818 797 815 790 815 c 14
 20 815 l 22
 13 815 10 818 10 825 c 14
1190 348 m 256
 1167.63183594 126.248046875 1032 -35 715 -35 c 256
 328 -35 180 238 180 618 c 258
 180 783 l 258
 180 1163 328 1435 715 1435 c 256
 1052 1435 1140.93261719 1283.29882812 1150 1133 c 256
 1150.5234375 1124.328125 1147 1123 1140 1123 c 258
 1121 1123 l 258
 1114 1123 1110.12168922 1124.24558204 1110 1133 c 256
 1108.25195312 1258.75585938 1042 1405 715 1405 c 256
 348 1405 210 1133 210 793 c 258
 210 608 l 258
 210 248 358 -5 715 -5 c 256
 1022 -5 1142.85644531 155.458007812 1150 348 c 256
 1150.32143962 356.663841391 1153 358 1160 358 c 258
 1180 358 l 258
 1187 358 1190.88183594 356.739257812 1190 348 c 256
EndSplineSet
EndChar

StartChar: uni2116
Encoding: 8470 8470 436
Width: 2180
VWidth: 1920
Flags: HW
LayerCount: 2
Fore
SplineSet
1450 10 m 10
 1450 25 l 22
 1450 32 1453 35 1460 35 c 14
 2050 35 l 22
 2057 35 2060 32 2060 25 c 14
 2060 10 l 18
 2060 3 2057 0 2050 0 c 10
 1460 0 l 18
 1453 0 1450 3 1450 10 c 10
EndSplineSet
Refer: 132 8304 N 1 0 0 1 1370 -295 2
Refer: 25 78 N 1 0 0 1 0 0 2
EndChar

StartChar: trademark
Encoding: 8482 8482 437
Width: 1722
VWidth: 1920
Flags: HW
LayerCount: 2
Fore
SplineSet
86 1400 m 2
 728 1400 l 2
 732 1400 734 1398 734 1394 c 2
 734 1388 l 2
 734 1384 732 1382 728 1382 c 2
 416 1382 l 257
 416 566 l 2
 416 562 414 560 410 560 c 2
 404 560 l 2
 400 560 398 562 398 566 c 2
 398 1382 l 257
 86 1382 l 2
 82 1382 80 1384 80 1388 c 2
 80 1394 l 2
 80 1398 82 1400 86 1400 c 2
912 1364 m 257
 912 566 l 2
 912 562 910 560 906 560 c 2
 900 560 l 2
 896 560 894 562 894 566 c 2
 894 1394 l 2
 894 1398 896 1400 900 1400 c 2
 912 1400 l 2
 916 1400 918 1398 920 1394 c 2
 1254 583 l 257
 1558 1394 l 2
 1560 1398 1562 1400 1566 1400 c 2
 1578 1400 l 2
 1582 1400 1584 1398 1584 1394 c 2
 1584 566 l 2
 1584 562 1582 560 1578 560 c 2
 1572 560 l 2
 1568 560 1566 562 1566 566 c 2
 1566 1364 l 257
 1268 566 l 2
 1266 562 1264 560 1260 560 c 2
 1248 560 l 2
 1244 560 1242 562 1240 566 c 2
 912 1364 l 257
EndSplineSet
EndChar

StartChar: partialdiff
Encoding: 8706 8706 438
Width: 1104
VWidth: 1920
Flags: HW
LayerCount: 2
Fore
SplineSet
529 855 m 256
 299 855 150 700 150 467 c 258
 150 347 l 258
 150 137 321 -5 600 -5 c 256
 907 -5 999 302 999 472 c 258
 999 648 l 258
 999 933.786132812 688.865234375 1269.69335938 236 1450.11230469 c 4
 225.659936715 1454.23172736 223.943359375 1457.56347656 228 1465 c 2
 234 1475 l 2
 238.160488413 1482.62756209 239.030932624 1485.06186525 251.999990126 1480.09855568 c 0
 625.542624884 1337.1423129 1034 998.637400771 1034 623 c 258
 1034 537 l 258
 1034 237 917 -35 600 -35 c 256
 308 -35 120 109 120 357 c 258
 120 467 l 258
 120 711 272 885 529 885 c 256
 766 885 1009 716 1009 552 c 257
 999 372 l 257
 999 502 l 258
 999 685 789 855 529 855 c 256
EndSplineSet
EndChar

StartChar: summation
Encoding: 8721 8721 439
Width: 1170
VWidth: 1920
Flags: HW
LayerCount: 2
Fore
SplineSet
899.446289062 505 m 2
 131.928710938 -330 l 1
 1108 -330 l 2
 1115 -330 1118 -333 1118 -340 c 2
 1118 -350 l 2
 1118 -357 1115 -360 1108 -360 c 2
 78 -360 l 2
 71 -360 69.4931640625 -357.767578125 75 -350 c 2
 871.767578125 520 l 5
 75 1390 l 2
 69.4931640625 1397.76757812 71 1400 78 1400 c 2
 1108 1400 l 2
 1115 1400 1118 1397 1118 1390 c 2
 1118 1380 l 2
 1118 1373 1115 1370 1108 1370 c 2
 131.928710938 1370 l 1
 899.446289062 535 l 2
 907.642578125 523.453125 907.692382812 516.6171875 899.446289062 505 c 2
EndSplineSet
EndChar

StartChar: minus
Encoding: 8722 8722 440
Width: 1170
Flags: HW
LayerCount: 2
Fore
SplineSet
130 525 m 14
 130 540 l 22
 130 547 133 550 140 550 c 14
 1030 550 l 22
 1037 550 1040 547 1040 540 c 14
 1040 525 l 22
 1040 518 1037 515 1030 515 c 14
 140 515 l 22
 133 515 130 518 130 525 c 14
EndSplineSet
EndChar

StartChar: integral
Encoding: 8747 8747 441
Width: 445
VWidth: 1920
Flags: HW
LayerCount: 2
Fore
SplineSet
238 -98 m 2
 238 -305.388671875 196.923850901 -378.212324891 -91 -351.071861109 c 0
 -99.0306840663 -350.314867586 -102 -347.039908704 -102 -340 c 2
 -102 -330 l 6
 -102 -323.059570312 -99.031314423 -320.267556482 -92 -321.215820312 c 4
 187.081054688 -358.853515625 208 -265.208007812 208 -78 c 6
 208 1188 l 2
 208 1395.14550781 238.911132812 1468.85058594 526 1441.16601562 c 0
 535.02734375 1440.29492188 538 1437.046875 538 1430 c 2
 538 1410 l 2
 538 1403.15625 535.059465268 1400.68631818 522 1401.88964844 c 0
 246.801757812 1427.24707031 238 1353.49511719 238 1168 c 2
 238 -98 l 2
EndSplineSet
EndChar

StartChar: radical
Encoding: 8730 8730 443
Width: 1055
VWidth: 1920
Flags: HMW
LayerCount: 2
Fore
SplineSet
300 1050 m 2
 307 1050 310.802734375 1046.12207031 313 1040 c 2
 605.581054688 3.9072265625 l 5
 943 1590 l 2
 943 1597 946 1600 953 1600 c 2
 978 1600 l 2
 985 1600 989.347093392 1596.73547073 988 1590 c 2
 611.395507812 -143.0234375 l 2
 609.89453125 -150.52734375 607.641601562 -151.240234375 604.395507812 -143.0234375 c 2
 279.110351562 1020 l 1
 38 1020 l 2
 31 1020 28 1023 28 1030 c 2
 28 1040 l 2
 28 1047 31 1050 38 1050 c 2
 300 1050 l 2
EndSplineSet
EndChar

StartChar: infinity
Encoding: 8734 8734 444
Width: 1450
Flags: HMW
LayerCount: 2
Fore
SplineSet
382 301 m 0
 182 301 64 471 64 665 c 0
 64 859 182 1025 382 1025 c 0
 536 1025 638 855 702 695 c 1
 766 855 866 1025 1020 1025 c 0
 1220 1025 1336 859 1336 665 c 0
 1336 471 1220 301 1020 301 c 0
 866 301 746 471 702 631 c 1
 636 471 536 301 382 301 c 0
382 331 m 4
 540 331 632 541 686 665 c 1
 636 787 540 995 382 995 c 4
 202 995 94 835 94 665 c 0
 94 507 202 331 382 331 c 4
1020 331 m 4
 1210 331 1306 507 1306 665 c 0
 1306 825 1210 995 1020 995 c 4
 862 995 766 787 716 665 c 1
 746 543 862 331 1020 331 c 4
EndSplineSet
EndChar

StartChar: product
Encoding: 8719 8719 445
Width: 1380
VWidth: 1920
Flags: HW
LayerCount: 2
Fore
SplineSet
1170 1400 m 6
 1177 1400 1180 1397 1180 1390 c 6
 1180 10 l 6
 1180 3 1177 0 1170 0 c 6
 1160 0 l 6
 1153 0 1150 3 1150 10 c 6
 1150 1370 l 261
 230 1370 l 257
 230 10 l 2
 230 3 227 0 220 0 c 2
 210 0 l 2
 203 0 200 3 200 10 c 2
 200 1390 l 18
 200 1397 203 1400 210 1400 c 10
 1170 1400 l 6
EndSplineSet
EndChar

StartChar: uni2219
Encoding: 8729 8729 446
Width: 540
Flags: HW
LayerCount: 2
Fore
SplineSet
121 675 m 0
 121 763 182 825 270 825 c 0
 358 825 419 763 419 675 c 0
 419 587 363 525 275 525 c 0
 187 525 121 587 121 675 c 0
EndSplineSet
EndChar

StartChar: approxequal
Encoding: 8776 8776 447
Width: 1180
VWidth: 1920
Flags: HW
LayerCount: 2
Fore
SplineSet
402 429 m 256
 279.913085938 429 183.124023438 319.868164062 180.083984375 207 c 0
 179.922851562 201 176.9140625 198 170 198 c 2
 160 198 l 2
 152.911132812 198 149.907226562 201 150.088867188 207 c 0
 154.280273438 345.384765625 261.4453125 459 402 459 c 256
 581 459 627 202 779 202 c 256
 900.872070312 202 997.62890625 320.809570312 1000.89550781 423 c 0
 1001.11914062 429.999023438 1004.10644531 433 1011 433 c 2
 1020 433 l 2
 1027.109375 433 1030.11914062 430 1029.890625 423 c 0
 1025.39453125 285.125 919.28125 172 779 172 c 256
 600 172 574 429 402 429 c 256
402 799 m 260
 279.913085938 799 183.124023438 689.868164062 180.083984375 577 c 4
 179.922380747 571.000108428 176.9140625 568 170 568 c 6
 160 568 l 6
 152.911132812 568 149.907226562 571 150.088867188 577 c 4
 154.280273438 715.384765625 261.4453125 829 402 829 c 260
 581 829 627 572 779 572 c 260
 900.872070312 572 997.62890625 690.809570312 1000.89550781 793 c 4
 1001.11923685 799.999006873 1004.10644531 803 1011 803 c 6
 1020 803 l 6
 1027.109375 803 1030.11914062 800 1029.890625 793 c 4
 1025.39453125 655.125 919.28125 542 779 542 c 260
 600 542 574 799 402 799 c 260
EndSplineSet
EndChar

StartChar: notequal
Encoding: 8800 8800 448
Width: 1180
VWidth: 1920
Flags: HW
LayerCount: 2
Fore
SplineSet
1008 960 m 2
 1010 958 l 2
 1015 953 1015 949 1010 944 c 2
 186 40 l 2
 181 35 177 35 172 40 c 2
 170 42 l 6
 165 47 165 51 170 56 c 6
 994 960 l 2
 999 965 1003 965 1008 960 c 2
EndSplineSet
Refer: 83 61 N 1 0 0 1 0 0 2
EndChar

StartChar: lessequal
Encoding: 8804 8804 449
Width: 1010
VWidth: 1920
Flags: HW
LayerCount: 2
Fore
SplineSet
110 10 m 10
 110 25 l 22
 110 32 113 35 120 35 c 14
 890 35 l 22
 897 35 900 32 900 25 c 14
 900 10 l 18
 900 3 897 0 890 0 c 10
 120 0 l 18
 113 0 110 3 110 10 c 10
EndSplineSet
Refer: 84 60 N 1 0 0 1 0 150 2
EndChar

StartChar: greaterequal
Encoding: 8805 8805 450
Width: 1010
VWidth: 1920
Flags: HW
LayerCount: 2
Fore
SplineSet
110 10 m 10
 110 25 l 22
 110 32 113 35 120 35 c 14
 890 35 l 22
 897 35 900 32 900 25 c 14
 900 10 l 18
 900 3 897 0 890 0 c 10
 120 0 l 18
 113 0 110 3 110 10 c 10
EndSplineSet
Refer: 85 62 N 1 0 0 1 0 150 2
EndChar

StartChar: lozenge
Encoding: 9674 9674 451
Width: 950
Flags: HW
LayerCount: 2
Fore
SplineSet
481 40 m 2
 81 702 l 2
 76.3843022846 709.638979719 76.3487137855 714.325377746 81 722 c 2
 481 1382 l 2
 486.673178911 1391.3607452 487.493453472 1391.66574656 493 1382 c 2
 869 722 l 2
 873.392640324 714.289514325 873.403091295 709.752251162 869 702 c 2
 493 40 l 2
 487.569002998 30.4379786829 486.728032221 30.5201066743 481 40 c 2
481 124 m 1
 833 712 l 5
 481 1300 l 1
 117 712 l 1
 481 124 l 1
EndSplineSet
EndChar

StartChar: uniF8EA
Encoding: 63722 63722 452
Width: 1088
VWidth: 1920
Flags: HW
LayerCount: 2
Fore
SplineSet
78 1400 m 6
 464 1400 l 6
 466 1400 467 1398 467 1396 c 6
 467 1393 l 6
 467 1391 466 1389 464 1389 c 6
 276 1389 l 261
 276 900 l 6
 276 898 275 896 273 896 c 6
 269 896 l 6
 267 896 266 898 266 900 c 6
 266 1389 l 261
 78 1389 l 6
 76 1389 75 1391 75 1393 c 6
 75 1396 l 6
 75 1398 76 1400 78 1400 c 6
574 1378 m 261
 574 900 l 6
 574 898 572 896 570 896 c 6
 567 896 l 6
 565 896 563 898 563 900 c 6
 563 1396 l 6
 563 1398 565 1400 567 1400 c 6
 574 1400 l 6
 576 1400 578 1398 579 1396 c 6
 779 910 l 261
 962 1396 l 6
 963 1398 964 1400 966 1400 c 6
 974 1400 l 6
 976 1400 977 1398 977 1396 c 6
 977 900 l 6
 977 898 976 896 974 896 c 6
 970 896 l 6
 968 896 966 898 966 900 c 6
 966 1378 l 261
 788 900 l 6
 787 898 785 896 783 896 c 6
 776 896 l 6
 774 896 772 898 771 900 c 6
 574 1378 l 261
EndSplineSet
EndChar

StartChar: uniF8E8
Encoding: 63720 63720 453
Width: 986
Flags: HW
LayerCount: 2
Fore
SplineSet
349 1259 m 261
 349 1027 l 261
 522 1027 l 262
 589 1027 650 1061 650 1129 c 262
 650 1141 l 262
 650 1217 607 1259 522 1259 c 262
 349 1259 l 261
522 1270 m 262
 611 1270 660 1224 660 1141 c 262
 660 1132 l 262
 660 1056 607 1021 522 1021 c 261
 522 1025 l 261
 614 1025 657 1003 657 917 c 262
 657 884 l 262
 657 843 667 799 684 774 c 4
 687 770 687 769 687 768 c 6
 687 767 l 6
 687 766 686 766 684 766 c 6
 680 766 l 6
 678 766 677 766 675 769 c 4
 655 804 645 838 645 884 c 262
 645 917 l 262
 645 1003 600 1019 522 1019 c 262
 349 1019 l 261
 349 769 l 6
 349 767 347 766 345 766 c 6
 342 766 l 6
 340 766 338 767 338 769 c 6
 338 1266 l 6
 338 1268 340 1270 342 1270 c 6
 522 1270 l 262
911 1016 m 4
 911 786 722 599 492 599 c 4
 262 599 75 786 75 1016 c 4
 75 1246 262 1435 492 1435 c 4
 722 1435 911 1246 911 1016 c 4
893 1016 m 4
 893 1237 713 1417 492 1417 c 4
 271 1417 93 1237 93 1016 c 4
 93 795 271 617 492 617 c 4
 713 617 893 795 893 1016 c 4
EndSplineSet
EndChar

StartChar: uniF8E9
Encoding: 63721 63721 454
Width: 986
Flags: HW
LayerCount: 2
Fore
SplineSet
681 945 m 260
 678 856 607 753 492 753 c 260
 353 753 296 851 296 988 c 262
 296 1048 l 262
 296 1185 353 1282 492 1282 c 260
 535 1282 669 1270 671 1116 c 260
 671 1113 669 1112 667 1112 c 262
 664 1112 l 262
 662 1112 660 1113 660 1116 c 260
 659 1212 599 1271 496 1271 c 260
 360 1271 307 1178 307 1048 c 262
 307 988 l 262
 307 858 360 764 496 764 c 260
 581 764 665 843 671 945 c 260
 671 948 672 949 674 949 c 262
 678 949 l 262
 680 949 681 948 681 945 c 260
911 1016 m 4
 911 786 722 599 492 599 c 4
 262 599 75 786 75 1016 c 4
 75 1246 262 1435 492 1435 c 4
 722 1435 911 1246 911 1016 c 4
893 1016 m 4
 893 1237 713 1417 492 1417 c 4
 271 1417 93 1237 93 1016 c 4
 93 795 271 617 492 617 c 4
 713 617 893 795 893 1016 c 4
EndSplineSet
EndChar

StartChar: uni1E9E
Encoding: 7838 7838 457
Width: 1380
VWidth: 1920
Flags: HW
LayerCount: 2
Fore
SplineSet
240 1005 m 2
 240 1289 397 1434 687 1434 c 0
 958.006639831 1434 1108.88139579 1328.54071264 1209 1190.51056531 c 0
 1222.21131523 1172.29657 1224.62322163 1170.1711967 1210.5995086 1156 c 2
 752 692.3671875 l 1
 921.260742188 643.213867188 1222 568.829101562 1222 348.020507812 c 0
 1222 124.259765625 1128.4609375 -35 859.372070312 -35 c 0
 751.129882812 -35 653.5078125 -15.0126953125 607.315429688 15.533203125 c 0
 585.309570312 30.0849609375 583 26 583 35 c 2
 583 45 l 2
 583 55.908203125 586.198242188 59.1064453125 604.728515625 47.9189453125 c 0
 647.80859375 21.908203125 767.4140625 -5 859.372070312 -5 c 0
 1114.57128906 -5 1192 150.524414062 1192 348.020507812 c 0
 1192 544.606445312 907.87739607 622.09494795 732.000004426 672.367514603 c 0
 712.046197765 678.071084948 708.666532884 681.031889381 724.348008386 697 c 2
 1190 1172.51074219 l 1
 1087.27636719 1304.46386719 965.23046875 1404 687 1404 c 0
 418 1404 275 1278 275 985 c 2
 275 10 l 2
 275 3 272 0 265 0 c 2
 250 0 l 2
 243 0 240 3 240 10 c 2
 240 1005 l 2
  Spiro
    240 1005 ]
    291.342 1242.25 o
    442.421 1385.98 o
    687 1434 o
    920.333 1401.61 o
    1089.53 1314.88 o
    1209 1190.51 o
    1218.4 1176.63 o
    1219.35 1167.19 o
    1210.6 1156 [
    752 692.367 v
    948.87 630.394 o
    1137.91 524.373 o
    1222 348.021 o
    1187.85 149.44 o
    1072.82 14.4814 o
    859.372 -35 o
    756.278 -28.699 o
    669.064 -11.1215 o
    607.315 15.5332 o
    591.242 25.0419 o
    584.41 29.1906 o
    583 35 [
    583 45 ]
    584.512 53.0859 o
    590.869 54.5561 o
    604.729 47.9189 o
    669.376 22.6624 o
    762.155 2.92472 o
    859.372 -5 o
    1058.88 42.5448 o
    1162.54 168.878 o
    1192 348.021 o
    1111.97 508.183 o
    929.223 609.699 o
    732 672.368 o
    717.672 677.735 o
    714.931 684.793 o
    724.348 697 [
    1190 1172.51 v
    1075.9 1291.07 o
    918.049 1373.37 o
    687 1404 o
    460.813 1360.57 o
    321.944 1223.67 o
    275 985 [
    275 10 ]
    273.965 4.30074 o
    270.699 1.03493 o
    265 0 [
    250 0 ]
    244.301 1.03493 o
    241.035 4.30074 o
    240 10 [
    0 0 z
  EndSpiro
EndSplineSet
EndChar
